<svg width="1280" height="600" viewBox="0 0 1280 600" fill="none" xmlns="http://www.w3.org/2000/svg">
<path fill-rule="evenodd" clip-rule="evenodd" d="M847.458 347.024C851.682 302.433 1078.33 216.368 1120.41 258.604C1162.48 300.839 1151.83 389.677 1063.66 409.974C975.48 430.272 843.234 391.615 847.458 347.024Z" fill="#DDE3E9" fill-opacity="0.6"/>
<path fill-rule="evenodd" clip-rule="evenodd" d="M1036.97 266.149C1032.55 268.817 1028.21 270.106 1026.17 269.58C1021.06 268.26 1020.59 249.533 1024.54 242.15C1028.5 234.767 1048.83 231.549 1049.86 246.177C1050.21 251.254 1048.08 255.785 1044.94 259.482L1050.58 285.804H1034.2L1036.97 266.149Z" fill="#B28B67"/>
<path fill-rule="evenodd" clip-rule="evenodd" d="M1017.28 231.915C1017.62 230.721 1018.54 229.699 1019.77 229.395C1020.06 229.322 1020.37 229.292 1020.68 229.304C1020.79 229.309 1020.82 229.341 1020.87 229.264C1020.91 229.206 1020.91 229.067 1020.93 229C1020.98 228.791 1021.04 228.585 1021.11 228.384C1021.37 227.699 1021.8 227.092 1022.32 226.581C1023.3 225.626 1024.61 224.966 1025.98 224.847C1026.73 224.782 1027.48 224.904 1028.18 225.148C1028.55 225.274 1028.91 225.431 1029.25 225.605C1029.36 225.657 1029.7 225.914 1029.8 225.897C1029.92 225.879 1030.15 225.591 1030.24 225.519C1031.4 224.627 1032.84 224.276 1034.28 224.287C1035.92 224.299 1037.49 224.381 1038.85 225.377C1039.14 225.588 1039.41 225.819 1039.67 226.063C1039.81 226.191 1039.95 226.324 1040.07 226.462C1040.15 226.545 1040.22 226.631 1040.3 226.719C1040.42 226.867 1040.4 226.916 1040.57 226.812C1041.22 226.414 1041.98 226.227 1042.75 226.321C1043.2 226.377 1043.64 226.514 1044.06 226.694C1044.21 226.755 1044.54 226.999 1044.69 227.001C1044.84 227.004 1045.17 226.777 1045.32 226.72C1046.16 226.409 1047.07 226.333 1047.95 226.476C1048.86 226.624 1049.76 226.988 1050.53 227.491C1050.9 227.733 1051.23 228.001 1051.49 228.361C1051.6 228.517 1051.7 228.681 1051.83 228.825C1051.9 228.909 1052.05 228.996 1052.09 229.103C1052.07 229.039 1053.09 228.645 1053.18 228.62C1053.7 228.485 1054.22 228.513 1054.72 228.678C1055.67 228.989 1056.48 229.688 1057.15 230.403C1057.49 230.771 1057.79 231.177 1058.04 231.61C1058.17 231.818 1058.28 232.031 1058.38 232.249C1058.43 232.354 1058.46 232.486 1058.53 232.581C1058.61 232.704 1058.67 232.706 1058.82 232.76C1059.59 233.031 1060.3 233.49 1060.83 234.11C1061.38 234.738 1061.73 235.511 1061.88 236.325C1061.89 236.373 1061.89 236.571 1061.92 236.597C1061.96 236.633 1062.11 236.617 1062.17 236.624C1062.37 236.648 1062.58 236.684 1062.78 236.731C1063.14 236.818 1063.5 236.946 1063.84 237.114C1065.16 237.768 1066.11 238.994 1066.57 240.374C1067.05 241.822 1067.04 243.481 1066.46 244.902C1066.37 245.132 1066.26 245.354 1066.13 245.565C1066.05 245.695 1066.02 245.695 1066.07 245.831C1066.13 245.982 1066.24 246.128 1066.31 246.276C1066.53 246.757 1066.69 247.268 1066.79 247.79C1066.95 248.645 1067.03 249.545 1066.87 250.407C1066.8 250.807 1066.67 251.198 1066.47 251.555C1066.37 251.737 1066.25 251.909 1066.12 252.069C1066.05 252.151 1065.97 252.23 1065.89 252.306C1065.85 252.35 1065.79 252.387 1065.76 252.436C1065.66 252.554 1065.64 252.457 1065.69 252.63C1065.76 252.872 1065.91 253.111 1066 253.346C1066.09 253.589 1066.18 253.835 1066.26 254.083C1066.42 254.586 1066.55 255.098 1066.63 255.619C1066.79 256.619 1066.77 257.685 1066.29 258.603C1066.09 258.996 1065.8 259.34 1065.45 259.608C1065.28 259.739 1065.09 259.852 1064.9 259.945C1064.8 259.993 1064.67 260.013 1064.62 260.11C1064.57 260.215 1064.65 260.423 1064.66 260.54C1064.81 261.557 1064.88 262.625 1064.58 263.622C1064.3 264.54 1063.69 265.351 1062.89 265.887C1061.35 266.929 1059.27 266.87 1057.65 266.036C1057.23 265.819 1056.83 265.549 1056.48 265.231C1055.58 266.441 1053.74 266.403 1052.42 266.058C1050.79 265.629 1049.48 264.49 1048.72 262.995C1047.69 264.254 1045.52 263.846 1044.8 262.479C1044.63 262.145 1044.52 261.776 1044.47 261.403C1044.44 261.207 1044.46 261.009 1044.44 260.814C1044.42 260.566 1044.25 260.326 1044.16 260.086C1043.97 259.619 1043.86 259.137 1043.85 258.633C1043.85 258.37 1043.88 258.114 1043.91 257.853C1043.93 257.618 1043.86 257.4 1043.83 257.168C1044.25 257.237 1044.76 257.124 1045.15 257.002C1045.54 256.883 1045.9 256.568 1046.18 256.281C1046.81 255.613 1047.2 254.739 1047.46 253.868C1048.05 251.958 1047.81 249.665 1045.89 248.617C1044.99 248.128 1042.32 248.13 1041.25 248.371C1040.13 248.625 1038.86 251.099 1038.8 251.331C1038.76 251.475 1038.78 251.653 1038.65 251.749C1038.36 251.96 1037.88 251.594 1037.67 251.414C1037.3 251.102 1037.03 250.687 1036.81 250.267C1036.31 249.351 1035.91 248.369 1035.62 247.367C1035.41 246.594 1035.27 245.797 1034.98 245.044C1034.7 244.294 1034.25 243.624 1033.55 243.2C1032.8 242.738 1031.93 242.495 1031.1 242.204C1030.28 241.917 1029.47 241.565 1028.83 240.955C1028.69 240.821 1028.55 240.678 1028.44 240.52C1028.35 240.395 1028.26 240.157 1028.13 240.077C1027.91 239.954 1027.61 240.274 1027.42 240.391C1026.52 240.964 1025.77 241.763 1025.16 242.637C1024.56 243.505 1024.07 244.341 1023.66 245.311C1023.37 246.03 1023.18 246.951 1022.65 247.541C1022.42 247.804 1020.68 247.963 1020.12 247.734C1019.55 247.504 1018.92 246.907 1018.73 246.533C1018.54 246.15 1018.49 245.73 1018.57 245.311C1018.62 245.064 1018.72 244.834 1018.78 244.592C1018.82 244.389 1018.86 244.196 1018.96 244.01C1019.15 243.657 1019.47 243.403 1019.86 243.297C1019.45 242.926 1019.12 242.482 1018.89 241.986C1018.65 241.471 1018.45 240.844 1018.39 240.279C1018.34 239.819 1018.42 239.343 1018.67 238.949C1018.93 238.534 1019.4 238.264 1019.8 238.006C1019.18 237.523 1018.66 236.935 1018.22 236.284C1017.38 235.019 1016.86 233.424 1017.28 231.915Z" fill="#191847"/>
<path fill-rule="evenodd" clip-rule="evenodd" d="M1080.19 371.245H1027.45L1020.54 456.002H1099.04L1080.19 371.245Z" fill="#C5CFD6"/>
<path fill-rule="evenodd" clip-rule="evenodd" d="M1080.19 371.245H1063.97L1054.26 456.002H1099.04L1080.19 371.245Z" fill="black" fill-opacity="0.1"/>
<path fill-rule="evenodd" clip-rule="evenodd" d="M998.481 388.036C1004.41 400.621 1013.67 431.171 1013.67 431.171L1005.81 434.767C1005.81 434.767 985.86 402.654 973.67 380.702C974.238 385.644 974.816 391.208 975.352 397.056C976.623 410.912 975.353 440.846 974.67 449.493C974.24 454.927 966.866 453.789 966.178 449.479C966.061 448.749 965.586 446.186 964.877 442.362C961.401 423.612 952.302 374.538 952.286 362.522C952.28 357.687 961.713 353.343 967.335 356.724C971.197 352.597 978.506 350.219 982.705 357.035C985.374 361.369 991.717 373.671 998.481 388.036Z" fill="#B28B67"/>
<path fill-rule="evenodd" clip-rule="evenodd" d="M1013.1 419.861L986.124 355.857C979.66 345.445 961.538 357.976 963.742 364.014C968.746 377.724 994.197 422.109 995.688 426.194L1013.1 419.861Z" fill="#1F28CF"/>
<path fill-rule="evenodd" clip-rule="evenodd" d="M1012.17 427.973C1012.88 427.045 1014.22 426.817 1015.11 427.586C1016.15 428.497 1017.39 429.674 1017.88 430.529C1018.81 432.131 1020.04 435.51 1020.04 435.51C1018.19 436.583 986.703 454.787 986.703 454.787C986.703 454.787 982.923 451.235 985.525 449.274C988.128 447.312 989.82 445.964 989.82 445.964L1001.14 430.352C1001.47 429.895 1002.11 429.802 1002.56 430.146L1004.69 431.791C1004.69 431.791 1007.98 431.503 1009.6 430.566C1010.43 430.088 1011.41 428.962 1012.17 427.973Z" fill="#E4E4E4"/>
<path fill-rule="evenodd" clip-rule="evenodd" d="M973.867 445.532C974.951 445.086 976.228 445.56 976.608 446.668C977.058 447.98 977.542 449.618 977.542 450.606C977.542 452.455 976.927 456.002 976.927 456.002C974.785 456.002 938.428 456.002 938.428 456.002C938.428 456.002 936.927 451.034 940.16 450.638C943.394 450.242 945.532 449.923 945.532 449.923L963.127 442.068C963.642 441.838 964.245 442.079 964.459 442.6L965.485 445.092C965.485 445.092 968.478 446.49 970.35 446.49C971.304 446.49 972.714 446.006 973.867 445.532Z" fill="#E4E4E4"/>
<path fill-rule="evenodd" clip-rule="evenodd" d="M950.395 367.44C950.395 385.599 959.007 427.957 959.013 431.956L977.542 431.97C977.542 431.97 973.474 375.276 974.657 374.665C975.84 374.054 1023.15 379.396 1037.35 379.396C1057.81 379.396 1066.27 366.474 1066.96 342.537H1026.42C1018.17 343.421 975.12 352.116 959.131 355.106C952.286 356.385 950.395 362.437 950.395 367.44Z" fill="#2B44FF"/>
<path fill-rule="evenodd" clip-rule="evenodd" d="M976.605 350.573L995.941 331.684L1002.36 342.812L982.256 354.683C977.215 362.636 974.254 366.072 973.373 364.992C972.631 364.081 972.971 363.083 973.285 362.163C973.529 361.447 973.757 360.778 973.444 360.236C972.729 358.998 968.692 359.707 964.89 360.544C961.088 361.381 961.968 359.51 962.776 358.534C966.369 355.63 970.979 352.977 976.605 350.573ZM1090.58 378.017C1088.58 373.954 1081.77 334.348 1081.77 334.348L1067.5 334.404C1067.5 334.404 1080.71 377.111 1081.77 379.724C1083.13 383.119 1080.81 388.051 1079.24 391.395C1078.99 391.913 1078.77 392.392 1078.57 392.822C1080.76 393.801 1081.81 392.617 1082.92 391.369C1084.17 389.959 1085.49 388.467 1088.61 389.919C1089.81 390.479 1090.95 391.142 1092.06 391.79C1095.9 394.026 1099.43 396.081 1104.24 393.114C1105 392.644 1105.83 390.872 1103.82 389.488C1098.79 386.04 1091.56 380.004 1090.58 378.017Z" fill="#B28B67"/>
<path fill-rule="evenodd" clip-rule="evenodd" d="M1041.23 274.411L1035.33 273.398C1025.17 298.818 1007.42 321.916 982.103 342.691L1001.24 365.969C1026.56 336.388 1042.16 305.869 1041.23 274.411Z" fill="#191847"/>
<path fill-rule="evenodd" clip-rule="evenodd" d="M1066.96 348.689H1014.4C1014.4 348.689 1032.67 304.217 1032.67 273.132L1048.52 270.767C1060.98 290.834 1064.5 315.541 1066.96 348.689Z" fill="#DDE3E9"/>
<path fill-rule="evenodd" clip-rule="evenodd" d="M1090.85 371.245C1085.1 306.307 1048.87 270.767 1048.87 270.767L1048.86 270.778C1048.85 270.774 1048.85 270.77 1048.85 270.767H1047.82C1045.96 270.831 1042.16 270.997 1042.16 270.997L1038.33 281.961C1037.72 302.011 1031.23 362.773 1031.23 362.773H1065.63C1065.57 365.559 1065.44 368.385 1065.23 371.245H1090.85Z" fill="#2F3676"/>
<path fill-rule="evenodd" clip-rule="evenodd" d="M1065.62 363.043C1065.9 350.91 1064.82 339.519 1063.03 329.209C1062.09 341.442 1060.13 356.162 1056.04 363.043H1065.62Z" fill="black" fill-opacity="0.1"/>
<path fill-rule="evenodd" clip-rule="evenodd" d="M1058.01 341.853L1041.02 333.944V341.853H1058.01Z" fill="white" fill-opacity="0.2"/>
<path fill-rule="evenodd" clip-rule="evenodd" d="M836.956 206.487C842.13 207.981 846.854 208.107 848.766 207.026C853.561 204.317 848.981 185.327 843.002 178.958C837.024 172.59 815.666 174.839 818.581 189.849C819.593 195.059 822.961 199.048 827.128 201.923L828.55 229.959L845.057 225.536L836.956 206.487Z" fill="#B28B67"/>
<path fill-rule="evenodd" clip-rule="evenodd" d="M845.456 181.88C845.034 180.96 844.347 179.997 843.78 179.171C843.05 178.107 842.137 177.215 841.177 176.402C839.369 174.87 837.351 173.591 835.247 172.644C831.403 170.914 826.991 170.504 823.173 172.044C821.245 172.822 819.515 174.101 818.207 175.809C817.026 177.352 816.046 179.42 814.152 180.058C812.091 180.751 809.674 179.414 807.686 178.72C805.445 177.939 803.177 177.539 800.863 177.768C796.988 178.15 793.838 180.34 792.097 184.073C790.244 188.046 789.54 193.333 792.479 197.151C793.026 197.861 793.634 198.42 794.397 198.814C795.096 199.175 796.101 199.49 796.549 200.246C797.024 201.051 796.601 202.366 796.53 203.226C796.429 204.458 796.415 205.726 796.86 206.916C797.59 208.87 799.363 210.448 801.046 211.41C802.759 212.39 804.631 212.713 806.505 212.591C807.757 212.509 809.006 212.315 810.189 211.902C810.777 211.697 811.261 211.389 811.806 211.101C812.336 210.821 812.692 210.886 813.254 211.068C815.866 211.912 818.409 211.828 820.921 210.925C823.042 210.163 825.401 208.967 826.771 207.005C828.294 204.827 827.644 202.559 826.53 200.248C827.085 200.36 828.48 200.148 827.411 199.396C826.987 199.098 826.339 199.104 825.867 198.989C825.317 198.855 824.74 198.646 824.253 198.317C822.286 196.989 822.86 193.06 824.594 191.974C827.169 190.36 828.862 194.164 831.141 194.655C832.451 194.937 833.44 193.807 834.082 192.751C834.942 191.336 835.338 189.662 835.619 187.99C835.851 186.613 836.039 185.23 836.283 183.856C836.397 183.215 836.888 181.356 836.252 180.836C838.155 179.896 840.618 180.133 842.643 180.765C843.48 181.027 844.159 181.381 844.755 182.079C844.883 182.228 845.198 182.69 845.427 182.651C845.853 182.579 845.561 182.111 845.456 181.88" fill="#191847"/>
<path fill-rule="evenodd" clip-rule="evenodd" d="M810.363 357.004C810.363 357.004 835.986 364.178 854.576 364.178C873.166 364.178 889.111 353.13 889.111 353.13C889.111 353.13 864.037 345.767 847.811 345.767C831.586 345.767 810.363 357.004 810.363 357.004Z" fill="#1F28CF"/>
<path fill-rule="evenodd" clip-rule="evenodd" d="M869.363 371.072C869.198 370.824 869.059 370.554 868.949 370.262C866.666 364.218 830.093 299.011 826.45 287.089H867.625C870.395 296.153 882.864 353.035 884.618 364.384C890.155 382.285 901.554 440.261 903.009 444.278C904.54 448.503 895.926 452.905 893.631 447.71C889.979 439.445 881.277 416.576 877.402 402.612C873.77 389.521 870.812 377.743 869.363 371.072Z" fill="#997659"/>
<path fill-rule="evenodd" clip-rule="evenodd" d="M835.676 379.033C818.956 383.263 757.796 390.911 753.599 392.11C749.282 393.344 745.496 384.436 750.833 382.506C759.324 379.436 782.722 372.341 796.908 369.446C808.318 367.118 818.73 365.218 825.721 364.105C825.129 344.449 822.421 297.277 824.196 287.089H860.628C858.927 296.859 844.543 368.145 841.87 375.28C841.021 377.827 838.49 378.953 835.676 379.033V379.033Z" fill="#B28B67"/>
<path fill-rule="evenodd" clip-rule="evenodd" d="M752.205 382.549C752.459 381.407 751.772 380.234 750.616 380.049C749.173 379.817 747.348 379.603 746.312 379.786C744.415 380.121 740.888 381.396 740.888 381.396C741.276 383.599 747.862 420.987 747.862 420.987C747.862 420.987 753.23 421.631 753.051 418.234C752.872 414.837 752.812 412.58 752.812 412.58L757.694 393.018C757.83 392.472 757.489 391.921 756.939 391.8L754.153 391.186C754.153 391.186 752.176 388.362 751.837 386.437C751.66 385.431 751.918 383.839 752.205 382.549Z" fill="#E4E4E4"/>
<path fill-rule="evenodd" clip-rule="evenodd" d="M893.569 446.488C892.487 446.039 891.211 446.513 890.828 447.62C890.349 449.003 889.823 450.764 889.823 451.816C889.823 453.744 890.464 457.443 890.464 457.443C892.699 457.443 930.626 457.443 930.626 457.443C930.626 457.443 932.191 452.262 928.818 451.849C925.445 451.436 923.214 451.103 923.214 451.103L904.819 442.894C904.304 442.664 903.701 442.905 903.487 443.427L902.4 446.066C902.4 446.066 899.277 447.524 897.325 447.524C896.306 447.524 894.787 446.995 893.569 446.488Z" fill="#E4E4E4"/>
<path fill-rule="evenodd" clip-rule="evenodd" d="M824.314 287.09C824.314 287.09 848.396 280.193 869.885 287.09C874.87 309.854 886.981 318.889 889.111 353.79C864.901 365.832 834.994 345.202 810.073 356.945C802.952 340.52 812.921 300.963 824.314 287.09Z" fill="#2B44FF"/>
<path fill-rule="evenodd" clip-rule="evenodd" d="M884.283 222.522L862.296 240.158L872.987 248.23L887.815 228.902C896.679 224.689 900.608 222.058 899.602 221.008C898.755 220.122 897.679 220.348 896.688 220.556C895.917 220.717 895.196 220.869 894.676 220.475C893.486 219.577 894.732 215.483 896.08 211.649C897.428 207.815 895.382 208.489 894.27 209.202C890.811 212.557 887.482 216.997 884.283 222.522ZM912.057 236.931L902.402 244.695L904.905 255.328C904.905 255.328 910.947 249.104 916.611 246.391C923.833 242.932 926.621 240.771 929.498 235.382C931.037 232.499 931.825 227.109 929.642 225.784C928.805 225.276 926.368 227.255 923.882 229.275C921.987 230.814 920.063 232.376 918.797 232.879C917.092 233.555 916.895 231.224 916.737 229.361C916.623 228.023 916.53 226.928 915.916 227.358C912.796 227.963 912.057 236.931 912.057 236.931Z" fill="#997659"/>
<path fill-rule="evenodd" clip-rule="evenodd" d="M849.918 239.276C858.428 237.682 869.479 233.875 880.25 224.029L886.889 233.823C879.987 243.611 869.427 252.515 859.088 254.039C850.941 255.241 845.067 246.156 849.918 239.276Z" fill="#2026A2"/>
<path fill-rule="evenodd" clip-rule="evenodd" d="M908.528 238.284C908.528 238.284 879.101 255.004 864.394 254.285C863.054 251.588 861.677 248.891 860.302 246.198C854.416 234.667 848.568 223.209 845.725 212.175L843.789 212.516L826.881 215.498L826.268 215.606C824.135 215.982 814.54 246.366 817.714 264.446C818.804 270.655 817.576 276.394 816.282 282.437C814.136 292.463 811.812 303.323 819.602 318.548C823.862 316.9 831.481 316.559 839.772 316.187C855.29 315.492 873.163 314.692 875.784 305.022C877.74 297.806 877.386 290.348 875.624 282.755C888.48 280.198 903.393 273.176 919.983 260.397C919.349 253.301 908.528 238.284 908.528 238.284Z" fill="#1F28CF"/>
</svg>
