<svg width="1280" height="612" viewBox="0 0 1280 612" fill="none" xmlns="http://www.w3.org/2000/svg">
<g clip-path="url(#clip0)">
<path fill-rule="evenodd" clip-rule="evenodd" d="M96.3 306.451C85.9896 312.341 82.406 325.473 88.2959 335.784L114.23 381.182C120.12 391.493 133.253 395.076 143.563 389.186L149.65 385.709C149.656 385.719 149.662 385.728 149.668 385.737L187.223 364.284C189.791 355.313 164.164 323.04 150.075 308.628L146.571 302.494C140.681 292.184 127.548 288.6 117.238 294.49L96.3 306.451Z" fill="#191847"/>
<path fill-rule="evenodd" clip-rule="evenodd" d="M142.96 362.516C154.229 362.771 163.861 360.502 167.16 357.297C175.433 349.261 156.092 313.333 140.611 303.657C125.13 293.981 83.0754 309.933 96.9349 338.709C101.745 348.696 110.679 354.958 120.64 358.542L138.38 414.437L169.46 396.683L142.96 362.516Z" fill="#B28B67"/>
<path fill-rule="evenodd" clip-rule="evenodd" d="M92.9148 341.22C93.3083 339.814 93.689 338.454 94.1147 337.187L93.4988 336.206C93.4988 336.206 91.8654 310.699 106.862 302.132C121.844 293.573 130.555 297.82 137.959 301.429L137.979 301.439C139.994 309.859 135.313 316.406 130.018 323.81C127.739 326.997 125.346 330.343 123.325 334.066C121.532 333.772 119.63 334.069 117.929 335.041C113.995 337.288 112.625 342.293 114.868 346.22C117.112 350.146 122.119 351.508 126.052 349.261C126.161 349.199 126.267 349.135 126.372 349.069C136.576 363.606 146.019 381.469 144.13 388.069L106.575 409.523C94.8149 391.44 96.6133 383.338 98.4509 375.059C100.18 367.27 101.944 359.323 92.4811 342.758C92.6291 342.241 92.7727 341.728 92.9146 341.221L92.9148 341.22Z" fill="#191847"/>
<path fill-rule="evenodd" clip-rule="evenodd" d="M296.082 677.715C295.617 677.303 295.192 676.832 294.813 676.301C286.977 665.308 178.247 553.074 164.532 530.934L247.937 508.994C258.365 525.828 313.846 634.088 323.43 656.078C344.157 689.289 398.053 800.329 403.134 807.667C408.48 815.386 393.372 828.867 385.962 819.597C374.173 804.848 344.394 763.287 329.126 737.144C314.812 712.635 302.562 690.42 296.082 677.715Z" fill="#997659"/>
<path fill-rule="evenodd" clip-rule="evenodd" d="M232.076 711.747C200.455 729.201 80.6338 777.236 72.7697 781.895C64.68 786.688 52.2785 770.71 62.0629 763.969C77.6316 753.242 121.256 726.445 148.453 713.038C170.329 702.254 190.41 692.868 203.979 686.896C192.335 647.506 161.786 553.66 159.967 532.135L233.765 512.723C235.509 533.364 244.252 685.027 242.628 700.866C242.263 706.464 237.733 710.087 232.076 711.747Z" fill="#B28B67"/>
<path fill-rule="evenodd" clip-rule="evenodd" d="M160.205 532.072C160.205 532.072 205.321 505.308 252.515 507.79C274.707 551.119 304.041 562.917 326.9 632.284C284.259 669.508 212.719 643.771 168.477 680.771C145.326 651.385 144.5 566.168 160.205 532.072Z" fill="#2B44FF"/>
<path fill-rule="evenodd" clip-rule="evenodd" d="M247.408 369.633L212.236 417.001L238.169 427.604L257.945 380.639C273.66 367.396 280.222 359.982 277.629 358.397C275.443 357.06 273.384 358.09 271.488 359.039C270.011 359.778 268.632 360.467 267.369 359.951C264.483 358.771 264.835 349.835 265.531 341.369C266.228 332.903 262.442 335.356 260.569 337.391C255.343 346.015 250.956 356.763 247.408 369.633ZM311.298 383.922L295.864 404.763L306.572 424.91C306.572 424.91 315.508 409.11 325.54 400.605C338.331 389.761 342.83 383.907 345.798 371.483C347.386 364.836 346.123 353.527 340.999 352.015C339.034 351.435 335.149 356.734 331.185 362.142C328.164 366.263 325.096 370.447 322.798 372.138C319.705 374.414 318.068 369.809 316.76 366.128C315.821 363.487 315.052 361.323 314.035 362.52C308.038 365.408 311.298 383.922 311.298 383.922Z" fill="#997659"/>
<path fill-rule="evenodd" clip-rule="evenodd" d="M186.7 421.824C203.088 414.063 223.448 400.473 240.039 374.829L258.68 391.075C249.895 414.534 233.23 438.161 213.102 446.759C197.24 453.535 180.525 438.314 186.7 421.824Z" fill="#2026A2"/>
<path fill-rule="evenodd" clip-rule="evenodd" d="M206.949 582.636C190.355 587.812 175.106 592.567 167.353 598.17C143.501 571.568 142.448 548.384 141.475 526.982C140.889 514.083 140.333 501.831 134.832 489.869C118.813 455.032 122.127 388.522 126.248 386.623L163.833 369.307C175.442 390.083 193.364 410.111 211.401 430.269C215.614 434.976 219.832 439.69 223.978 444.423C254.144 438.027 304.869 388.538 304.869 388.538C304.869 388.538 334.749 413.105 339.798 427.103C312.977 461.777 286.501 483.925 261.823 495.953C269.418 510.353 274.091 525.233 273.958 540.857C273.78 561.792 238.007 572.949 206.949 582.636Z" fill="#1F28CF"/>
<path fill-rule="evenodd" clip-rule="evenodd" d="M1081.66 189.244C1076.1 188.683 1071.25 189.438 1069.49 190.9C1065.1 194.566 1073.35 213.126 1080.65 218.52C1087.95 223.914 1109.35 217.622 1103.56 202.82C1101.54 197.682 1097.36 194.233 1092.56 192.073L1085.85 163.674L1069.81 171.282L1081.66 189.244Z" fill="#B28B67"/>
<path fill-rule="evenodd" clip-rule="evenodd" d="M1093.74 222.517C1096.02 221.862 1101.82 219.401 1102.87 218.903C1103.54 218.585 1104.2 218.086 1104.89 218.515C1105.45 218.866 1105.74 219.777 1106.11 220.317C1106.55 220.945 1107.03 221.541 1107.51 222.135C1108.88 223.825 1110.43 225.309 1112.22 226.551C1115.56 228.881 1119.43 230.115 1123.51 229.967C1128.01 229.803 1132.41 228.166 1136.27 225.933C1140.41 223.543 1143.63 220.273 1147.05 217.007C1150.32 213.896 1154.13 211.471 1158.48 210.173C1162.85 208.866 1166.98 209.619 1171.42 210.089C1175.96 210.57 1180.65 210.068 1184.66 207.77C1188.4 205.624 1191.22 202.317 1193.42 198.645C1195.47 195.21 1196.8 191.616 1196.59 187.549C1196.36 183.174 1194.45 179.158 1190.44 177.099C1184.62 174.114 1177.38 176.064 1171.89 178.816C1168.72 180.408 1165.85 182.49 1163.32 184.994C1159.96 188.334 1157.62 192.403 1154.77 196.153C1153.43 197.913 1151.95 199.537 1150.29 200.992C1148.68 202.405 1146.95 203.518 1144.73 203.19C1142.38 202.844 1140.22 202.43 1137.82 202.652C1135.52 202.865 1133.26 203.449 1131.18 204.456C1127.13 206.415 1123.73 209.583 1120.18 212.305C1117.3 214.524 1114.18 216.848 1110.58 217.738C1109.08 218.11 1106.81 218.485 1105.64 217.294C1113.25 211.835 1111.62 199.973 1105.68 193.517C1102.48 190.032 1092.6 188.867 1090.66 192.418C1089.43 194.669 1091.42 195.915 1092.72 196.745C1095.2 198.334 1097.06 201.006 1095.19 203.816C1093.58 206.241 1089.69 204.144 1089.65 204.168C1089.05 204.511 1085.14 210.077 1083.56 216.247C1079.82 217.755 1080.41 220.418 1082.21 221.969C1084.01 223.521 1090.59 223.423 1093.74 222.517Z" fill="#191847"/>
<path fill-rule="evenodd" clip-rule="evenodd" d="M1072.42 101.974C1063.39 86.0704 962.773 74.3881 961.675 73.242C960.942 72.478 958.616 4.42127 958.616 4.42127L950.578 4.99855C950.578 4.99855 941.431 82.5849 946.38 88.0412C953.467 95.853 1035.07 119.48 1035.07 119.48L1072.42 101.974Z" fill="#B28B67"/>
<path fill-rule="evenodd" clip-rule="evenodd" d="M960.863 13.7677L947.87 14.9829C937.043 52.4689 938.225 78.5989 945.161 88.9073C952.097 99.2157 1033.59 120.344 1033.59 120.344L1073.19 101.557C1053.74 64.0442 968.381 69.882 966.648 68.7127C964.914 67.5433 966.828 47.1271 960.863 13.7677Z" fill="#2F3676"/>
<path fill-rule="evenodd" clip-rule="evenodd" d="M959.222 5.375C960.341 5.72514 961.568 5.13351 961.847 3.99586C962.212 2.50712 962.599 0.584399 962.494 -0.524734C962.305 -2.5196 961.278 -6.28465 961.278 -6.28465C958.967 -6.06841 919.741 -2.3979 919.741 -2.3979C919.741 -2.3979 918.63 3.11389 922.159 3.21488C925.688 3.31587 928.028 3.44438 928.028 3.44438L947.897 10.1706C948.432 10.3515 949.009 10.0554 949.174 9.51633L950.051 6.64182C950.051 6.64182 953.137 4.83078 955.156 4.64185C956.231 4.54119 957.899 4.96088 959.222 5.375Z" fill="#E4E4E4"/>
<path fill-rule="evenodd" clip-rule="evenodd" d="M1063.49 106.207L1058.61 6.64034L1059.23 -79.7892L1051.21 -75.9855L1036.32 119.1L1063.49 106.207Z" fill="#997659"/>
<path fill-rule="evenodd" clip-rule="evenodd" d="M1063.09 -63.7275L1043.69 -58.623C1039.54 -31.7985 1021.37 78.7446 1033.43 120.472L1073.08 101.656C1080.9 63.6459 1059.74 -36.8732 1063.09 -63.7275Z" fill="#5C63AB"/>
<path fill-rule="evenodd" clip-rule="evenodd" d="M1109.05 57.361C1108.13 62.1823 1110.62 108.143 1110.62 108.143L1097.84 111.594C1097.84 111.594 1099.01 61.1418 1099.35 58.1084C1099.81 54.168 1095.96 49.6813 1093.35 46.6389C1092.95 46.1682 1092.57 45.7321 1092.25 45.3379C1094.25 43.6863 1095.69 44.622 1097.21 45.6085C1098.92 46.7227 1100.73 47.9016 1103.57 45.4904C1104.66 44.5589 1105.66 43.5391 1106.64 42.5428C1110.01 39.1012 1113.11 35.9397 1118.98 37.6612C1119.91 37.9341 1121.29 39.5456 1119.58 41.5711C1115.33 46.6177 1109.5 55.004 1109.05 57.361ZM982.332 141.8L1011.08 147.364L1010.26 133.46L984.995 134.709C975.694 130.518 970.968 129.174 970.815 130.677C970.687 131.944 971.589 132.645 972.421 133.29C973.069 133.793 973.673 134.263 973.713 134.94C973.805 136.487 969.731 138.253 965.793 139.764C961.855 141.275 963.765 142.443 965.078 142.844C970.059 143.329 975.81 142.981 982.332 141.8Z" fill="#B28B67"/>
<path fill-rule="evenodd" clip-rule="evenodd" d="M1075.98 184.727L1081.73 178.401C1080.77 176.566 1079.51 173.903 1078.07 170.851C1073.56 161.273 1067.25 147.872 1062.53 144.293C1046.18 131.892 1024.57 131.645 1000.5 131.37C997.269 131.333 993.998 131.296 990.69 131.228L990.532 144.777C991.364 144.924 992.193 145.076 993.017 145.233C992.313 145.93 991.926 146.934 992.053 147.995C992.271 149.824 993.927 151.131 995.753 150.916C999.463 150.478 1002.66 149.518 1005.31 148.02C1033.36 155.426 1056.23 168.823 1075.98 184.727Z" fill="#69A1AC"/>
<path fill-rule="evenodd" clip-rule="evenodd" d="M1072.69 94.5369C1072.69 94.5369 1039.54 106.017 1023.09 118.069C1021.73 119.065 1024.86 125.488 1026.39 126.922C1050.21 149.253 1066.84 165.98 1075.89 185.047C1078.12 182.083 1086.06 179.649 1086.06 179.649C1090.04 153.687 1085.46 128.241 1072.69 94.5369Z" fill="#191847"/>
<path fill-rule="evenodd" clip-rule="evenodd" d="M1112.49 75.2463C1119.15 137.227 1092.18 178.711 1092.18 178.711L1088.57 180.423L1084.58 182.316C1080.03 170.503 1068.12 155.826 1054.29 138.799C1032.18 111.569 1005.19 78.3305 995.655 41.1907C1002.91 35.5233 1013.04 32.2381 1024 28.6817C1039.82 23.5489 1057.38 17.8511 1070.57 3.61127C1076.4 17.5322 1075.62 36.3789 1074.84 55.1405C1074.35 67.0328 1073.86 78.8909 1075.05 89.4387C1076.08 89.7717 1076.93 90.6015 1077.24 91.7247L1077.84 93.8798C1078.23 95.3293 1077.61 96.8184 1076.4 97.579C1076.65 98.6896 1076.93 99.7789 1077.24 100.845C1078.83 106.292 1081.72 111.046 1084.58 115.746L1084.58 115.746C1086.15 118.326 1087.71 120.891 1089.04 123.545C1094.2 111.312 1098.43 92.2466 1096.11 63.7709L1110.5 61.5045C1110.87 63.5295 1111.2 65.5361 1111.5 67.5235C1113.34 67.6372 1116.88 70.6502 1115.95 71.8725C1114.97 73.1639 1113.81 74.2876 1112.49 75.2463Z" fill="#89C5CC"/>
<path fill-rule="evenodd" clip-rule="evenodd" d="M1089.11 179.351L1087.51 167.094L1076.79 162.425L1080.1 153.192L1052.57 134.355L1083.46 151.535L1080.29 160.767L1089.79 164.88L1089.11 179.351Z" fill="black" fill-opacity="0.1"/>
<path fill-rule="evenodd" clip-rule="evenodd" d="M1052.25 122.201C1050.78 122.901 1050.15 124.668 1050.85 126.147C1051.55 127.626 1053.32 128.257 1054.8 127.557C1056.27 126.856 1056.9 125.09 1056.2 123.611C1055.5 122.132 1053.73 121.501 1052.25 122.201ZM1041.61 108.389C1040.13 109.089 1039.51 110.855 1040.21 112.334C1040.91 113.813 1042.67 114.445 1044.15 113.744C1045.63 113.044 1046.25 111.277 1045.55 109.798C1044.85 108.32 1043.08 107.688 1041.61 108.389ZM1032.23 97.254C1031.53 95.7751 1032.16 94.0085 1033.64 93.3082C1035.11 92.608 1036.88 93.2392 1037.58 94.7181C1038.28 96.197 1037.65 97.9636 1036.18 98.6638C1034.7 99.3641 1032.93 98.7329 1032.23 97.254Z" fill="black" fill-opacity="0.4"/>
</g>
<defs>
<clipPath id="clip0">
<rect width="1280" height="612" fill="white"/>
</clipPath>
</defs>
</svg>
