<svg width="1280" height="401" viewBox="0 0 1280 401" fill="none" xmlns="http://www.w3.org/2000/svg">
<g clip-path="url(#clip0)">
<path fill-rule="evenodd" clip-rule="evenodd" d="M327.664 200.831C331.777 207.939 336.837 213.071 340.076 213.909C348.199 216.008 363.161 190.344 363.297 177.041C363.432 163.738 337.59 143.621 324.987 163.161C320.613 169.943 320.114 177.877 321.668 185.435L293.708 217.676L316.508 230.28L327.664 200.831Z" fill="#B28B67"/>
<path fill-rule="evenodd" clip-rule="evenodd" d="M361.879 167.435C361.528 166.835 360.797 165.574 360.375 165.029C360.275 164.9 359.718 163.738 359.688 163.733C358.865 163.583 356.379 163.337 355.795 163.989C355.737 164.03 355.682 164.069 355.631 164.101C355.061 164.462 354.508 164.848 353.963 165.247C352.768 166.124 351.618 167.096 350.494 168.069C348.306 169.965 346.202 171.98 344.158 174.034C342.076 176.126 340.086 178.306 338.035 180.428C335.082 183.48 331.905 186.294 328.96 189.349C327.08 191.299 325.46 193.429 324.325 195.879C324.311 195.908 324.296 195.937 324.283 195.967C324.278 195.979 324.273 195.992 324.267 196.004C324.095 196.382 323.935 196.768 323.787 197.162C323.661 197.499 323.536 197.838 323.413 198.178C325.271 196.901 327.018 195.327 328.752 193.876C328.922 193.734 329.089 193.589 329.255 193.442C329.692 193.195 330.133 192.954 330.576 192.715C333.366 191.21 336.158 189.716 338.911 188.134C343.861 185.289 348.836 182.34 354.076 180.111C355.623 179.453 357.182 178.824 358.723 178.15C359.599 177.766 360.469 177.364 361.329 176.941C361.945 176.639 364.385 175.748 364.411 174.416C364.424 173.735 362.789 168.993 361.879 167.435Z" fill="#2C2C2C"/>
<path fill-rule="evenodd" clip-rule="evenodd" d="M360.492 165.207C360.906 165.658 361.24 164.465 360.952 163.821C359.621 160.839 351.251 155.397 342.804 152.779C337.145 151.026 329.795 150.384 323.884 151.515C318.555 152.534 313.359 156.019 309.475 160.013C305.396 164.207 302.355 169.25 300.325 174.74C299.879 175.946 299.653 177.205 299.252 178.406C298.802 179.758 298.267 181.004 298.01 182.419C297.853 183.286 297.875 184.233 297.679 185.084C297.457 186.055 296.884 186.752 296.241 187.509C295.192 188.744 294.078 189.938 292.847 190.991C291 192.572 289.062 193.937 287.353 195.693C285.079 198.028 276.973 205.238 277.95 208.966L322.144 233.396C322.7 229.745 321.323 224.327 322.433 220.704C323.087 218.57 325.196 214.285 325.238 214.11C328.016 206.695 327.873 202.342 327.309 200.479C326.745 198.617 325.324 197.354 325.808 196.276C327.809 191.817 331.755 188.666 335.189 185.371C339.282 181.444 343.044 177.18 347.174 173.294C349.003 171.573 358.342 162.863 360.492 165.207Z" fill="#8991DC"/>
<path fill-rule="evenodd" clip-rule="evenodd" d="M332.202 175.963C335.815 168.541 337.725 165.917 342.298 161.551L341.271 160.983C338.492 162.183 333.605 167.85 331.384 175.511L332.202 175.963ZM312.25 164.49L312.25 164.49C312.312 163.953 312.375 163.402 312.439 162.837L311.613 162.789C309.53 171.467 308.838 178.672 314.765 188.31L315.692 188.211C310.697 177.986 311.3 172.749 312.25 164.49ZM329.414 162.223C329.141 162.924 328.874 163.606 328.612 164.273C324.599 174.507 322.055 180.997 322.915 195.794L322.002 195.601C320.039 181.235 323.411 172.258 328.652 161.878L329.414 162.223ZM304.948 189.061L303.832 189.504C306.797 192.057 307.72 195.78 308.779 200.049C309.899 204.564 311.171 209.69 315.171 214.687L316.452 214.636C312.418 208.577 311.395 204.206 310.502 200.389C309.577 196.438 308.791 193.081 304.948 189.061Z" fill="black" fill-opacity="0.2"/>
<path fill-rule="evenodd" clip-rule="evenodd" d="M246.133 307.156L305.097 452.766L347.323 574.673L360.185 576.688L298.305 315.329L246.133 307.156Z" fill="#997659"/>
<path fill-rule="evenodd" clip-rule="evenodd" d="M333.539 554.052L359.508 550.436C359.508 550.436 350.777 499.161 336.21 436.945C321.643 374.728 302.942 316.056 302.942 316.056L232.889 305.081C232.889 305.081 252.387 378.647 277.469 440.202C302.552 501.758 333.539 554.052 333.539 554.052Z" fill="#DB2721"/>
<path fill-rule="evenodd" clip-rule="evenodd" d="M240.899 306.335C226.114 351.941 202.33 409.441 200.675 411.071C199.572 412.158 165.024 418.015 97.0317 428.643L98.0483 440.418C177.011 441.376 219.049 439.108 224.161 433.613C231.829 425.37 274.282 357.412 293.295 314.544L240.899 306.335Z" fill="#B28B67"/>
<path fill-rule="evenodd" clip-rule="evenodd" d="M121.32 422.408L123.376 441.437C180.354 455.553 216.317 457.438 231.264 447.092C246.211 436.747 268.245 392.777 297.367 315.182L230.567 304.717C209.808 368.74 198.591 402.032 196.915 404.594C195.24 407.156 170.042 413.094 121.32 422.408Z" fill="#FF4133"/>
<path fill-rule="evenodd" clip-rule="evenodd" d="M154.593 302.726C160.691 298.932 207.592 250.631 207.592 250.631L224.037 260.979C224.037 260.979 168.668 309.8 165.062 312.435C160.378 315.859 159.391 324.458 158.723 330.289C158.619 331.191 158.523 332.027 158.422 332.767C154.652 332.249 154.224 329.771 153.773 327.158C153.264 324.207 152.725 321.084 147.307 320.42C145.214 320.164 143.122 320.099 141.079 320.036C134.021 319.819 127.537 319.619 123.535 311.583C122.9 310.309 123.255 307.22 127.133 307.05C136.796 306.627 151.612 304.58 154.593 302.726ZM357.095 360.459L338.349 321.786L322.77 334.915L346.441 363.53C349.701 378.133 352.28 384.866 354.176 383.731C355.775 382.774 355.803 381.099 355.829 379.557C355.849 378.355 355.868 377.234 356.627 376.594C358.361 375.133 364.013 378.379 369.246 381.689C374.478 384.999 374.169 381.731 373.485 379.836C369.676 373.554 364.212 367.095 357.095 360.459Z" fill="#B28B67"/>
<path fill-rule="evenodd" clip-rule="evenodd" d="M312.628 211.598L325.104 212.829C323.598 256.272 329.877 301.738 353.377 348.216L337.35 359.876C313.412 326.475 289.324 298.091 289.512 263.993C289.575 252.549 307.227 222.918 312.628 211.598Z" fill="#C5CFD6"/>
<path fill-rule="evenodd" clip-rule="evenodd" d="M229.428 298.826C229.428 298.826 274.022 324.544 303.073 331.504C305.473 332.079 307.462 328.52 307.545 325.543C308.841 279.176 312.966 240.047 324.995 212.78C319.604 213.046 309.265 206.597 309.265 206.597C277.113 225.93 253.808 254.142 229.428 298.826Z" fill="#323337"/>
<path fill-rule="evenodd" clip-rule="evenodd" d="M304.642 201.73C305.304 201.612 305.649 201.561 305.649 201.561L305.393 202.063L313.626 205.716C312.966 208.332 309.594 217.618 304.677 231.158C286.809 280.36 248.54 385.74 245.9 431.394L144.905 386.581C166.679 343.005 206.585 297.048 243.536 259.386C225.479 266.302 201.591 280.725 174.378 310.305L157.602 297.056C213.527 222.548 288.909 204.773 303.242 201.991C303.458 201.791 303.673 201.592 303.887 201.395L304.642 201.73Z" fill="#DDE3E9"/>
<path fill-rule="evenodd" clip-rule="evenodd" d="M1102.03 350.045C1097.02 351.49 1092.44 351.609 1090.59 350.56C1085.94 347.932 1090.37 329.532 1096.15 323.364C1101.94 317.196 1122.64 319.389 1119.82 333.933C1118.84 338.982 1115.58 342.845 1111.55 345.628L1110.19 372.797L1094.19 368.5L1102.03 350.045Z" fill="#B28B67"/>
<path fill-rule="evenodd" clip-rule="evenodd" d="M1091.74 311.471C1092.38 310.395 1093.54 309.636 1094.82 309.663C1095.13 309.669 1095.44 309.721 1095.73 309.814C1095.84 309.847 1095.86 309.886 1095.93 309.824C1095.98 309.779 1096.02 309.642 1096.05 309.581C1096.16 309.39 1096.27 309.205 1096.4 309.029C1096.83 308.427 1097.41 307.949 1098.05 307.587C1099.25 306.91 1100.71 306.612 1102.08 306.855C1102.82 306.988 1103.52 307.302 1104.15 307.725C1104.47 307.945 1104.78 308.192 1105.07 308.452C1105.16 308.531 1105.42 308.869 1105.53 308.881C1105.65 308.893 1105.95 308.673 1106.06 308.628C1107.42 308.061 1108.92 308.095 1110.33 308.485C1111.92 308.925 1113.43 309.417 1114.5 310.747C1114.73 311.029 1114.93 311.326 1115.13 311.632C1115.23 311.793 1115.32 311.958 1115.41 312.126C1115.46 312.228 1115.51 312.331 1115.56 312.435C1115.64 312.612 1115.61 312.655 1115.8 312.598C1116.55 312.381 1117.34 312.398 1118.06 312.691C1118.49 312.865 1118.89 313.114 1119.25 313.399C1119.37 313.497 1119.63 313.821 1119.78 313.864C1119.93 313.906 1120.3 313.77 1120.47 313.755C1121.37 313.672 1122.28 313.835 1123.1 314.207C1123.95 314.59 1124.73 315.181 1125.35 315.874C1125.65 316.208 1125.9 316.554 1126.06 316.974C1126.13 317.155 1126.19 317.342 1126.27 317.516C1126.32 317.618 1126.44 317.741 1126.46 317.855C1126.45 317.787 1127.55 317.67 1127.65 317.671C1128.19 317.674 1128.69 317.838 1129.14 318.131C1129.98 318.683 1130.59 319.577 1131.05 320.451C1131.29 320.9 1131.48 321.375 1131.61 321.864C1131.68 322.099 1131.73 322.336 1131.78 322.575C1131.8 322.691 1131.79 322.829 1131.83 322.939C1131.88 323.08 1131.94 323.097 1132.07 323.19C1132.76 323.657 1133.33 324.29 1133.69 325.036C1134.05 325.791 1134.2 326.638 1134.13 327.471C1134.12 327.52 1134.08 327.715 1134.1 327.748C1134.13 327.793 1134.28 327.818 1134.34 327.84C1134.53 327.917 1134.72 328.005 1134.9 328.103C1135.24 328.285 1135.55 328.504 1135.84 328.756C1136.96 329.741 1137.56 331.185 1137.65 332.653C1137.75 334.194 1137.31 335.81 1136.37 337.045C1136.22 337.245 1136.05 337.433 1135.87 337.604C1135.76 337.709 1135.73 337.703 1135.75 337.849C1135.76 338.012 1135.83 338.183 1135.86 338.345C1135.95 338.874 1135.97 339.414 1135.93 339.949C1135.87 340.827 1135.72 341.725 1135.33 342.525C1135.16 342.896 1134.93 343.243 1134.64 343.539C1134.49 343.69 1134.33 343.827 1134.16 343.948C1134.07 344.01 1133.98 344.068 1133.88 344.122C1133.83 344.153 1133.76 344.174 1133.71 344.212C1133.59 344.303 1133.6 344.203 1133.6 344.385C1133.6 344.638 1133.69 344.91 1133.71 345.164C1133.74 345.426 1133.76 345.688 1133.77 345.951C1133.8 346.484 1133.79 347.019 1133.74 347.549C1133.64 348.567 1133.33 349.6 1132.63 350.372C1132.33 350.702 1131.96 350.962 1131.54 351.131C1131.34 351.214 1131.13 351.276 1130.91 351.315C1130.8 351.335 1130.67 351.322 1130.6 351.404C1130.53 351.494 1130.55 351.716 1130.53 351.834C1130.41 352.865 1130.2 353.926 1129.65 354.82C1129.13 355.643 1128.32 356.274 1127.41 356.589C1125.63 357.201 1123.62 356.598 1122.25 355.36C1121.9 355.037 1121.58 354.67 1121.32 354.267C1120.13 355.212 1118.33 354.69 1117.14 354.01C1115.66 353.162 1114.67 351.707 1114.33 350.049C1112.99 351.007 1110.98 350.04 1110.63 348.518C1110.55 348.146 1110.54 347.759 1110.59 347.381C1110.62 347.183 1110.68 346.994 1110.72 346.799C1110.76 346.55 1110.66 346.271 1110.63 346.012C1110.57 345.508 1110.58 345.007 1110.71 344.515C1110.77 344.257 1110.87 344.016 1110.97 343.768C1111.05 343.545 1111.04 343.314 1111.07 343.078C1111.46 343.256 1111.99 343.279 1112.4 343.264C1112.81 343.249 1113.25 343.037 1113.59 342.829C1114.39 342.344 1114.99 341.592 1115.48 340.812C1116.55 339.1 1116.91 336.801 1115.31 335.274C1114.57 334.563 1111.95 333.862 1110.85 333.818C1109.69 333.772 1107.8 335.854 1107.68 336.064C1107.61 336.194 1107.58 336.373 1107.42 336.432C1107.09 336.562 1106.71 336.079 1106.55 335.847C1106.27 335.446 1106.12 334.972 1106.01 334.502C1105.76 333.478 1105.63 332.415 1105.61 331.362C1105.6 330.55 1105.68 329.736 1105.59 328.926C1105.51 328.12 1105.25 327.349 1104.68 326.752C1104.06 326.103 1103.28 325.638 1102.54 325.137C1101.81 324.64 1101.12 324.085 1100.65 323.322C1100.55 323.154 1100.45 322.979 1100.38 322.795C1100.33 322.65 1100.31 322.394 1100.19 322.281C1100.02 322.105 1099.64 322.337 1099.43 322.402C1098.4 322.725 1097.45 323.308 1096.63 324.002C1095.82 324.691 1095.12 325.377 1094.47 326.218C1093.99 326.842 1093.57 327.692 1092.9 328.13C1092.61 328.325 1090.87 328.024 1090.38 327.652C1089.88 327.28 1089.42 326.532 1089.34 326.117C1089.25 325.693 1089.31 325.27 1089.5 324.883C1089.61 324.655 1089.77 324.456 1089.89 324.234C1089.98 324.048 1090.07 323.871 1090.22 323.715C1090.5 323.42 1090.87 323.256 1091.28 323.254C1090.98 322.786 1090.77 322.266 1090.68 321.721C1090.58 321.156 1090.54 320.491 1090.64 319.924C1090.71 319.463 1090.9 319.018 1091.25 318.698C1091.62 318.363 1092.14 318.222 1092.61 318.076C1092.13 317.442 1091.77 316.73 1091.51 315.981C1091.02 314.525 1090.93 312.831 1091.74 311.471Z" fill="#191847"/>
<path fill-rule="evenodd" clip-rule="evenodd" d="M1154.18 465.362C1152.3 461.187 1144.61 418.965 1144.61 418.965L1132.27 418.587C1132.27 418.587 1144.24 464.095 1145.22 466.772C1146.48 470.248 1143.96 475.146 1142.25 478.467C1141.99 478.981 1141.74 479.457 1141.53 479.884C1143.71 480.951 1144.81 479.793 1145.97 478.572C1147.28 477.192 1148.67 475.733 1151.77 477.309C1152.97 477.918 1154.09 478.628 1155.19 479.322C1159 481.717 1162.49 483.918 1167.45 481.092C1168.23 480.644 1169.14 478.885 1167.15 477.416C1162.2 473.755 1155.1 467.402 1154.18 465.362ZM1026.83 423.858L1050.4 410.078L1053.99 422.561L1031.37 429.272C1024.48 435.833 1020.74 438.476 1020.14 437.201C1019.63 436.126 1020.21 435.231 1020.74 434.406C1021.16 433.764 1021.54 433.164 1021.37 432.556C1020.97 431.167 1016.84 430.873 1012.9 430.761C1008.97 430.65 1010.29 429.032 1011.32 428.273C1015.55 426.307 1020.72 424.835 1026.83 423.858Z" fill="#B28B67"/>
<path fill-rule="evenodd" clip-rule="evenodd" d="M1102.94 360.965L1095.92 357.178C1081.36 380.684 1061.96 402.491 1033.12 418.707L1037.46 430.573C1061.91 421.427 1084.67 414.987 1096.63 396.891C1100.64 390.818 1101.79 368.872 1102.94 360.965Z" fill="#C5CFD6"/>
<path fill-rule="evenodd" clip-rule="evenodd" d="M1116.04 436.681C1116.04 436.681 1083.4 434.417 1065.59 427.764C1064.12 427.214 1064.33 424.625 1065.34 423.021C1081.05 398.044 1092.71 375.887 1096 357.191C1098.75 359.25 1106.49 359.517 1106.49 359.517C1116.63 381.176 1118.96 404.382 1116.04 436.681Z" fill="#323337"/>
<path fill-rule="evenodd" clip-rule="evenodd" d="M1110.65 358.588C1110.34 358.29 1110.18 358.141 1110.18 358.141L1110.14 358.497L1104.5 357.5C1103.92 359.118 1102.42 365.227 1100.23 374.136C1092.27 406.507 1075.21 475.838 1060.47 500.917L1129.64 513.145C1133.55 482.36 1128.73 443.866 1122.53 410.809C1129.62 420.888 1137.14 437.012 1141.05 462.332L1154.59 461.293C1151.41 402.005 1117.88 365.793 1111.3 359.224C1111.25 359.041 1111.21 358.86 1111.17 358.679L1110.65 358.588Z" fill="#DDE3E9"/>
</g>
<defs>
<clipPath id="clip0">
<rect width="1280" height="401" fill="white"/>
</clipPath>
</defs>
</svg>
