<svg width="1280" height="400" viewBox="0 0 1280 400" fill="none" xmlns="http://www.w3.org/2000/svg">
<g clip-path="url(#clip0)">
<path fill-rule="evenodd" clip-rule="evenodd" d="M1037.03 153.687C1032.83 157.616 1028.39 160.026 1026.05 159.925C1020.17 159.673 1015.32 139.394 1017.93 130.44C1020.53 121.486 1041.95 113.271 1046.46 128.958C1048.02 134.403 1046.75 139.829 1044.17 144.582L1056.41 171.932L1038.55 175.728L1037.03 153.687Z" fill="#B28B67"/>
<path fill-rule="evenodd" clip-rule="evenodd" d="M1046.31 147.875C1046.43 137.427 1051.37 129.271 1049.45 125.022C1047.52 120.772 1043.07 120.583 1043.07 120.583C1043.07 120.583 1039.01 112.211 1027.38 116.061C1015.76 119.911 1009.54 126.4 1014.99 136.612C1017.88 135.999 1021.14 134.216 1026.33 134.979C1028.81 135.343 1030.73 139.559 1030.73 139.559L1032.91 139.096C1032.91 139.096 1034.96 133.171 1038.34 133.908C1041.71 134.646 1041.17 140.373 1041.17 140.373L1043.99 148.367L1046.31 147.875Z" fill="#191847"/>
<path fill-rule="evenodd" clip-rule="evenodd" d="M1096.1 222.177L1039.57 316.685L997.19 396.583H988.061L1059.07 222.177L1096.1 222.177Z" fill="#997659"/>
<path fill-rule="evenodd" clip-rule="evenodd" d="M1000.18 392.25C1001.26 391.796 1002.54 392.272 1002.93 393.377C1003.45 394.872 1004.05 396.836 1004.05 397.995C1004.05 400.053 1003.36 404 1003.36 404C1000.98 404 960.454 404 960.454 404C960.454 404 958.781 398.471 962.385 398.03C965.988 397.589 968.372 397.234 968.372 397.234L988.09 388.443C988.605 388.214 989.207 388.455 989.422 388.976L990.61 391.858C990.61 391.858 993.946 393.414 996.032 393.414C997.16 393.414 998.861 392.807 1000.18 392.25Z" fill="#E4E4E4"/>
<path fill-rule="evenodd" clip-rule="evenodd" d="M1008.96 383.789L991.356 378.464C991.356 378.464 1002.93 343.878 1019.72 302.342C1036.51 260.807 1055.78 222.177 1055.78 222.177H1105.5C1105.5 222.177 1084.07 271.042 1060.07 310.978C1036.06 350.913 1008.96 383.789 1008.96 383.789Z" fill="#DB2721"/>
<path fill-rule="evenodd" clip-rule="evenodd" d="M1099.82 222.177C1105.15 255.388 1115.44 297.818 1116.41 299.128C1117.06 300.001 1140.37 307.811 1186.33 322.558L1184.36 330.608C1129.55 322.699 1100.66 316.562 1097.71 312.199C1093.29 305.654 1071.19 253.949 1062.63 222.177H1099.82Z" fill="#B28B67"/>
<path fill-rule="evenodd" clip-rule="evenodd" d="M1170.18 315.6L1166.7 328.564C1125.7 332.16 1100.58 329.562 1091.34 320.769C1082.1 311.977 1071.56 279.113 1059.74 222.177H1107.15C1114.64 268.8 1118.83 293.09 1119.71 295.047C1120.6 297.004 1137.42 303.855 1170.18 315.6Z" fill="#FF4133"/>
<path fill-rule="evenodd" clip-rule="evenodd" d="M1183 321.64C1182.74 320.499 1183.43 319.325 1184.59 319.136C1186.15 318.88 1188.19 318.632 1189.33 318.833C1191.35 319.19 1195.12 320.551 1195.12 320.551C1194.71 322.902 1187.67 362.808 1187.67 362.808C1187.67 362.808 1181.94 363.495 1182.13 359.869C1182.32 356.244 1182.38 353.835 1182.38 353.835L1177.15 332.889C1177.01 332.343 1177.36 331.791 1177.91 331.67L1180.95 331.001C1180.95 331.001 1183.06 327.986 1183.43 325.932C1183.62 324.821 1183.32 323.041 1183 321.64Z" fill="#E4E4E4"/>
<path fill-rule="evenodd" clip-rule="evenodd" d="M983.784 227.427L1013.29 220.488L1013.09 234.982L986.869 234.696C977.433 239.428 972.601 241.016 972.374 239.459C972.182 238.145 973.084 237.38 973.916 236.676C974.563 236.127 975.167 235.614 975.177 234.908C975.201 233.295 970.9 231.621 966.753 230.208C962.605 228.795 964.529 227.503 965.87 227.033C971.005 226.329 976.977 226.46 983.784 227.427ZM1146.65 243.939C1142.95 240.515 1103.88 193.164 1103.88 193.164L1088.35 199.192C1088.35 199.192 1136.02 246.938 1138.16 249.232C1140.94 252.213 1140.49 258.266 1140.18 262.37C1140.14 263.005 1140.09 263.593 1140.06 264.117C1142.73 264.261 1143.35 262.612 1144 260.872C1144.74 258.908 1145.53 256.829 1149.34 257.093C1150.82 257.195 1152.27 257.429 1153.69 257.657C1158.58 258.447 1163.07 259.172 1166.88 254.17C1167.49 253.377 1167.65 251.204 1165 250.57C1158.4 248.993 1148.46 245.613 1146.65 243.939Z" fill="#997659"/>
<path fill-rule="evenodd" clip-rule="evenodd" d="M1042.34 160.191L1030.48 165.676C1037.89 193.959 1028.14 217.367 989.336 225.605L997.889 262.41C1033.77 253.706 1058.49 228.512 1050.41 189.1C1048.32 178.897 1045.75 168.433 1042.34 160.191Z" fill="#AFB9C5"/>
<path fill-rule="evenodd" clip-rule="evenodd" d="M1047.04 154.314L1048.21 153.866C1084.89 168.031 1116.09 195.982 1141.82 237.721L1104.51 252.042C1101.02 243.618 1097.4 235.497 1093.61 227.705L1043.78 246.832C1042.64 239.195 1042.06 231.667 1041.47 224.006C1040.1 206.266 1038.67 187.814 1030.16 165.652L1046.99 154.344L1047 154.329L1047.04 154.314Z" fill="#C5CFD6"/>
<path fill-rule="evenodd" clip-rule="evenodd" d="M1093.61 227.705C1085.88 211.841 1077.38 197.336 1067.58 184.402C1074.48 199.611 1082.14 218.821 1083.48 231.593L1093.61 227.705Z" fill="black" fill-opacity="0.1"/>
</g>
<defs>
<clipPath id="clip0">
<rect width="1280" height="400" fill="white"/>
</clipPath>
</defs>
</svg>
