<svg width="636" height="243" viewBox="0 0 636 243" fill="none" xmlns="http://www.w3.org/2000/svg">
<path fill-rule="evenodd" clip-rule="evenodd" d="M88.5466 47.9988C82.1008 47.9988 79.7566 40.3382 76.0945 36.1342C73.4744 33.1263 69.0026 34.0232 67.679 29.8123C64.3505 19.2236 73.259 11.771 84.8807 11.771C96.5024 11.771 104.338 18.3071 106.03 28.1327C107.722 37.9582 100.168 47.9988 88.5466 47.9988Z" fill="#191847"/>
<path fill-rule="evenodd" clip-rule="evenodd" d="M81.2511 46.6202C77.5989 48.8055 74.0104 49.8613 72.326 49.4303C68.1021 48.3495 67.7137 33.01 70.9819 26.9627C74.2502 20.9155 91.0516 18.2797 91.8984 30.2613C92.1924 34.4197 90.4334 38.1308 87.8346 41.159L92.4945 62.7198H78.9587L81.2511 46.6202Z" fill="#B28B67"/>
<path fill-rule="evenodd" clip-rule="evenodd" d="M91.0187 21.8489C101.387 31.9267 90.979 42.6381 88.1274 42.6381C87.9433 41.1841 87.3818 39.7696 86.5591 38.4234C86.996 37.8616 87.255 37.1629 87.255 36.4057C87.255 34.5504 85.7004 33.0465 83.7827 33.0465C83.1838 33.0465 82.6203 33.1932 82.1285 33.4514C77.9718 29.9324 72.7585 27.4791 70.1699 26.9967C65.6677 26.1577 80.6507 11.7712 91.0187 21.8489Z" fill="#191847"/>
<path fill-rule="evenodd" clip-rule="evenodd" d="M97.0065 109.189L75.783 178.068L65.5018 236.644H57.4407L68.3044 109.189H97.0065Z" fill="#997659"/>
<path fill-rule="evenodd" clip-rule="evenodd" d="M104.599 109.189C103.158 147.007 104.854 166.514 105.177 169.95C105.499 173.386 109.917 195.665 120.376 237.798L111.786 234.869C95.2571 196.227 89.6245 176.144 87.7287 171.07C85.8329 165.996 80.7977 145.369 72.6232 109.189H104.599Z" fill="#B28B67"/>
<path fill-rule="evenodd" clip-rule="evenodd" d="M117.881 234.559C118.968 234.138 120.24 234.605 120.608 235.712C120.94 236.714 121.258 237.859 121.258 238.58C121.258 240.095 120.75 243 120.75 243C118.98 243 88.9395 243 88.9395 243C88.9395 243 87.6996 238.931 90.3711 238.606C93.0425 238.282 94.8096 238.02 94.8096 238.02L109.189 231.657C109.702 231.43 110.302 231.669 110.517 232.188L111.296 234.064C111.296 234.064 113.769 235.209 115.315 235.209C116.012 235.209 117.002 234.9 117.881 234.559Z" fill="#E4E4E4"/>
<path fill-rule="evenodd" clip-rule="evenodd" d="M64.8656 234.559C65.9533 234.138 67.2248 234.605 67.5925 235.712C67.9252 236.714 68.2428 237.859 68.2428 238.58C68.2428 240.095 67.7345 243 67.7345 243C65.9648 243 35.9244 243 35.9244 243C35.9244 243 34.6845 238.931 37.356 238.606C40.0274 238.282 41.7945 238.02 41.7945 238.02L56.1736 231.657C56.6869 231.43 57.2866 231.669 57.5019 232.188L58.2809 234.064C58.2809 234.064 60.754 235.209 62.3002 235.209C62.9966 235.209 63.9871 234.9 64.8656 234.559Z" fill="#E4E4E4"/>
<path fill-rule="evenodd" clip-rule="evenodd" d="M99.8264 109.189L90.8026 144.282H63.2402L67.3498 109.189H99.8264Z" fill="#69A1AC"/>
<path fill-rule="evenodd" clip-rule="evenodd" d="M104.902 109.189C109.356 122.442 106.594 144.282 106.594 144.282H78.468L70.7338 109.189H104.902Z" fill="#89C5CC"/>
<path fill-rule="evenodd" clip-rule="evenodd" d="M31.3737 115.772L47.3504 100.3L52.6568 109.415L36.0432 119.139C31.8775 125.653 29.4309 128.467 28.7034 127.583C28.09 126.836 28.3711 126.019 28.6301 125.265C28.8318 124.679 29.0201 124.131 28.7615 123.687C28.1711 122.673 24.8355 123.254 21.694 123.939C18.5524 124.625 19.2793 123.093 19.947 122.293C22.9162 119.914 26.7251 117.741 31.3737 115.772ZM125.546 138.252C123.893 134.923 118.265 102.482 118.265 102.482L106.479 102.528C106.479 102.528 117.395 137.51 118.265 139.65C119.395 142.431 117.475 146.47 116.173 149.21C115.972 149.633 115.785 150.026 115.627 150.378C117.433 151.181 118.301 150.211 119.216 149.188C120.249 148.033 121.342 146.811 123.916 148C124.91 148.459 125.851 149.002 126.77 149.533C129.946 151.365 132.862 153.048 136.831 150.617C137.46 150.232 138.149 148.781 136.483 147.647C132.334 144.823 126.354 139.879 125.546 138.252Z" fill="#B28B67"/>
<path fill-rule="evenodd" clip-rule="evenodd" d="M84.7708 53.388L79.8939 52.5576C71.4975 73.3795 56.8382 92.2989 35.916 109.316L51.7258 128.383C72.6456 104.153 85.5405 79.155 84.7708 53.388Z" fill="#191847"/>
<path fill-rule="evenodd" clip-rule="evenodd" d="M106.03 114.228H62.6031C62.6031 114.228 77.6947 77.8016 77.6947 52.3402L90.7946 50.4026C101.09 66.8397 103.997 87.077 106.03 114.228Z" fill="#DDE3E9"/>
<path fill-rule="evenodd" clip-rule="evenodd" d="M125.77 132.704C121.021 79.5139 91.0824 50.4026 91.0824 50.4026L91.072 50.4118C91.0703 50.4087 91.0686 50.4056 91.0669 50.4026H90.2118C88.677 50.4551 85.5363 50.5916 85.5363 50.5916L82.3709 59.5716C81.8687 75.9946 76.5049 125.765 76.5049 125.765H104.931C104.882 128.047 104.775 130.361 104.603 132.704H125.77Z" fill="#2F3676"/>
<path fill-rule="evenodd" clip-rule="evenodd" d="M104.926 125.986C105.153 116.049 104.265 106.718 102.783 98.2734C102.008 108.293 100.389 120.35 97.0066 125.986H104.926Z" fill="black" fill-opacity="0.1"/>
<path fill-rule="evenodd" clip-rule="evenodd" d="M98.636 108.63L84.5987 102.151V108.63H98.636Z" fill="white" fill-opacity="0.2"/>
<path fill-rule="evenodd" clip-rule="evenodd" d="M198.017 46.6202C194.431 48.8055 190.908 49.8613 189.253 49.4303C185.106 48.3495 184.725 33.01 187.934 26.9627C191.143 20.9155 207.641 18.2797 208.472 30.2613C208.761 34.4197 207.034 38.1309 204.482 41.1591L209.057 62.7198H195.766L198.017 46.6202Z" fill="#B28B67"/>
<path fill-rule="evenodd" clip-rule="evenodd" d="M197.353 31.5846C196.203 29.8539 195.099 28.5339 193.664 27.7673C187.82 27.8606 187.136 26.8016 187.136 23.2323C188.08 22.5495 191.41 21.3999 195.139 21.0765C197.042 20.5262 199.295 20.6297 201.466 21.5478C204.146 22.3165 206.416 23.972 207.418 27.0715C211.044 33.3985 208.292 39.9847 204.583 42.2346C203.595 41.052 202.734 39.9059 201.965 38.8087C202.582 38.1988 202.966 37.3475 202.966 36.4056C202.966 34.5504 201.478 33.0464 199.643 33.0464C199.508 33.0464 199.375 33.0545 199.244 33.0703C199.162 35.3899 198.822 43.2376 197.929 45.9635C196.877 49.1773 190.736 49.9664 188.594 49.9664C186.744 49.9664 186.807 48.1954 186.852 46.9262C186.859 46.7434 186.865 46.571 186.865 46.4158C186.865 46.0915 187.282 46.0924 187.753 46.0933C188.365 46.0946 189.069 46.096 189.069 45.3861C189.069 44.6123 188.011 44.0187 187.064 43.4875C186.474 43.1562 185.927 42.8491 185.707 42.5377C185.012 41.5552 184.779 40.2302 185.826 40.2302C186.398 40.2302 187.184 40.5638 188.129 40.9653C189.555 41.5713 191.346 42.3317 193.315 42.3317C196.569 42.3317 197.343 31.7212 197.353 31.5846Z" fill="#191847"/>
<path fill-rule="evenodd" clip-rule="evenodd" d="M213.488 109.189L193.41 180.421L178.761 232.922H168.076L183.643 109.189H213.488Z" fill="#191847"/>
<path fill-rule="evenodd" clip-rule="evenodd" d="M218.857 109.189C219.322 145.903 220.905 165.927 221.393 169.263C221.881 172.599 229.253 193.818 243.511 232.922H232.443C214.291 195.409 204.159 174.189 202.045 169.263C199.931 164.337 193.408 144.313 183.583 109.189H218.857Z" fill="#2F3676"/>
<path fill-rule="evenodd" clip-rule="evenodd" d="M244.501 243L243.947 231.243L232.317 231.243C224.045 237.121 210.719 240.761 210.719 240.761V243H231.763L238.963 241.88V243H244.501Z" fill="#191847"/>
<path fill-rule="evenodd" clip-rule="evenodd" d="M180.26 243L179.706 231.243L168.076 231.243C159.805 237.121 146.478 240.761 146.478 240.761V243H167.523L174.722 241.88V243H180.26Z" fill="#191847"/>
<path fill-rule="evenodd" clip-rule="evenodd" d="M256.482 129.504C254.417 126.436 242.47 93.813 242.47 93.813L232.661 95.2531C232.661 95.2531 248.454 129.895 249.595 131.894C251.077 134.492 249.766 138.757 248.877 141.65C248.74 142.097 248.612 142.512 248.507 142.882C250.374 143.427 251.084 142.347 251.833 141.208C252.678 139.922 253.573 138.561 256.239 139.382C257.269 139.7 258.259 140.107 259.226 140.506C262.566 141.881 265.634 143.145 269.158 140.19C269.716 139.721 270.187 138.189 268.411 137.297C263.987 135.073 257.492 131.004 256.482 129.504ZM150.053 114.341L166.77 100.013L171.339 109.473L154.394 118.023C149.864 124.232 147.274 126.871 146.622 125.938C146.073 125.151 146.405 124.355 146.71 123.621C146.948 123.05 147.17 122.516 146.948 122.056C146.439 121.003 143.132 121.351 140.007 121.818C136.883 122.284 137.701 120.806 138.41 120.055C141.482 117.887 145.363 115.983 150.053 114.341Z" fill="#B28B67"/>
<path fill-rule="evenodd" clip-rule="evenodd" d="M201.473 53.388L195.395 51.356C187.151 72.1779 174.855 92.3241 154.311 109.341L159.391 118.202C177.446 107.449 194.538 99.0967 201.473 82.9621C203.801 77.5469 201.663 59.8629 201.473 53.388Z" fill="#C5CFD6"/>
<path fill-rule="evenodd" clip-rule="evenodd" d="M222.349 111.989C222.349 111.989 196.233 114.788 181.237 111.989C179.998 111.758 179.803 109.661 180.377 108.238C189.322 86.0805 195.456 66.7464 195.456 51.356C197.918 52.6108 204.073 51.7321 204.073 51.7321C215.102 67.5924 220.171 85.7903 222.349 111.989Z" fill="#323337"/>
<path fill-rule="evenodd" clip-rule="evenodd" d="M207.234 50.4027C206.949 50.2088 206.799 50.1123 206.799 50.1123L206.815 50.4027H202.219C201.988 51.7758 201.65 56.8653 201.156 64.2865C199.364 91.2541 195.525 149.012 187.354 171.115H243.733C242.544 145.986 233.379 115.934 223.886 90.4172C230.891 97.4635 239.073 109.275 245.685 128.938L256.245 126.197C245.483 79.3137 213.952 55.1345 207.834 50.8191C207.774 50.6796 207.715 50.5407 207.655 50.4027H207.234Z" fill="#DDE3E9"/>
<path fill-rule="evenodd" clip-rule="evenodd" d="M314.213 46.6202C310.627 48.8055 307.103 49.8613 305.449 49.4303C301.302 48.3495 300.92 33.01 304.129 26.9627C307.339 20.9155 323.836 18.2797 324.668 30.2613C324.957 34.4197 323.229 38.1309 320.678 41.1591L325.253 62.7198H311.962L314.213 46.6202Z" fill="#B28B67"/>
<path fill-rule="evenodd" clip-rule="evenodd" d="M309.379 20.3763C311.196 19.8165 313.832 19.6266 314.941 19.755C314.31 18.2269 314.06 16.5244 314.264 14.8667C314.462 13.2559 315.174 11.8844 315.833 10.4472C316.136 9.78471 316.48 9.12587 316.993 8.61917C317.515 8.10295 318.177 7.7622 318.87 7.59963C319.58 7.43323 320.322 7.44708 321.032 7.5981C321.347 7.66489 321.629 7.81022 321.937 7.89101C322.253 7.97378 322.406 7.77398 322.635 7.57318C323.188 7.08936 323.997 6.85052 324.696 6.76504C325.48 6.66918 326.294 6.78874 327.041 7.04929C327.769 7.30293 328.468 7.71481 328.994 8.31484C329.229 8.58194 329.441 8.88595 329.579 9.2216C329.636 9.35934 329.645 9.44094 329.781 9.4914C329.907 9.53811 330.054 9.53947 330.184 9.58392C331.439 10.0136 332.512 10.9938 333.096 12.2523C333.437 12.9865 333.598 14.2792 333.554 15.7281C333.51 17.177 332.216 20.9576 331.005 22.3365C329.925 23.5674 328.337 24.3796 326.804 24.7352C327.822 25.9107 328.499 27.3795 328.999 28.8734C329.543 30.4961 329.88 32.1822 330.004 33.9002C330.122 35.5325 330.133 37.2586 329.755 38.856C329.401 40.3499 328.643 41.5753 327.379 42.3528C326.8 42.7089 326.177 42.9765 325.551 43.221C324.933 43.462 324.314 43.6962 323.667 43.8315C322.443 44.0873 321.032 44.0434 320.089 43.0582C319.749 42.7031 319.375 42.2568 319.127 41.8229C319.038 41.6669 318.984 41.5649 319.093 41.4124C319.223 41.2297 319.432 41.0898 319.599 40.9469C320.55 40.1322 321.138 39.0446 321.287 37.7521C321.437 36.4407 321.089 34.748 319.827 34.1757C318.271 33.4692 316.556 34.2801 315.172 35.036C314.584 32.9377 313.377 31.0484 311.484 30.0859C309.389 29.0211 306.986 28.8965 304.834 27.9829C304.273 27.7448 303.702 27.4746 303.289 26.9895C303.116 26.7868 302.914 26.5238 302.845 26.2556C302.755 25.9034 302.979 25.6081 303.153 25.3335C304.073 23.8776 307.563 20.9362 309.379 20.3763Z" fill="#191847"/>
<path fill-rule="evenodd" clip-rule="evenodd" d="M328.576 109.189L287.425 178.741L256.574 237.541H249.929L301.621 109.189L328.576 109.189Z" fill="#997659"/>
<path fill-rule="evenodd" clip-rule="evenodd" d="M258.191 234.582C259.288 234.154 260.575 234.626 260.939 235.746C261.261 236.739 261.566 237.867 261.566 238.58C261.566 240.095 261.067 243 261.067 243C259.329 243 229.832 243 229.832 243C229.832 243 228.614 238.931 231.238 238.606C233.861 238.282 235.596 238.02 235.596 238.02L249.689 231.669C250.205 231.436 250.812 231.678 251.026 232.203L251.784 234.064C251.784 234.064 254.213 235.209 255.731 235.209C256.399 235.209 257.344 234.914 258.191 234.582Z" fill="#E4E4E4"/>
<path fill-rule="evenodd" clip-rule="evenodd" d="M265.142 228.126L252.327 224.206C252.327 224.206 260.749 198.753 272.972 168.186C285.194 137.619 299.225 109.189 299.225 109.189H335.419C335.419 109.189 319.82 145.151 302.345 174.541C284.87 203.931 265.142 228.126 265.142 228.126Z" fill="#DB2721"/>
<path fill-rule="evenodd" clip-rule="evenodd" d="M331.28 109.189C335.164 133.63 342.655 164.857 343.362 165.82C343.833 166.463 360.8 172.21 394.262 183.063L392.827 188.987C352.923 183.167 331.898 178.651 329.75 175.44C326.528 170.623 310.44 132.572 304.209 109.189H331.28Z" fill="#B28B67"/>
<path fill-rule="evenodd" clip-rule="evenodd" d="M382.5 177.943L379.971 187.484C350.126 190.13 331.839 188.218 325.11 181.747C318.382 175.276 310.713 151.091 302.105 109.189H336.618C342.072 143.501 345.122 161.377 345.766 162.817C346.41 164.257 358.655 169.299 382.5 177.943Z" fill="#FF4133"/>
<path fill-rule="evenodd" clip-rule="evenodd" d="M391.951 182.937C391.725 181.793 392.402 180.625 393.553 180.457C394.581 180.307 395.742 180.197 396.441 180.322C397.916 180.584 400.66 181.586 400.66 181.586C400.358 183.316 395.236 212.684 395.236 212.684C395.236 212.684 391.06 213.19 391.2 210.522C391.339 207.854 391.386 206.081 391.386 206.081L387.64 190.924C387.506 190.379 387.844 189.832 388.39 189.71L390.343 189.276C390.343 189.276 391.88 187.057 392.144 185.546C392.262 184.868 392.131 183.852 391.951 182.937Z" fill="#E4E4E4"/>
<path fill-rule="evenodd" clip-rule="evenodd" d="M281.31 63.6661L300.533 74.3095L293.434 82.012L279.467 69.0831C272.109 67.033 268.744 65.5333 269.372 64.584C269.902 63.7835 270.756 63.8113 271.543 63.8369C272.156 63.8569 272.728 63.8755 273.074 63.5002C273.864 62.6431 272.357 59.6465 270.806 56.8645C269.256 54.0826 270.914 54.3247 271.862 54.7249C274.964 56.8481 278.114 59.8285 281.31 63.6661ZM261.984 78.6004L270.427 83.2897L269.946 91.856C269.946 91.856 264.478 87.8657 259.773 86.5395C253.774 84.8485 251.347 83.5572 248.416 79.7811C246.847 77.7607 245.516 73.6992 247.009 72.3765C247.582 71.8691 249.715 73.0678 251.892 74.2909C253.552 75.223 255.236 76.1693 256.274 76.3853C257.671 76.676 257.507 74.8454 257.377 73.3825C257.283 72.3328 257.206 71.4724 257.735 71.7212C260.206 71.764 261.984 78.6004 261.984 78.6004Z" fill="#997659"/>
<path fill-rule="evenodd" clip-rule="evenodd" d="M309.894 71.9385C303.161 71.8666 294.183 70.429 284.603 64.2813L280.841 72.7634C287.449 79.3932 296.74 84.8404 304.864 84.6098C311.267 84.428 314.539 76.5988 309.894 71.9385Z" fill="#2026A2"/>
<path fill-rule="evenodd" clip-rule="evenodd" d="M328.053 130.05C334.454 129.206 340.335 128.431 343.821 129.125C347.731 116.285 344.484 108.201 341.486 100.738C339.68 96.2402 337.963 91.9681 337.96 87.0166C337.949 72.5973 326.497 50.4026 324.812 50.4026H324.328H310.974H309.446C308.759 59.3255 305.827 68.9866 302.876 78.7097C302.187 80.9804 301.496 83.2544 300.834 85.5232C289.666 88.0859 264.869 79.1653 264.869 79.1653C264.869 79.1653 258.609 92.2581 259.082 97.8336C273.515 105.456 285.886 108.854 296.077 109.078C295.753 115.192 296.489 121.01 298.962 126.325C302.275 133.447 316.074 131.629 328.053 130.05Z" fill="#1F28CF"/>
<path fill-rule="evenodd" clip-rule="evenodd" d="M431.388 46.6202C427.758 48.8055 424.191 49.8613 422.516 49.4303C418.318 48.3495 417.932 33.01 421.18 26.9627C424.429 20.9155 441.129 18.2797 441.971 30.2613C442.263 34.4197 440.515 38.1308 437.932 41.1591L442.563 62.7198H429.109L431.388 46.6202Z" fill="#B28B67"/>
<path fill-rule="evenodd" clip-rule="evenodd" d="M428.849 19.9929C430.622 19.7025 435.397 19.5028 436.277 19.503C436.84 19.503 437.45 19.6314 437.783 19.1154C438.056 18.6928 437.956 17.9782 438.037 17.4878C438.132 16.9182 438.266 16.3559 438.402 15.7951C438.789 14.1991 439.374 12.6808 440.192 11.2552C441.727 8.58077 443.975 6.48584 446.815 5.2668C449.95 3.9208 453.497 3.61259 456.869 3.88561C460.478 4.1777 463.745 5.36747 467.152 6.48713C470.399 7.55406 473.8 7.97402 477.196 7.453C480.617 6.9281 483.203 5.07603 486.089 3.31818C489.043 1.51856 492.419 0.34155 495.912 0.612117C499.172 0.864767 502.177 2.20922 504.873 4.00523C507.396 5.68561 509.477 7.70732 510.652 10.5527C511.916 13.6135 511.915 16.9732 509.836 19.6783C506.823 23.5992 501.23 24.6132 496.576 24.5124C493.884 24.4543 491.241 23.9635 488.699 23.0709C485.31 21.8803 482.382 19.8625 479.211 18.2253C477.723 17.457 476.185 16.826 474.573 16.3715C473.009 15.9303 471.468 15.7279 470.051 16.6717C468.553 17.6702 467.21 18.6511 465.496 19.2761C463.852 19.8758 462.11 20.2112 460.358 20.1976C456.949 20.1713 453.589 19.1106 450.278 18.4001C447.578 17.8208 444.689 17.2434 441.937 17.8003C440.789 18.0327 439.111 18.5125 438.696 19.7046C445.678 20.9683 448.42 29.5919 446.452 35.9225C445.389 39.3393 439.004 43.3336 436.521 41.5373C434.948 40.3993 435.903 38.9053 436.521 37.9191C437.704 36.0304 438.109 33.6043 435.919 32.2894C434.03 31.1553 432.044 33.8484 432.007 33.8455C431.487 33.8046 427.001 31.2707 423.91 27.573C420.861 27.7535 420.398 25.7455 421.126 24.1033C421.854 22.4612 426.399 20.3945 428.849 19.9929Z" fill="#191847"/>
<path fill-rule="evenodd" clip-rule="evenodd" d="M453.414 109.189C452.403 122.968 387.285 163.533 386.905 164.671C386.652 165.43 407.174 212.642 407.174 212.642L401.482 214.851C401.482 214.851 370.004 164.85 371.621 159.522C373.936 151.894 422.145 109.336 422.145 109.336L453.414 109.189Z" fill="#B28B67"/>
<path fill-rule="evenodd" clip-rule="evenodd" d="M405.676 205.534L396.382 208.913C376.785 186.83 369.104 168.61 370.505 159.326C371.905 150.042 420.855 109.223 420.855 109.223L454.081 109.223C452.947 141.132 392.59 164.793 391.783 166.152C390.976 167.512 398.921 180.83 405.676 205.534Z" fill="#2F3676"/>
<path fill-rule="evenodd" clip-rule="evenodd" d="M406.89 212.145C407.77 211.374 409.131 211.378 409.856 212.297C410.507 213.123 411.192 214.087 411.438 214.762C411.956 216.185 412.477 219.088 412.477 219.088C410.824 219.689 382.765 229.888 382.765 229.888C382.765 229.888 380.213 226.486 382.597 225.274C384.982 224.062 386.542 223.216 386.542 223.216L397.787 212.361C398.192 211.97 398.84 211.99 399.22 212.406L400.586 213.9C400.586 213.9 403.289 214.137 404.733 213.612C405.378 213.378 406.19 212.758 406.89 212.145Z" fill="#E4E4E4"/>
<path fill-rule="evenodd" clip-rule="evenodd" d="M445.927 109.189L474.935 178.741L503.446 237.541H496.72L423.125 109.189H445.927Z" fill="#997659"/>
<path fill-rule="evenodd" clip-rule="evenodd" d="M501.413 234.567C502.504 234.143 503.78 234.612 504.147 235.723C504.476 236.722 504.789 237.862 504.789 238.58C504.789 240.095 504.284 243 504.284 243C502.525 243 472.666 243 472.666 243C472.666 243 471.433 238.931 474.088 238.606C476.744 238.282 478.5 238.02 478.5 238.02L492.784 231.661C493.298 231.432 493.9 231.672 494.115 232.193L494.887 234.064C494.887 234.064 497.346 235.209 498.883 235.209C499.57 235.209 500.545 234.904 501.413 234.567Z" fill="#E4E4E4"/>
<path fill-rule="evenodd" clip-rule="evenodd" d="M500.872 225.326L485.925 228.126C474.368 211.157 426.003 141.579 420.7 109.189H453.975C471.683 132.604 489.856 208.077 500.872 225.326Z" fill="#5C63AB"/>
<path fill-rule="evenodd" clip-rule="evenodd" d="M375.161 84.9493L395.474 93.8586L388.987 102.157L373.774 90.5082C366.176 89.1142 362.652 87.9167 363.202 86.9157C363.666 86.0716 364.53 86.024 365.326 85.9802C365.946 85.946 366.524 85.9142 366.84 85.5098C367.562 84.5864 365.781 81.7339 363.975 79.0992C362.169 76.4644 363.862 76.5596 364.852 76.8747C368.166 78.7165 371.602 81.408 375.161 84.9493ZM466.108 98.5888L477.596 96.3125C485.387 116.82 490.031 128.059 491.53 130.027C492.629 131.471 499.406 135.189 503.993 137.174C505.835 137.971 505.439 139.525 504.899 140.022C501.493 143.158 498.326 142.059 494.879 140.863C493.881 140.516 492.86 140.162 491.802 139.899C489.065 139.221 488.232 140.626 487.444 141.955C486.747 143.131 486.086 144.247 484.171 143.802C484.258 143.426 484.365 143.006 484.481 142.552C485.227 139.618 486.328 135.291 484.695 132.777C483.857 131.487 477.661 120.091 466.108 98.5888Z" fill="#B28B67"/>
<path fill-rule="evenodd" clip-rule="evenodd" d="M434.886 53.388L430.038 52.5576C419.48 62.7866 415.171 87.3615 408.135 90.6144C401.482 93.6899 392.052 90.7138 380.842 86.6953L377.409 94.3555C387.594 105.36 409.293 114.658 418.088 109.35C432.149 100.864 435.396 70.5547 434.886 53.388Z" fill="#DB2721"/>
<path fill-rule="evenodd" clip-rule="evenodd" d="M456.018 114.228C456.018 114.228 426.862 114.228 413.126 114.228C411.166 114.228 411.535 111.402 411.818 109.976C415.088 93.5151 427.853 75.7714 427.853 52.3402L440.225 50.4026C450.458 66.8397 453.997 87.077 456.018 114.228Z" fill="#DDE3E9"/>
<path fill-rule="evenodd" clip-rule="evenodd" d="M440.882 50.4026H441.023C468.773 67.4813 485.544 93.9557 491.335 129.826L482.345 131.585C476.389 124.655 469.039 113.315 460.296 97.5627C462.978 107.052 464.937 116.783 465.548 125.986H426.938C419.464 107.121 436.124 50.4026 436.124 50.4026H438.79H440.882Z" fill="#FF4133"/>
<path fill-rule="evenodd" clip-rule="evenodd" d="M547.299 19.6094C554.308 19.6094 559.989 25.2908 559.989 32.2992V42.7516C559.989 49.1085 555.315 54.3737 549.216 55.2976C549.213 55.3495 549.21 55.4017 549.207 55.454H532.851C530.07 52.7563 533.214 34.4584 535.174 28.3941C535.492 27.4094 535.798 26.7424 536.1 26.3271C538.236 22.3295 542.45 19.6094 547.299 19.6094Z" fill="#191847"/>
<path fill-rule="evenodd" clip-rule="evenodd" d="M547.054 46.6202C543.402 48.8055 539.813 49.8613 538.129 49.4303C533.905 48.3495 533.516 33.01 536.785 26.9627C540.053 20.9155 556.854 18.2797 557.701 30.2613C557.995 34.4197 556.236 38.1308 553.637 41.1591L558.297 62.7198H544.761L547.054 46.6202Z" fill="#B28B67"/>
<path fill-rule="evenodd" clip-rule="evenodd" d="M559.492 30.3312C559.099 29.9454 558.719 29.5722 558.342 29.2381L558.36 28.8029C558.36 28.8029 554.112 20.1692 547.581 20.1692C541.055 20.1692 538.992 23.1806 537.238 25.7404L537.233 25.7473C538.15 28.8726 540.916 30.1371 544.043 31.5671C545.389 32.1827 546.803 32.8289 548.165 33.6675C548.698 33.2373 549.378 32.9794 550.119 32.9794C551.833 32.9794 553.221 34.3581 553.221 36.0587C553.221 37.7594 551.833 39.138 550.119 39.138C550.072 39.138 550.025 39.137 549.978 39.1349C549.355 45.7851 549.605 53.3795 551.463 55.1822H567.819C568.288 47.0841 566.178 44.774 564.022 42.4135C561.993 40.1923 559.923 37.9265 559.923 30.7524C559.777 30.6112 559.634 30.4704 559.492 30.3312L559.492 30.3312Z" fill="#191847"/>
<path fill-rule="evenodd" clip-rule="evenodd" d="M580.063 164.106C580.063 164.106 559.768 169.741 545.044 169.741C530.319 169.741 517.69 161.064 517.69 161.064C517.69 161.064 537.55 155.28 550.401 155.28C563.253 155.28 580.063 164.106 580.063 164.106Z" fill="#1F28CF"/>
<path fill-rule="evenodd" clip-rule="evenodd" d="M533.331 175.156C533.462 174.962 533.572 174.75 533.659 174.521C535.468 169.773 564.435 118.554 567.321 109.189H534.708C532.513 116.309 522.638 160.989 521.248 169.903C516.863 183.965 507.834 229.504 506.681 232.659C505.469 235.978 512.291 239.435 514.109 235.355C517.002 228.863 523.894 210.899 526.963 199.931C529.841 189.648 532.183 180.397 533.331 175.156Z" fill="#997659"/>
<path fill-rule="evenodd" clip-rule="evenodd" d="M560.013 181.41C573.257 184.733 621.699 190.74 625.023 191.682C628.443 192.651 631.441 185.654 627.214 184.138C620.489 181.726 601.956 176.154 590.72 173.88C581.682 172.051 573.435 170.558 567.898 169.684C568.367 154.245 570.512 117.192 569.106 109.189H540.249C541.597 116.863 552.99 172.857 555.107 178.462C555.779 180.463 557.785 181.347 560.013 181.41Z" fill="#B28B67"/>
<path fill-rule="evenodd" clip-rule="evenodd" d="M626.226 184.638C625.997 183.486 626.685 182.304 627.849 182.137C628.897 181.987 630.082 181.876 630.795 182.001C632.297 182.264 635.091 183.266 635.091 183.266C634.784 184.996 629.568 214.364 629.568 214.364C629.568 214.364 625.315 214.869 625.457 212.201C625.599 209.533 625.647 207.76 625.647 207.76L621.835 192.613C621.697 192.065 622.041 191.511 622.594 191.391L624.585 190.956C624.585 190.956 626.15 188.737 626.419 187.225C626.538 186.553 626.408 185.547 626.226 184.638Z" fill="#E4E4E4"/>
<path fill-rule="evenodd" clip-rule="evenodd" d="M513.749 234.559C514.836 234.138 516.108 234.605 516.476 235.712C516.808 236.714 517.126 237.859 517.126 238.58C517.126 240.095 516.618 243 516.618 243C514.848 243 484.807 243 484.807 243C484.807 243 483.567 238.931 486.239 238.606C488.91 238.282 490.677 238.02 490.677 238.02L505.057 231.657C505.57 231.43 506.17 231.669 506.385 232.188L507.164 234.064C507.164 234.064 509.637 235.209 511.183 235.209C511.88 235.209 512.87 234.9 513.749 234.559Z" fill="#E4E4E4"/>
<path fill-rule="evenodd" clip-rule="evenodd" d="M569.013 109.19C569.013 109.19 549.939 103.772 532.918 109.19C528.97 127.071 519.377 134.168 517.69 161.582C536.865 171.041 560.553 154.837 580.293 164.061C585.933 151.159 578.037 120.087 569.013 109.19Z" fill="#2B44FF"/>
<path fill-rule="evenodd" clip-rule="evenodd" d="M492.038 83.9533L514.306 86.9686L510.311 96.8723L492.242 89.7612C484.454 90.5239 480.688 90.3403 480.944 89.2104C481.16 88.2576 481.988 87.9699 482.751 87.705C483.345 87.4986 483.899 87.3059 484.094 86.8234C484.538 85.7214 482.007 83.4372 479.511 81.3723C477.016 79.3074 478.691 78.9274 479.744 78.9579C483.485 79.8286 487.583 81.4937 492.038 83.9533ZM600.372 138.252C598.719 134.923 584.258 92.0852 584.258 92.0852L571.908 92.1312C571.908 92.1312 592.221 137.51 593.091 139.65C594.221 142.43 592.301 146.47 590.999 149.21C590.798 149.633 590.611 150.026 590.453 150.378C592.26 151.18 593.127 150.211 594.042 149.188C595.075 148.033 596.168 146.811 598.742 148C599.736 148.459 600.677 149.002 601.597 149.533C604.772 151.365 607.689 153.048 611.657 150.617C612.286 150.232 612.975 148.781 611.31 147.647C607.16 144.823 601.18 139.879 600.372 138.252Z" fill="#997659"/>
<path fill-rule="evenodd" clip-rule="evenodd" d="M550.43 53.202L540.76 53.8415C538.379 75.2294 525.407 88.7389 496.365 84.1654L492.506 111.708C519.651 115.191 543.457 104.403 548.336 75.1931C549.599 67.6316 550.596 59.7625 550.43 53.202Z" fill="#AFB9C5"/>
<path fill-rule="evenodd" clip-rule="evenodd" d="M598.678 132.704C591.964 97.244 577.794 69.8101 556.168 50.4026H555.24H555.208L555.2 50.4115L540.55 53.7424C540.55 71.2127 536.634 84.2664 532.87 96.8164C531.245 102.236 529.647 107.562 528.406 113.109H567.973C568.531 119.464 568.873 125.996 569.051 132.704H598.678Z" fill="#C5CFD6"/>
<path fill-rule="evenodd" clip-rule="evenodd" d="M567.973 113.109C566.838 100.17 564.812 87.9647 561.462 76.4919C562.197 88.7611 562.4 103.982 559.931 113.109H567.973Z" fill="black" fill-opacity="0.1"/>
</svg>
