<svg width="635" height="635" viewBox="0 0 635 635" fill="none" xmlns="http://www.w3.org/2000/svg">
<path fill-rule="evenodd" clip-rule="evenodd" d="M160.207 386.596C153.283 433.372 321.201 463.883 465.731 442.59C610.261 421.298 676.565 338.148 607.597 293.842C538.63 249.537 167.131 339.82 160.207 386.596Z" fill="#DDE3E9" fill-opacity="0.6"/>
<path fill-rule="evenodd" clip-rule="evenodd" d="M536.63 289.063C532.545 291.528 528.531 292.719 526.647 292.233C521.922 291.014 521.488 273.712 525.143 266.892C528.799 260.071 547.592 257.098 548.539 270.612C548.868 275.302 546.9 279.488 543.994 282.904L549.206 307.222H534.066L536.63 289.063Z" fill="#B28B67"/>
<path fill-rule="evenodd" clip-rule="evenodd" d="M545.157 285.946C547.057 277.483 552.471 271.715 551.644 267.932C550.817 264.15 547.237 263.228 547.237 263.228C547.237 263.228 545.385 255.729 535.292 256.849C525.199 257.969 519.039 262.164 521.7 271.397C524.145 271.397 527.097 270.511 531.179 272.028C533.122 272.75 533.958 276.505 533.958 276.505H535.803C535.803 276.505 538.489 272.049 541.099 273.23C543.709 274.411 542.286 278.969 542.286 278.969L543.194 285.946H545.157Z" fill="#191847"/>
<path fill-rule="evenodd" clip-rule="evenodd" d="M585.566 386.157C594.402 386.157 601.566 393.321 601.566 402.157V448.461C601.566 457.298 594.402 464.461 585.566 464.461H524.832C515.996 464.461 508.832 457.298 508.832 448.461V402.157C508.832 393.321 515.996 386.157 524.832 386.157H585.566ZM579.902 403.839C582.111 403.839 583.902 405.63 583.902 407.839V442.78C583.902 444.989 582.111 446.78 579.902 446.78H530.496C528.286 446.78 526.496 444.989 526.496 442.78V407.839C526.496 405.63 528.286 403.839 530.496 403.839H579.902Z" fill="#C5CFD6"/>
<path fill-rule="evenodd" clip-rule="evenodd" d="M446.279 461.304C458.716 446.1 467.132 434.829 471.525 427.49C479.048 414.924 485.205 403.743 487.148 399.472C491.781 389.286 476.481 384.517 473.019 389.268C467.778 396.458 456.585 419.085 439.44 457.147L446.279 461.304Z" fill="#B28B67"/>
<path fill-rule="evenodd" clip-rule="evenodd" d="M471.765 456.883L494.912 398.558C499.863 387.925 475.955 380.936 472.317 385.884C464.057 397.118 444.424 441.434 441.963 444.78L471.765 456.883Z" fill="#2F3676"/>
<path fill-rule="evenodd" clip-rule="evenodd" d="M533.413 445.185C528.905 438.601 512.506 416.451 503.573 407.287C501.006 404.654 498.502 402.126 496.133 399.77C489.091 392.769 475.067 404.54 482.096 410.916C499.599 426.797 525.137 448.236 527.271 450.148C530.261 452.827 536.247 449.323 533.413 445.185Z" fill="#B28B67"/>
<path fill-rule="evenodd" clip-rule="evenodd" d="M530.008 443.118C530.729 442.195 532.07 441.965 532.95 442.738C533.888 443.563 534.954 444.592 535.391 445.349C536.244 446.828 537.388 449.95 537.388 449.95C535.674 450.941 506.575 467.759 506.575 467.759C506.575 467.759 503.081 464.478 505.486 462.666C507.891 460.853 509.455 459.608 509.455 459.608L519.868 445.248C520.199 444.791 520.841 444.698 521.287 445.042L523.196 446.514C523.196 446.514 526.237 446.248 527.735 445.383C528.463 444.962 529.319 443.998 530.008 443.118Z" fill="#E4E4E4"/>
<path fill-rule="evenodd" clip-rule="evenodd" d="M449.139 458.639C450.225 458.201 451.502 458.673 451.877 459.783C452.278 460.966 452.687 462.391 452.687 463.265C452.687 464.973 452.119 468.25 452.119 468.25C450.139 468.25 416.538 468.25 416.538 468.25C416.538 468.25 415.151 463.66 418.139 463.294C421.128 462.928 423.104 462.633 423.104 462.633L439.294 455.408C439.809 455.179 440.412 455.42 440.626 455.941L441.545 458.171C441.545 458.171 444.311 459.463 446.04 459.463C446.88 459.463 448.103 459.057 449.139 458.639Z" fill="#E4E4E4"/>
<path fill-rule="evenodd" clip-rule="evenodd" d="M503.241 401.471C503.241 401.471 532.099 396.765 541.9 395.035C560.525 391.747 565.956 381.715 562.745 359.826L528.43 359.826C521.618 361.795 471.507 384.182 471.507 384.182C465.496 387.169 466.616 395.975 467.714 398.877C467.781 399.054 498.113 451.019 498.113 451.019L526.184 433.118L503.189 403.58C503.189 403.58 502.278 401.744 503.241 401.471Z" fill="#5C63AB"/>
<path fill-rule="evenodd" clip-rule="evenodd" d="M480.646 366.351L500.769 351.559L505.217 362.567L485.291 370.838C479.655 377.465 476.504 380.227 475.837 379.126C475.274 378.197 475.714 377.327 476.119 376.526C476.434 375.902 476.729 375.32 476.512 374.784C476.017 373.559 472.231 373.688 468.644 373.964C465.057 374.24 466.102 372.642 466.967 371.853C470.629 369.659 475.189 367.825 480.646 366.351ZM586.174 392.414C584.326 388.66 578.03 352.07 578.03 352.07L564.847 352.122C564.847 352.122 577.057 391.577 578.03 393.991C579.294 397.127 577.147 401.684 575.691 404.773C575.466 405.251 575.257 405.694 575.08 406.091C577.1 406.996 578.071 405.903 579.094 404.749C580.25 403.447 581.473 402.069 584.351 403.409C585.463 403.927 586.516 404.539 587.544 405.138C591.096 407.204 594.358 409.103 598.797 406.361C599.5 405.927 600.271 404.29 598.408 403.011C593.767 399.826 587.078 394.25 586.174 392.414Z" fill="#B28B67"/>
<path fill-rule="evenodd" clip-rule="evenodd" d="M540.567 296.696L535.112 295.76C514.872 313.262 506.559 346.885 481.75 364.696L487.722 372.105C530.76 366.771 541.427 325.759 540.567 296.696Z" fill="#E87613"/>
<path fill-rule="evenodd" clip-rule="evenodd" d="M564.346 365.318C564.346 365.318 531.537 365.318 516.079 365.318C513.874 365.318 514.29 362.13 514.608 360.522C518.288 341.956 532.652 321.943 532.652 295.515L546.574 293.329C558.09 311.869 562.072 334.694 564.346 365.318Z" fill="#DDE3E9"/>
<path fill-rule="evenodd" clip-rule="evenodd" d="M562.497 311.335C565.03 311.153 567.316 310.092 568.762 307.482C573.85 298.29 572.013 293.23 566.575 291.566C563.584 290.652 560.772 291.276 557.405 292.023C554.649 292.635 551.522 293.329 547.622 293.329C547.245 293.329 546.901 293.355 546.589 293.403L541.969 293.667C541.969 293.667 523.212 357.302 531.623 378.58H569.773C571.942 383.795 574.07 388.345 576.074 391.841H586.425C587.539 355.795 573.906 328.059 562.497 311.335Z" fill="#FF9B21"/>
<path fill-rule="evenodd" clip-rule="evenodd" d="M569.773 378.58C566.927 371.737 564.008 363.75 561.2 355.502C560.154 364.585 558.413 373.708 555.514 378.58H569.773Z" fill="black" fill-opacity="0.1"/>
<path fill-rule="evenodd" clip-rule="evenodd" d="M453.107 337.696C449.062 292.381 232.013 204.92 191.719 247.841C151.424 290.761 190.162 371.313 274.604 391.94C359.047 412.567 457.153 383.01 453.107 337.696Z" fill="#F2F2F2" fill-opacity="0.6"/>
<path fill-rule="evenodd" clip-rule="evenodd" d="M292.943 257.221C296.104 260.502 299.513 262.592 301.372 262.61C306.032 262.655 310.704 246.822 309.015 239.634C307.326 232.446 290.72 225.061 286.51 237.278C285.049 241.518 285.831 245.86 287.669 249.726L276.857 270.843L290.826 274.586L292.943 257.221Z" fill="#B28B67"/>
<path fill-rule="evenodd" clip-rule="evenodd" d="M312.257 234.184C311.424 237.291 308.307 239.177 305.195 238.518C303.295 238.589 300.933 238.383 298.388 237.88C298.386 238.858 298.24 239.93 297.926 241.102C297.649 242.136 297.241 243.203 296.732 244.26C296.362 243.471 295.75 242.856 295.014 242.659C292.955 242.107 291.068 243.416 290.586 245.214C289.975 247.495 290.85 249.499 292.739 250.146C290.116 253.006 287.049 254.867 284.656 254.225C280.11 253.007 278.505 246.065 280.255 239.533C280.317 239.304 280.383 239.077 280.452 238.853C278.63 239.496 276.833 240.498 275.024 241.507C271.178 243.65 267.274 245.826 262.948 244.667C254.29 242.347 255.529 223.972 267.624 227.213C275.85 229.417 279.575 231.7 282.587 234.407C283.794 232.653 285.279 231.305 286.866 230.511C287.268 230.246 287.83 230.041 288.523 229.896C288.95 229.792 289.381 229.73 289.811 229.711C292.121 229.502 295.313 229.773 298.747 230.566C299.388 230.714 300.014 230.875 300.621 231.046C301.489 227.844 304.787 225.946 307.995 226.806C311.21 227.668 313.118 230.971 312.257 234.184Z" fill="#191847"/>
<path fill-rule="evenodd" clip-rule="evenodd" d="M259.065 324.086L281.138 400.115L291.52 457.199H301.941L291.539 324.086H259.065Z" fill="#997659"/>
<path fill-rule="evenodd" clip-rule="evenodd" d="M249.145 324.086C250.686 363.583 250.078 385.125 249.733 388.714C249.389 392.302 247.432 416.335 234.097 458.404H244.935C262.595 418.046 268.76 394.013 270.785 388.714C272.811 383.414 278.793 361.872 287.527 324.086H249.145Z" fill="#B28B67"/>
<path fill-rule="evenodd" clip-rule="evenodd" d="M258.591 324.086C264.333 350.248 274.263 392.009 288.382 449.369H303.623C304.749 390.494 299.96 351.745 291.667 324.086H258.591Z" fill="#69A1AC"/>
<path fill-rule="evenodd" clip-rule="evenodd" d="M249.068 324.086C250.577 363.583 246.668 402.494 234.559 449.984H250.82C268.513 410.229 281.194 371.509 289.86 324.086H249.068Z" fill="#89C5CC"/>
<path fill-rule="evenodd" clip-rule="evenodd" d="M232.552 466.234L233.072 457.846C233.112 457.206 233.736 456.767 234.369 456.872C239.54 457.737 246.306 455.392 246.306 455.392C253.042 460.161 262.541 462.533 266.806 463.411C267.984 463.653 268.74 464.847 268.412 466.005L267.834 468.041H246.306H233.748L232.552 466.234Z" fill="#191847"/>
<path fill-rule="evenodd" clip-rule="evenodd" d="M289.194 466.234L289.715 457.846C289.754 457.206 290.379 456.767 291.011 456.872C296.183 457.737 302.948 455.392 302.948 455.392C309.684 460.161 319.183 462.533 323.448 463.411C324.627 463.653 325.383 464.847 325.054 466.005L324.477 468.041H302.948H290.39L289.194 466.234Z" fill="#191847"/>
<path fill-rule="evenodd" clip-rule="evenodd" d="M324.755 282.588L302.169 290.232L308.337 299.734L325.719 288.675C333.986 287.893 337.872 286.94 337.376 285.816C336.958 284.868 336.038 284.736 335.19 284.614C334.529 284.519 333.913 284.431 333.612 283.968C332.926 282.911 335.1 280.021 337.281 277.366C339.462 274.712 337.641 274.655 336.55 274.9C332.829 276.563 328.898 279.126 324.755 282.588ZM342.675 302.062L332.752 305.435L331.666 314.601C331.666 314.601 338.272 311.407 343.561 310.891C350.305 310.233 353.147 309.323 356.993 305.876C359.051 304.032 361.237 299.98 359.884 298.297C359.365 297.651 356.855 298.518 354.293 299.403C352.341 300.077 350.36 300.761 349.207 300.794C347.656 300.838 348.173 298.929 348.586 297.404C348.883 296.31 349.126 295.413 348.513 295.576C345.857 295.155 342.675 302.062 342.675 302.062Z" fill="#997659"/>
<path fill-rule="evenodd" clip-rule="evenodd" d="M292.581 285.951C299.809 287.147 309.699 287.321 321.112 282.617L323.559 292.315C315.24 298.09 304.266 302.106 295.604 300.326C288.777 298.924 286.733 290.011 292.581 285.951Z" fill="#2026A2"/>
<path fill-rule="evenodd" clip-rule="evenodd" d="M262.267 344.087C255.566 341.984 249.409 340.052 245.544 340.128C243.752 325.786 248.742 317.835 253.349 310.494C256.125 306.071 258.762 301.869 259.691 296.623C262.396 281.349 278.814 259.998 280.619 260.316L297.085 263.219C296.154 272.803 297.491 283.592 298.837 294.451C299.151 296.987 299.466 299.527 299.752 302.056C311.24 306.881 339.478 302.115 339.478 302.115C339.478 302.115 343.739 317.169 342.192 322.987C325.302 328.335 311.411 329.599 300.448 327.911C299.653 334.449 297.778 340.473 294.135 345.638C289.254 352.558 274.809 348.024 262.267 344.087Z" fill="#1F28CF"/>
<path fill-rule="evenodd" clip-rule="evenodd" d="M472.073 242.825C451.064 242.825 434.033 225.794 434.033 204.785C434.033 183.776 451.064 166.745 472.073 166.745C493.082 166.745 510.114 183.776 510.114 204.785C510.114 225.794 493.082 242.825 472.073 242.825Z" fill="#F2F2F2"/>
<path fill-rule="evenodd" clip-rule="evenodd" d="M472.073 176.793C470.884 176.793 469.92 175.829 469.92 174.64C469.92 173.451 470.884 172.486 472.073 172.486C473.262 172.486 474.226 173.451 474.226 174.64C474.226 175.829 473.262 176.793 472.073 176.793Z" fill="black" fill-opacity="0.1"/>
<path fill-rule="evenodd" clip-rule="evenodd" d="M502.218 206.938C501.029 206.938 500.065 205.974 500.065 204.785C500.065 203.596 501.029 202.632 502.218 202.632C503.407 202.632 504.371 203.596 504.371 204.785C504.371 205.974 503.407 206.938 502.218 206.938Z" fill="black" fill-opacity="0.1"/>
<path fill-rule="evenodd" clip-rule="evenodd" d="M441.928 206.938C440.739 206.938 439.775 205.974 439.775 204.785C439.775 203.596 440.739 202.632 441.928 202.632C443.118 202.632 444.082 203.596 444.082 204.785C444.082 205.974 443.118 206.938 441.928 206.938Z" fill="black" fill-opacity="0.1"/>
<path fill-rule="evenodd" clip-rule="evenodd" d="M472.073 237.083C470.884 237.083 469.92 236.119 469.92 234.93C469.92 233.741 470.884 232.777 472.073 232.777C473.262 232.777 474.226 233.741 474.226 234.93C474.226 236.119 473.262 237.083 472.073 237.083Z" fill="black" fill-opacity="0.1"/>
<path fill-rule="evenodd" clip-rule="evenodd" d="M472.073 178.946L470.638 204.067H473.509L472.073 178.946Z" fill="#AFB9C5"/>
<path fill-rule="evenodd" clip-rule="evenodd" d="M459.37 217.488L472.566 206.322L470.536 204.292L459.37 217.488Z" fill="#AFB9C5"/>
<path fill-rule="evenodd" clip-rule="evenodd" d="M472.073 207.656C470.488 207.656 469.202 206.37 469.202 204.785C469.202 203.199 470.488 201.914 472.073 201.914C473.659 201.914 474.944 203.199 474.944 204.785C474.944 206.37 473.659 207.656 472.073 207.656Z" fill="#C5CFD6"/>
</svg>
