<svg width="750" height="720" viewBox="0 0 750 720" fill="none" xmlns="http://www.w3.org/2000/svg">
<g clip-path="url(#clip0)">
<path fill-rule="evenodd" clip-rule="evenodd" d="M128.134 209.112C124.703 216.542 120.148 222.086 117.003 223.198C109.119 225.986 91.8558 201.723 90.4859 188.491C89.116 175.259 112.95 153.012 127.298 171.382C132.278 177.757 133.511 185.613 132.668 193.27L163.47 222.965L141.964 237.471L128.134 209.112Z" fill="#B28B67"/>
<path fill-rule="evenodd" clip-rule="evenodd" d="M137.247 196.495C131.804 182.603 133.944 169.188 129.13 164.584C124.316 159.981 118.344 162.096 118.344 162.096C118.344 162.096 108.498 153.174 95.239 164.441C81.9798 175.709 77.2665 187.596 89.9283 198.216C93.4019 195.873 96.7435 191.782 104.001 190.035C107.456 189.203 112.257 193.758 112.257 193.758L114.877 191.991C114.877 191.991 114.404 183.061 119.249 182.245C124.093 181.429 126.456 189.293 126.456 189.293L134.46 198.375L137.247 196.495Z" fill="#191847"/>
<path fill-rule="evenodd" clip-rule="evenodd" d="M233.23 274.147L195.609 426.423L171.17 552.906L158.739 556.707L182.804 289.564L233.23 274.147Z" fill="#997659"/>
<path fill-rule="evenodd" clip-rule="evenodd" d="M174.145 545.16C175.03 544.392 176.387 544.474 177.093 545.409C178.488 547.254 180.546 550.168 181.098 551.974C181.955 554.777 182.665 560.44 182.665 560.44C179.414 561.434 124.233 578.305 124.233 578.305C124.233 578.305 119.653 571.469 124.376 569.368C129.1 567.267 132.198 565.791 132.198 565.791L155.718 545.32C156.143 544.95 156.79 545.004 157.147 545.44L160.243 549.208C160.243 549.208 165.434 549.94 168.274 549.071C170.052 548.528 172.536 546.557 174.145 545.16Z" fill="#E4E4E4"/>
<path fill-rule="evenodd" clip-rule="evenodd" d="M181.871 530.577L155.68 530.652C155.68 530.652 157.031 478.722 162.597 415.152C168.164 351.581 178.322 290.934 178.322 290.934L246.031 270.233C246.031 270.233 237.201 345.72 221.142 410.115C205.083 474.511 181.871 530.577 181.871 530.577Z" fill="#DB2721"/>
<path fill-rule="evenodd" clip-rule="evenodd" d="M238.289 272.6C259.386 315.619 291.071 369.134 292.938 370.514C294.184 371.433 329.176 372.369 397.916 373.319L398.583 385.106C320.641 397.154 278.753 400.821 272.917 396.105C264.164 389.032 212.535 327.8 187.646 288.083L238.289 272.6Z" fill="#B28B67"/>
<path fill-rule="evenodd" clip-rule="evenodd" d="M373.013 370.568L373.683 389.675C319.348 411.643 284.057 418.562 267.808 410.433C251.559 402.304 223.527 361.922 183.71 289.287L248.275 269.547C277.895 329.938 293.715 361.283 295.735 363.58C297.756 365.878 323.515 368.207 373.013 370.568Z" fill="#FF4133"/>
<path fill-rule="evenodd" clip-rule="evenodd" d="M392.525 372.662C391.923 371.658 392.24 370.335 393.282 369.802C395.341 368.749 398.567 367.229 400.44 366.999C403.349 366.642 409.048 366.926 409.048 366.926C409.463 370.301 416.5 427.591 416.5 427.591C416.5 427.591 408.975 430.915 407.726 425.897C406.477 420.879 405.561 417.57 405.561 417.57L389.486 390.842C389.196 390.359 389.362 389.732 389.852 389.456L394.1 387.062C394.1 387.062 395.72 382.075 395.358 379.126C395.131 377.28 393.622 374.489 392.525 372.662Z" fill="#E4E4E4"/>
<path fill-rule="evenodd" clip-rule="evenodd" d="M89.435 327.801L126.682 306.083L132.406 325.86L96.6426 336.39C85.7744 346.749 79.8629 350.918 78.9081 348.897C78.103 347.193 79.0128 345.778 79.8509 344.474C80.5037 343.459 81.113 342.511 80.8341 341.548C80.1972 339.347 73.6565 338.865 67.4315 338.672C61.2066 338.48 63.2874 335.924 64.9153 334.727C71.6057 331.632 79.779 329.323 89.435 327.801ZM317.715 282.395C311.262 279.286 238.514 231.238 238.514 231.238L219.898 245.895C219.898 245.895 304.51 290.894 308.368 293.12C313.379 296.013 315.276 304.422 316.561 310.125C316.76 311.007 316.945 311.824 317.124 312.547C320.808 311.633 320.967 309.134 321.136 306.499C321.326 303.522 321.527 300.373 326.83 299.141C328.879 298.664 330.946 298.378 332.966 298.099C339.943 297.134 346.352 296.248 349.464 287.865C349.957 286.537 349.276 283.516 345.411 283.76C335.782 284.367 320.869 283.914 317.715 282.395Z" fill="#997659"/>
<path fill-rule="evenodd" clip-rule="evenodd" d="M141.186 212.077L127.326 224.471C149.132 259.801 145.568 295.662 96.2286 323.013L123.112 369.446C168.287 342.678 191.462 298.157 164.142 247.985C157.069 234.997 149.23 221.855 141.186 212.077Z" fill="#AFB9C5"/>
<path fill-rule="evenodd" clip-rule="evenodd" d="M308.565 275.961C256.293 229.978 202.283 205.006 146.535 201.044L145.132 202.14L145.084 202.177L145.083 202.2L126.89 224.569C147.643 251.13 157.229 275.601 166.446 299.128C170.426 309.288 174.337 319.272 179.049 329.172L238.868 282.436C247.259 291.44 255.536 300.966 263.774 310.955L308.565 275.961Z" fill="#C5CFD6"/>
<path fill-rule="evenodd" clip-rule="evenodd" d="M238.868 282.436C221.783 264.105 204.222 247.941 185.529 234.455C201.213 252.242 219.601 275.142 226.71 291.935L238.868 282.436Z" fill="black" fill-opacity="0.1"/>
<path fill-rule="evenodd" clip-rule="evenodd" d="M641.499 295.146C648.652 309.23 657.837 319.614 663.98 321.557C679.386 326.429 710.934 278.656 712.624 253.107C714.313 227.557 666.745 186.237 640.396 222.486C631.251 235.066 629.439 250.261 631.615 264.944L574.349 324.016L616.87 350.586L641.499 295.146Z" fill="#B28B67"/>
<path fill-rule="evenodd" clip-rule="evenodd" d="M629.743 198.282C629.22 196.063 629.685 193.653 630.189 191.403C630.714 189.067 631.269 186.723 632.068 184.449C633.665 179.907 636.52 175.319 641.296 174.002C645.126 172.945 649.243 173.97 652.551 175.701C654.755 176.854 656.732 178.499 658.334 180.422C659.924 182.329 660.829 184.717 662.26 186.742C665.017 182.495 668.561 178.462 673.03 176.157C677.331 173.939 681.91 174.048 686.044 175.903C690.287 177.807 693.574 181.132 695.89 185.209C696.469 186.23 697.027 187.268 697.506 188.348C697.907 189.253 698.276 190.271 698.972 190.972C699.748 191.754 700.527 191.51 701.533 191.216C702.711 190.871 703.92 190.674 705.126 190.583C710.456 190.181 715.938 192.072 719.165 196.325C720.651 198.285 721.761 200.729 721.999 203.291C722.212 205.574 721.52 208.553 722.474 210.648C722.879 211.537 723.745 211.235 724.654 211.18C726.019 211.098 727.384 210.918 728.749 210.86C730.666 210.78 732.55 211 734.332 211.613C736.94 212.51 740.013 214.601 738.799 217.993C738.344 219.267 737.407 220.349 736.622 221.429C735.544 222.912 734.462 224.392 733.36 225.857C732.523 226.969 731.684 228.024 730.74 229.04C730.237 229.581 729.15 230.497 729.028 231.279C728.877 232.255 730.673 232.769 731.307 233.202C732.559 234.058 733.708 235.089 734.553 236.381C735.208 237.381 735.785 238.612 735.514 239.91C735.348 240.707 734.869 241.334 734.339 241.93C733.704 242.646 733.594 243.167 733.19 244.038C735.447 244.266 742.606 246.115 741.426 249.678C741.033 250.864 739.736 251.671 738.758 252.267C737.043 253.313 735.172 254.08 733.32 254.768C729.455 256.204 725.415 257 721.397 257.33C723.717 260.765 721.924 265.5 717.575 266.271C715.655 266.612 713.851 265.827 712.346 264.788C711.795 264.408 711.114 263.679 710.607 263.5C710.334 263.403 709.949 263.445 709.603 263.26C707.324 262.044 705.185 259.976 703.352 258.156C700.085 254.913 697.607 250.857 696.38 246.272C696.066 245.095 695.695 244.3 694.673 243.675C693.777 243.128 692.75 242.826 691.846 242.293C689.455 240.882 688.051 238.405 686.344 236.273C684.365 239.142 681.492 241.869 678.624 243.77C676.285 245.321 674.031 244.35 671.891 243.277C665.047 239.846 658.984 235.114 652.506 231.078C657.887 236.409 663.996 241.039 669.165 246.585C671.501 249.092 668.176 249.644 666.156 250.206C662.831 251.13 659.689 252.887 656.909 255.069C656.34 249.159 652.568 243.142 647.001 241.37C640.851 239.412 632.636 244.249 632.806 251.523C632.905 255.746 635.738 259.123 637.893 262.257C634.086 263.214 631.314 266.409 628.06 268.526C626.455 269.569 624.454 270.633 622.601 270.188C621.915 270.024 621.241 269.625 620.505 269.807C619.593 270.033 619.062 270.59 618.047 270.64C613.998 270.838 609.684 267.932 608.782 263.808C607.966 260.078 610.845 256.781 614.202 255.614C611.977 252.481 607.504 247.444 611.628 243.505C605.38 239 596.16 218.541 609.734 216.284C606.628 210.571 606.361 201.185 613.097 197.267C618.283 194.25 625.063 195.689 629.743 198.282Z" fill="#191847"/>
<path fill-rule="evenodd" clip-rule="evenodd" d="M405.215 687.74C405.215 687.74 480.399 708.757 534.948 708.757C589.496 708.757 636.282 676.39 636.282 676.39C636.282 676.39 562.708 654.817 515.099 654.817C467.49 654.817 405.215 687.74 405.215 687.74Z" fill="#1F28CF"/>
<path fill-rule="evenodd" clip-rule="evenodd" d="M578.338 728.954C577.854 728.228 577.446 727.438 577.122 726.582C570.423 708.874 463.109 517.834 452.418 482.906H573.238C581.366 509.462 617.952 676.111 623.101 709.36C639.346 761.807 672.794 931.663 677.064 943.43C681.556 955.809 656.282 968.704 649.547 953.486C638.83 929.272 613.296 862.27 601.927 821.359C591.268 783.005 582.589 748.5 578.338 728.954Z" fill="#997659"/>
<path fill-rule="evenodd" clip-rule="evenodd" d="M479.49 752.278C430.429 764.672 250.971 787.077 238.656 790.591C225.987 794.206 214.879 768.108 230.538 762.454C255.454 753.459 324.109 732.674 365.735 724.192C399.216 717.37 429.768 711.803 450.28 708.543C448.542 650.956 440.598 512.755 445.805 482.906H552.708C547.715 511.529 505.509 720.378 497.665 741.283C495.175 748.747 487.747 752.045 479.49 752.278Z" fill="#B28B67"/>
<path fill-rule="evenodd" clip-rule="evenodd" d="M446.151 482.906C446.151 482.906 516.813 462.7 579.87 482.906C594.495 549.6 630.033 576.071 636.282 678.323C565.244 713.602 477.491 653.163 404.363 687.567C383.47 639.445 412.721 523.553 446.151 482.906Z" fill="#2B44FF"/>
<path fill-rule="evenodd" clip-rule="evenodd" d="M715.264 602.228L680.759 527.231L650.265 551.904L694.646 607.748C700.331 635.929 705.021 648.963 708.714 646.849C711.828 645.067 711.95 641.85 712.061 638.886C712.148 636.578 712.23 634.423 713.715 633.221C717.108 630.476 727.85 636.917 737.782 643.466C747.714 650.014 747.25 643.722 746.012 640.055C738.936 627.846 728.687 615.236 715.264 602.228ZM360.084 555.606C370.235 546.218 432.988 440.829 432.988 440.829L473.622 456.611C473.622 456.611 389.22 563.828 383.358 570.12C375.742 578.294 376.977 594.891 377.814 606.146C377.944 607.887 378.064 609.5 378.14 610.934C370.831 611.331 369.131 606.808 367.337 602.039C365.312 596.652 363.169 590.952 352.695 591.676C348.649 591.955 344.675 592.597 340.793 593.223C327.383 595.388 315.063 597.377 304.607 583.663C302.95 581.488 302.507 575.528 309.772 573.792C327.872 569.466 355.121 560.195 360.084 555.606Z" fill="#B28B67"/>
<path fill-rule="evenodd" clip-rule="evenodd" d="M614.193 314.445L632.141 318.02C633.329 401.579 658.682 486.822 708.201 573.747L628.151 619.119C588.272 507.107 577.128 403.057 614.193 314.445Z" fill="#191847"/>
<path fill-rule="evenodd" clip-rule="evenodd" d="M459.546 497.905L609.494 555.465C609.494 555.465 606.026 408.748 640.024 320.179L597.379 296.076C539.883 339.608 502.821 406.151 459.546 497.905Z" fill="#DDE3E9"/>
<path fill-rule="evenodd" clip-rule="evenodd" d="M366.716 536.011C454.14 357.279 596.386 295.694 596.386 295.694L596.409 295.74C596.419 295.732 596.429 295.723 596.439 295.715L599.392 296.848C604.621 299.065 615.283 303.703 615.283 303.703L614.222 339.136C594.026 396.93 546.088 577.171 546.088 577.171L447.938 539.494C445.057 547.496 442.337 555.688 439.803 564.066L366.716 536.011Z" fill="#2F3676"/>
<path fill-rule="evenodd" clip-rule="evenodd" d="M447.66 540.268C460.146 505.399 475.673 474.117 492.063 446.707C481.359 482.589 470.852 526.676 475.004 550.764L447.66 540.268Z" fill="black" fill-opacity="0.1"/>
<path fill-rule="evenodd" clip-rule="evenodd" d="M492.554 488.23L549.673 484.301L541.022 506.835L492.554 488.23Z" fill="white" fill-opacity="0.2"/>
<path fill-rule="evenodd" clip-rule="evenodd" d="M372.184 199.778C367.67 194.221 362.607 190.487 359.697 190.2C352.399 189.48 342.955 213.517 344.639 224.961C346.323 236.405 371.359 250.238 379.594 231.775C382.453 225.368 381.809 218.486 379.445 212.202L399.221 180.783L377.829 172.997L372.184 199.778Z" fill="#B28B67"/>
<path fill-rule="evenodd" clip-rule="evenodd" d="M344.183 219.931C343.944 221.248 343.96 222.813 343.951 224.138C343.94 225.846 344.259 227.506 344.688 229.118C345.497 232.152 346.728 235.073 348.306 237.701C351.187 242.5 355.693 246.303 361.035 247.545C363.732 248.171 366.595 248.105 369.322 247.253C371.786 246.483 374.429 244.991 376.982 245.744C379.76 246.564 381.384 249.852 383.027 252.116C384.88 254.669 387.053 256.828 389.753 258.343C394.276 260.88 399.382 260.91 404.123 258.197C409.169 255.309 413.959 250.125 413.655 243.754C413.598 242.57 413.36 241.502 412.826 240.495C412.336 239.571 411.478 238.466 411.565 237.306C411.658 236.074 413.121 234.973 413.852 234.096C414.899 232.84 415.879 231.479 416.299 229.852C416.988 227.181 416.253 224.124 415.146 221.801C414.021 219.436 412.222 217.661 410.083 216.366C408.654 215.501 407.142 214.76 405.536 214.305C404.738 214.079 403.975 214.044 403.16 213.941C402.368 213.84 402.029 213.498 401.553 212.873C399.343 209.971 396.503 208.126 393.072 207.189C390.176 206.398 386.69 205.896 383.701 206.975C380.381 208.173 379.365 211.121 378.825 214.47C378.304 213.926 376.618 213.094 377.214 214.722C377.45 215.366 378.163 215.853 378.591 216.337C379.089 216.901 379.561 217.568 379.842 218.294C380.98 221.229 377.364 225.043 374.644 224.898C370.604 224.683 371.649 219.277 369.534 217.01C368.318 215.707 366.378 216.177 364.874 216.831C362.858 217.706 361.152 219.217 359.573 220.812C358.273 222.125 357.015 223.479 355.704 224.779C355.091 225.386 353.141 227.023 353.44 228.07C350.647 227.638 348.137 225.507 346.407 223.28C345.691 222.359 345.218 221.459 345.098 220.25C345.073 219.991 345.081 219.251 344.801 219.119C344.28 218.872 344.243 219.6 344.183 219.931Z" fill="#191847"/>
<path fill-rule="evenodd" clip-rule="evenodd" d="M424.538 109.061L422.913 -19.5585L423.26 -113.795L406.166 -120.017L375.901 91.3584L424.538 109.061Z" fill="#1F28CF"/>
<path fill-rule="evenodd" clip-rule="evenodd" d="M435.109 112.908C449.692 74.2871 468.364 21.9401 470.328 19.9164C472.291 17.8927 557.771 -10.6556 557.771 -10.6556L554.407 -28.8288C554.407 -28.8288 457.231 -6.7726 450.747 -1.48152C444.264 3.80957 401.417 58.6193 377.39 91.9003L435.109 112.908Z" fill="#2B44FF"/>
<path fill-rule="evenodd" clip-rule="evenodd" d="M510.617 104.6C505.405 108.088 465.832 151.581 465.832 151.581L451.218 143.052C451.218 143.052 498.157 98.854 501.229 96.4496C505.219 93.3262 505.846 85.8023 506.272 80.7004C506.337 79.9112 506.398 79.1798 506.466 78.5317C509.766 78.8712 510.206 81.0185 510.67 83.2823C511.194 85.8392 511.748 88.5448 516.489 88.962C518.32 89.1232 520.145 89.1171 521.927 89.1111C528.085 89.0904 533.742 89.0714 537.448 95.9564C538.035 97.0479 537.81 99.75 534.434 100.014C526.023 100.671 513.165 102.895 510.617 104.6ZM320.015 65.0892L340.769 96.2316L352.677 83.0094L328.856 61.1496C324.317 48.9293 321.296 43.424 319.792 44.6338C318.523 45.6538 318.697 47.1037 318.856 48.4392C318.981 49.4796 319.097 50.4506 318.516 51.0948C317.191 52.5661 311.926 50.4446 307.016 48.2175C302.106 45.9904 302.759 48.7763 303.573 50.3307C307.604 55.297 313.085 60.2165 320.015 65.0892Z" fill="#B28B67"/>
<path fill-rule="evenodd" clip-rule="evenodd" d="M365.058 188.771L375.979 188.327C376.783 185.806 378.079 182.276 379.564 178.231C384.225 165.534 390.746 147.772 389.764 140.268C386.361 114.271 367.178 94.3923 345.814 72.2524C342.95 69.2848 340.047 66.2765 337.138 63.2074L324.671 75.2174C325.286 76.1064 325.891 76.9961 326.488 77.8865C325.222 77.8717 323.962 78.4207 323.109 79.4883C321.642 81.3265 321.94 84.0062 323.775 85.4735C327.505 88.4553 331.251 90.5034 334.992 91.5683C353.44 123.721 361.791 156.541 365.058 188.771Z" fill="#69A1AC"/>
<path fill-rule="evenodd" clip-rule="evenodd" d="M444.147 104.875C444.147 104.875 403.934 85.0204 378.202 80.8731C376.077 80.5306 373.043 89.1379 373.112 91.8153C374.185 133.509 373.906 163.644 364.686 188.976C369.386 188.348 378.733 193.388 378.733 193.388C405.924 173.721 424.958 146.726 444.147 104.875Z" fill="#191847"/>
<path fill-rule="evenodd" clip-rule="evenodd" d="M497.434 123.771C447.037 185.431 385.085 198.116 385.085 198.116L380.286 196.37L374.982 194.439C381.641 179.703 384.29 155.697 387.363 127.848C392.277 83.3091 398.275 28.9427 423.498 -13.0459C435.168 -11.5311 447.249 -5.2681 460.328 1.51205C479.204 11.2974 500.157 22.16 524.953 21.3808C517.531 39.177 499.684 55.3716 481.917 71.493C470.656 81.7119 459.427 91.9014 450.906 102.451C451.529 103.689 451.537 105.207 450.792 106.497L449.368 108.965C448.408 110.63 446.492 111.399 444.713 110.98C443.929 112.206 443.19 113.438 442.499 114.677C438.967 121.005 437.241 127.901 435.535 134.719L435.535 134.719C434.598 138.463 433.667 142.183 432.446 145.773C448.206 139.491 469.342 126.23 493.167 98.5814L508.145 109.631C506.635 111.784 505.109 113.886 503.568 115.94C505.12 117.718 505.557 123.64 503.613 123.893C501.558 124.161 499.498 124.117 497.434 123.771Z" fill="#89C5CC"/>
<path fill-rule="evenodd" clip-rule="evenodd" d="M381.74 195.891L391.459 183.448L386.08 169.51L397.446 164.233L389.859 122.294L401.969 165.801L390.726 171.201L395.515 183.531L381.74 195.891Z" fill="black" fill-opacity="0.1"/>
<path fill-rule="evenodd" clip-rule="evenodd" d="M400.633 111.106C398.671 110.392 396.5 111.406 395.785 113.371C395.07 115.336 396.081 117.508 398.043 118.222C400.006 118.936 402.176 117.922 402.892 115.957C403.607 113.993 402.596 111.821 400.633 111.106ZM403.638 89.0327C401.675 88.3184 399.505 89.3323 398.789 91.2972C398.074 93.2621 399.085 95.4339 401.048 96.1482C403.01 96.8624 405.181 95.8486 405.896 93.8837C406.611 91.9188 405.6 89.7469 403.638 89.0327ZM405.347 70.5167C406.062 68.5518 408.233 67.5379 410.195 68.2522C412.157 68.9664 413.169 71.1383 412.453 73.1032C411.738 75.0681 409.568 76.082 407.605 75.3677C405.643 74.6535 404.632 72.4816 405.347 70.5167Z" fill="black" fill-opacity="0.4"/>
</g>
<defs>
<clipPath id="clip0">
<rect width="753" height="720" fill="white"/>
</clipPath>
</defs>
</svg>
