<svg width="351" height="258" viewBox="0 0 351 258" fill="none" xmlns="http://www.w3.org/2000/svg">
<path fill-rule="evenodd" clip-rule="evenodd" d="M25.4793 186.404C33.2003 156.453 111.327 173.516 162.546 164.257C213.764 154.997 274.36 111.874 314.464 132.998C354.568 154.122 311.898 205.184 219.917 216.707C127.937 228.23 17.7584 216.355 25.4793 186.404Z" fill="#F2F2F2"/>
<g opacity="0.5">
<path fill-rule="evenodd" clip-rule="evenodd" d="M45.8852 46.5168C45.1404 47.077 45.4297 49.0677 45.4141 49.8044C45.3902 50.9514 45.4849 52.088 45.6122 53.2308C45.6975 53.996 46.1783 61.2979 47.5162 60.7371C48.2704 60.4211 47.7976 58.3088 47.7963 57.6407C47.7932 56.1554 47.7112 54.6736 47.5797 53.1916C47.4575 51.8157 47.3808 50.4559 47.4511 49.0773C47.4683 48.7409 47.8862 45.0068 45.8852 46.5168Z" fill="#89C5CC"/>
<path fill-rule="evenodd" clip-rule="evenodd" d="M78.3203 45.6167C71.9218 45.655 65.5259 45.8928 59.1304 46.0384C56.0529 46.1085 52.9774 46.1977 49.9032 46.3261C48.8557 46.3699 46.609 46.1173 45.7362 46.5378C43.7988 47.4712 46.9234 47.6895 47.7563 47.6666C60.4129 47.3209 73.0739 46.8656 85.7413 46.8441C91.9552 46.8337 98.166 46.967 104.381 46.937C106.756 46.9256 109.387 46.1547 109.987 48.2375C110.664 50.5879 109.886 53.2048 109.674 55.5666C109.533 57.1432 109.583 58.687 109.677 60.2623C109.738 61.2715 109.58 62.4087 109.817 63.399C110.045 64.3526 110.955 64.9245 111.789 63.8563C112.288 63.218 112.04 61.6419 112.073 60.9023C112.118 59.9064 112.076 58.9107 112.076 57.9146C112.075 55.4832 112.531 53.0614 112.471 50.6306C112.432 49.063 112.321 46.2213 109.697 45.8447C106.807 45.4299 103.254 45.847 100.296 45.8215C92.9678 45.7585 85.6514 45.5735 78.3203 45.6167Z" fill="#89C5CC"/>
<path fill-rule="evenodd" clip-rule="evenodd" d="M60.6894 60.8243C58.2767 60.8243 55.8637 60.8352 53.4513 60.8653C51.3822 60.8911 48.129 60.5663 46.2033 61.1239C44.8849 61.5057 44.5347 62.6144 46.2033 62.9097C48.0231 63.2319 50.7657 62.7051 52.6697 62.6798C62.2172 62.5529 71.8566 62.3874 81.3907 62.8422C90.3244 63.2683 99.4302 63.6814 108.377 63.2317C109.13 63.1939 112.969 63.0788 111.217 61.9947C110.195 61.362 106.053 61.7781 104.725 61.7479C100.04 61.6414 95.35 61.6178 90.6666 61.484C86.0444 61.3519 81.4425 60.9604 76.8187 60.8635C71.4468 60.7509 66.063 60.8243 60.6894 60.8243Z" fill="#89C5CC"/>
<path fill-rule="evenodd" clip-rule="evenodd" d="M58.2752 50.4871C62.0358 50.6108 65.7563 54.719 61.9513 56.7045C58.3819 58.5674 51.692 56.5257 53.6769 52.9132C53.3916 53.4355 54.0377 52.3458 54.0458 52.3385C54.4233 52.0036 55.101 51.6327 55.5662 51.3687C56.0986 51.0665 56.6531 50.7338 57.295 50.5824C57.7164 50.483 57.6503 50.857 58.2752 50.4871ZM56.4438 49.0054C54.6838 49.5231 53.8805 50.1071 52.671 51.1637C51.8341 51.895 50.7672 52.2797 50.7767 53.2679C50.7787 53.4866 51.1517 53.727 51.2161 53.9376C51.3052 54.2288 51.2021 54.6018 51.2726 54.9111C52.0007 58.103 57.0565 59.1792 60.7572 58.5765C63.9809 58.0516 66.3918 55.7206 65.6451 53.1859C64.8932 50.6343 59.8702 47.9959 56.4438 49.0054Z" fill="#89C5CC"/>
<path fill-rule="evenodd" clip-rule="evenodd" d="M54.8762 53.4613C54.8762 54.6095 57.2841 54.6095 57.2841 53.4613C57.2841 52.3261 54.8762 52.2774 54.8762 53.4613Z" fill="#89C5CC"/>
<path fill-rule="evenodd" clip-rule="evenodd" d="M57.8887 53.2289C57.8887 54.1414 59.8019 54.1414 59.8019 53.2289C59.8019 52.3269 57.8887 52.2883 57.8887 53.2289Z" fill="#89C5CC"/>
<path fill-rule="evenodd" clip-rule="evenodd" d="M58.481 55.1106C57.8683 55.288 57.0912 54.9202 56.5882 55.1625C55.6974 55.5921 56.5904 55.9808 57.0679 56.1534C59.2176 56.9304 59.6002 54.7877 58.481 55.1106Z" fill="#89C5CC"/>
<path fill-rule="evenodd" clip-rule="evenodd" d="M91.3129 52.5657C91.2489 52.5861 91.0207 52.6587 91.3129 52.5657V52.5657ZM81.951 51.5351C80.342 51.8088 78.9834 52.9406 77.2353 52.7892C75.8956 52.6731 74.9886 51.6993 73.666 51.5578C71.9742 51.3766 67.3697 54.2838 69.7905 54.7826C71.203 55.0737 71.9865 53.1294 73.2343 53.0261C74.2213 52.9444 75.5637 53.8562 76.5866 53.986C78.4947 54.2282 79.8052 53.4365 81.4803 52.9259C83.3006 52.3711 84.3362 52.8707 85.9193 53.4874C87.1688 53.9741 88.3456 54.2911 89.7754 54.0902C91.1173 53.9019 92.803 52.8624 94.1537 52.9691C95.4766 53.0736 96.4208 54.1135 97.7816 54.21C98.3426 54.2497 99.1778 54.3937 99.0835 53.7417C99.0081 53.2195 98.2347 53.308 97.7508 53.1182C96.5066 52.6301 95.3427 51.7656 93.841 51.8394C92.7115 51.8949 91.6831 52.4927 90.6422 52.7788C87.233 53.7154 85.3165 50.9666 81.951 51.5351Z" fill="#89C5CC"/>
<path fill-rule="evenodd" clip-rule="evenodd" d="M84.7991 68.0737C78.223 68.1191 71.6246 68.1927 65.0669 68.5898C63.5122 68.6839 47.6374 69.813 47.6675 69.8943C47.7231 70.0448 49.765 70.2746 49.7522 70.3101C49.6146 70.053 49.3 69.9466 48.8087 69.991C63.8646 69.991 78.8728 68.9756 93.9485 69.1582C97.7365 69.204 101.539 69.1849 105.324 69.2748C106.269 69.2973 108.611 69.8075 109.353 69.4861C111.301 68.6424 107.762 68.545 107.176 68.5096C99.757 68.0626 92.239 68.0178 84.7991 68.0737Z" fill="#69A1AC"/>
<path fill-rule="evenodd" clip-rule="evenodd" d="M45.7184 70.4805C44.7353 71.223 45.6405 73.8942 45.6792 74.8981C45.7353 76.3495 45.6891 77.8112 45.8582 79.2589C46.0512 80.9125 46.3506 82.6743 46.9266 84.2787C47.2438 85.1626 48.3573 86.5673 48.7985 84.9612C49.1135 83.8141 48.6351 82.2924 48.4687 81.1238C48.246 79.5606 48.1922 78.0179 48.1838 76.4471C48.1763 75.0783 48.1414 73.7039 47.9923 72.3394C47.915 71.6309 47.4419 69.1891 45.7184 70.4805Z" fill="#69A1AC"/>
<path fill-rule="evenodd" clip-rule="evenodd" d="M70.453 84.0836C65.7863 84.1439 61.1095 84.2267 56.4507 84.4463C54.5412 84.5364 52.6333 84.6705 50.7308 84.8226C50.3426 84.8535 46.0457 84.985 47.9657 86.1795C48.8323 86.7188 52.3972 85.9732 53.5746 85.8955C55.5549 85.7647 57.5347 85.6797 59.5207 85.6164C64.1224 85.4692 68.738 85.3393 73.3443 85.3995C81.7565 85.5094 90.1147 85.5585 98.5293 85.4171C99.7248 85.3971 109.091 85.5856 109.409 84.6487C109.665 83.8936 106.316 84.24 105.705 84.2537C103.465 84.3041 101.224 84.2924 98.9831 84.2838C89.489 84.2471 79.9398 83.9627 70.453 84.0836Z" fill="#69A1AC"/>
<path fill-rule="evenodd" clip-rule="evenodd" d="M107.823 69.2276C107.971 72.3576 108.679 75.4838 108.905 78.6232C109.009 80.0583 109.13 81.492 109.224 82.9276C109.254 83.3907 109.006 84.5065 109.733 84.7729C110.73 85.1383 110.864 84.402 111.051 83.9041C111.59 82.4657 111.226 80.5972 111.177 79.1198C111.129 77.689 111.126 76.2558 110.986 74.8276C110.842 73.3686 110.452 71.9371 110.272 70.4832C110.195 69.8683 110.463 68.8451 109.596 68.4635C108.847 68.1336 107.791 68.5493 107.823 69.2276Z" fill="#69A1AC"/>
<path fill-rule="evenodd" clip-rule="evenodd" d="M61.9541 74.4339C61.9719 74.4441 61.9895 74.4545 62.0071 74.4649C61.9895 74.4545 61.9717 74.4443 61.9541 74.4339ZM57.9882 73.5067C59.467 73.825 60.6816 73.7063 62.0943 74.5172C63.2653 75.1897 64.4665 76.1734 64.855 77.2606C65.7523 79.7725 62.71 81.1491 59.8579 81.1762C56.9365 81.2038 52.6123 80.6934 52.762 77.8727C52.8768 75.7055 54.9775 73.5909 57.9882 73.5067ZM58.0925 72.0872C54.2576 72.2311 51.1643 75.4751 51.1975 78.2057C51.2375 81.5152 56.2157 82.3678 59.752 82.3908C63.7431 82.4165 67.723 80.3406 66.6535 76.9597C65.7966 74.2509 61.7802 71.9429 58.0925 72.0872Z" fill="#69A1AC"/>
<path fill-rule="evenodd" clip-rule="evenodd" d="M54.2349 76.5308C54.2349 77.4536 56.1705 77.4536 56.1705 76.5308C56.1705 75.6185 54.2349 75.5793 54.2349 76.5308Z" fill="#69A1AC"/>
<path fill-rule="evenodd" clip-rule="evenodd" d="M58.2952 76.1258C58.2952 77.056 60.2462 77.056 60.2462 76.1258C60.2462 75.2063 58.2952 75.1668 58.2952 76.1258Z" fill="#69A1AC"/>
<path fill-rule="evenodd" clip-rule="evenodd" d="M56.0567 78.2308C54.7968 79.1783 59.2228 80.8394 60.2666 79.5212C61.1239 78.4386 59.2573 78.7975 58.5956 78.739C57.8765 78.6752 56.6437 77.7898 56.0567 78.2308Z" fill="#69A1AC"/>
<path fill-rule="evenodd" clip-rule="evenodd" d="M91.4432 76.1447C91.3218 76.183 91.3218 76.183 91.4432 76.1447V76.1447ZM74.8224 74.6023C73.5467 74.7825 69.3602 75.8464 69.3037 76.9866C69.2004 79.0589 73.3005 76.9363 74.1908 76.6637C76.6095 75.9233 77.8804 77.4336 80.31 77.5133C82.4202 77.5826 84.3605 76.2222 86.3482 76.3831C88.4309 76.5516 89.4327 78.2206 91.8371 77.3344C93.109 76.8657 93.0769 76.143 91.6491 76.0749C90.786 76.0338 90.1931 76.3024 89.2933 76.0227C87.8862 75.5855 87.3194 74.8736 85.6355 74.9867C84.3648 75.072 83.2164 75.6115 81.9761 75.8203C79.1361 76.2983 77.5607 74.2159 74.8224 74.6023Z" fill="#69A1AC"/>
<path fill-rule="evenodd" clip-rule="evenodd" d="M101.241 77.0444C101.154 77.0721 101.154 77.0721 101.241 77.0444V77.0444ZM101.563 76.1816C101.577 76.1862 101.673 76.2865 101.563 76.1816V76.1816ZM100.101 75.5229C100.046 75.5547 100.046 75.5547 100.101 75.5229V75.5229ZM100.133 75.5149C100.416 75.6427 102.696 76.8171 101.04 77.0937C100.199 77.2341 99.5038 75.9599 100.133 75.5149ZM99.3776 74.2139C95.7255 75.4683 99.6555 79.9571 102.522 78.1333C103.728 77.3658 103.886 75.8147 102.713 75.0151C102.01 74.536 100.332 73.8856 99.3776 74.2139Z" fill="#69A1AC"/>
<path fill-rule="evenodd" clip-rule="evenodd" d="M65.0944 91.9028C60.5372 91.9038 55.94 91.8317 51.3889 92.0353C50.623 92.0695 47.7054 91.9597 47.3108 92.5628C46.5888 93.6659 49.5909 93.1184 50.0271 93.0853C59.0887 92.402 68.5544 92.7951 77.6459 92.9899C85.0814 93.1491 92.4772 93.248 99.9039 93.5367C101.856 93.6125 103.806 93.6964 105.757 93.785C106.393 93.8139 107.993 94.1314 108.127 93.3664C108.251 92.6584 106.255 92.8183 105.757 92.7984C101.791 92.6412 97.8284 92.4765 93.8641 92.3084C84.3221 91.9032 74.6515 91.9015 65.0944 91.9028Z" fill="#89C5CC"/>
<path fill-rule="evenodd" clip-rule="evenodd" d="M47.1644 93.1295C46.3132 93.7669 46.7122 96.2007 46.6884 97.0052C46.6469 98.4122 46.5587 99.818 46.5191 101.225C46.478 102.695 46.5352 104.172 46.6506 105.64C46.699 106.256 47.3706 109.235 48.428 107.53C48.9004 106.768 48.4166 104.647 48.4238 103.783C48.4368 102.212 48.5491 100.648 48.6529 99.0792C48.7421 97.7305 48.7454 96.3806 48.8237 95.0317C48.8485 94.6016 48.916 91.806 47.1644 93.1295Z" fill="#89C5CC"/>
<path fill-rule="evenodd" clip-rule="evenodd" d="M108.894 105.697C104.459 106.039 99.9526 105.878 95.5007 106.13C91.664 106.348 87.8307 106.437 83.984 106.499C75.2734 106.637 66.5481 106.772 57.8628 107.319C55.8834 107.444 53.9065 107.576 51.9218 107.643C50.9292 107.676 46.7642 107.336 46.454 108.124C45.9257 109.466 50.3798 108.935 51.3405 108.914C53.4531 108.868 55.5559 108.753 57.6626 108.632C66.5184 108.124 75.4082 107.972 84.283 107.761C89.1097 107.646 93.9028 107.38 98.7187 107.138C101.119 107.017 103.526 107.014 105.926 106.897C106.554 106.866 108.777 106.926 109.229 106.546C109.539 106.284 109.618 105.646 108.894 105.697Z" fill="#89C5CC"/>
<path fill-rule="evenodd" clip-rule="evenodd" d="M107.391 93.3579C107.543 96.5617 107.783 99.7627 107.927 102.967C107.97 103.93 107.583 105.657 108.296 106.506C109.441 107.872 110.335 106.427 110.544 105.575C111.206 102.888 110.495 99.9204 110.31 97.2171C110.239 96.1857 110.665 93.8903 110.003 92.9672C109.373 92.088 107.334 92.1763 107.391 93.3579Z" fill="#89C5CC"/>
<path fill-rule="evenodd" clip-rule="evenodd" d="M99.9447 97.9209C101.644 98.2676 101.892 101.05 99.9749 101.256C97.1212 101.562 98.3692 98.4946 99.9447 97.9209ZM99.4688 96.8143C98.9504 96.802 97.7541 96.6944 97.4346 97.0122C97.1673 97.2782 97.4375 97.8392 97.4063 98.0925C97.2939 98.9978 96.3168 99.5206 96.7536 100.589C97.0501 101.315 97.8442 101.997 98.8119 102.249C103.919 103.578 103.856 96.1455 99.4688 96.8143Z" fill="#89C5CC"/>
<path fill-rule="evenodd" clip-rule="evenodd" d="M53.3635 97.3134C53.3508 97.3256 53.338 97.3378 53.3255 97.35C53.338 97.3378 53.3508 97.3256 53.3635 97.3134ZM57.3744 95.706C57.3544 95.5774 57.3344 95.4486 57.3144 95.3198C60.0832 96.3043 62.2864 98.1357 61.3671 100.594C60.6656 102.469 58.1311 103.134 55.7698 102.671C53.156 102.159 51.9069 100.536 52.6117 98.5429C52.9368 97.6235 53.9353 96.388 55.2259 96.0924C55.8268 95.9548 57.1554 96.3055 57.3744 95.706ZM55.7553 94.9274C55.0549 94.963 54.3732 95.1829 53.8016 95.4834C54.3367 95.1425 55.0499 94.9395 55.7553 94.9274ZM55.7753 93.7162C54.0452 93.7561 52.9115 94.545 51.8853 95.4926C51.5632 95.79 50.4744 96.5785 50.6091 96.9792C50.7158 97.296 50.9947 97.7593 51.5821 97.4061C48.5055 102.025 56.4535 105.965 61.3055 102.753C65.8337 99.7552 61.3411 93.5757 55.7753 93.7162Z" fill="#89C5CC"/>
<path fill-rule="evenodd" clip-rule="evenodd" d="M54.2034 98.0068C54.2034 98.6219 55.471 98.6219 55.471 98.0068C55.471 97.3918 54.2034 97.3918 54.2034 98.0068Z" fill="#89C5CC"/>
<path fill-rule="evenodd" clip-rule="evenodd" d="M56.3667 98.1118C56.3667 98.7369 57.6547 98.7369 57.6547 98.1118C57.6547 97.4867 56.3667 97.4867 56.3667 98.1118Z" fill="#89C5CC"/>
<path fill-rule="evenodd" clip-rule="evenodd" d="M57.3481 100.307C56.7455 100.344 54.5399 100.19 54.1528 100.587C53.5058 101.252 54.5384 101.275 55.0455 101.347C55.5024 101.411 57.4881 101.375 57.768 101.069C58.0153 100.799 57.9575 100.268 57.3481 100.307Z" fill="#89C5CC"/>
<path fill-rule="evenodd" clip-rule="evenodd" d="M83.9224 98.5829C83.8189 98.6151 83.8189 98.6151 83.9224 98.5829V98.5829ZM75.5884 98.1249C74.2307 98.2002 73.0808 98.7884 71.7826 99.0232C70.397 99.2738 69.7973 98.8129 68.5374 98.5112C67.2267 98.1974 66.2944 98.3214 65.241 98.9956C64.6441 99.3777 63.3345 100.257 63.7076 100.936C64.5619 102.489 66.4956 99.9618 67.405 99.8442C68.8239 99.6609 70.0861 100.595 71.7222 100.328C73.2047 100.086 74.5202 99.3191 76.0688 99.3109C77.3636 99.3039 78.5839 99.8376 79.8623 99.9667C81.8137 100.164 83.0952 99.642 84.8991 99.2545C86.4635 98.9185 87.5605 99.3616 89.0318 99.7343C89.7043 99.9046 91.9482 100.524 91.5351 99.401C91.4184 99.0839 88.4614 98.5168 88.003 98.4077C86.3863 98.0229 85.3626 98.1729 83.8226 98.6152C82.5383 98.9842 81.458 99.1639 80.081 98.9609C78.5639 98.7372 77.1842 98.0337 75.5884 98.1249Z" fill="#89C5CC"/>
</g>
<g opacity="0.5">
<path fill-rule="evenodd" clip-rule="evenodd" d="M138.059 46.6379C138.278 43.0867 138.579 39.5405 138.738 35.9871C138.817 34.2263 138.878 32.4654 138.938 30.7043C138.951 30.3121 138.965 29.9201 138.976 29.528C139.015 28.1957 138.805 28.0867 140.585 27.9685C148.525 27.4405 156.497 27.2655 164.446 26.7879C174.034 26.2118 183.671 25.814 193.286 25.6357C197.558 25.5563 201.849 25.3919 206.122 25.492C207.069 25.5142 208.928 25.3286 209.3 25.883C209.461 26.1225 209.124 26.9466 209.081 27.223C208.947 28.0864 208.822 28.9527 208.745 29.8204C208.29 34.9377 208.561 40.184 209.876 45.2238C206.791 43.913 202.892 42.7855 199.295 43.0093C195.628 43.2374 192.885 44.8333 189.95 46.3022C188.29 47.1329 187.731 47.3514 186.075 46.5466C184.647 45.8529 183.297 45.0599 181.95 44.2815C179.872 43.0803 177.911 41.7778 175.896 40.5185C172.19 38.2029 167.086 34.9071 161.968 35.8775C158.312 36.5708 154.935 38.0845 151.762 39.566C147.047 41.7669 142.779 44.4621 138.059 46.6379ZM201.603 23.9149C183.387 23.9149 165.306 25.2452 147.141 25.9648C145.244 26.0399 143.353 26.1506 141.463 26.288C140.203 26.3797 137.122 25.9949 136.296 26.8059C135.745 27.3469 136.218 27.4281 136.296 27.9421C136.394 28.59 136.336 29.3576 136.31 30.0433C136.25 31.6956 136.186 33.3477 136.136 35.0002C135.948 41.2455 135.831 47.4897 136.166 53.7333C136.24 55.095 136.898 56.9804 136.538 58.3035C136.277 59.2615 135.405 59.8445 137.416 60.0215C139.395 60.1958 141.815 59.7526 143.797 59.6106C145.789 59.4678 147.781 59.3128 149.776 59.1889C158.449 58.6505 167.206 58.7319 175.902 58.553C184.676 58.3725 193.454 58.3609 202.231 58.3573C205.903 58.3558 210.1 58.5113 213.683 57.75C214.944 57.482 215.148 57.35 214.837 56.4078C214.778 56.229 214.397 56.163 214.285 55.8398C214.134 55.4 214.212 54.8655 214.176 54.4077C214.06 52.9125 214.02 51.4147 213.926 49.9185C213.77 47.4187 213.198 44.9927 212.775 42.5181C212.287 39.6602 212.312 36.7585 212.302 33.882C212.296 32.2864 212.35 30.6961 212.52 29.105C212.63 28.0845 213.297 26.5609 212.958 25.6092C212.79 25.1354 212.514 24.7596 211.859 24.5557C211.445 24.4263 211.096 24.5276 210.686 24.4948C210.199 24.4559 209.896 24.4045 209.313 24.3051C206.817 23.8789 204.147 23.9149 201.603 23.9149Z" fill="#69A1AC"/>
<path fill-rule="evenodd" clip-rule="evenodd" d="M191.522 30.7092C191.521 31.7037 191.315 33.1712 191.923 34.1077C192.695 35.2956 193.661 34.9243 193.917 33.808C194.063 33.1684 194.06 31.2757 193.787 30.7092C193.401 29.9073 191.522 29.3612 191.522 30.7092Z" fill="#89C5CC"/>
<path fill-rule="evenodd" clip-rule="evenodd" d="M193.737 31.0931C192.498 31.126 188.888 30.9019 188.049 31.6526C186.611 32.9402 189.115 33.1683 190.19 33.0962C191.435 33.0128 195.28 33.2163 196.113 32.4647C197.507 31.2074 194.712 31.0663 193.737 31.0931Z" fill="#89C5CC"/>
<path fill-rule="evenodd" clip-rule="evenodd" d="M145.638 64.3172C151.087 65.0302 149.392 71.2884 144.236 69.8389C142.44 69.3338 139.792 67.8744 140.785 66.1547C141.527 64.87 143.945 64.1948 145.638 64.3172ZM143.382 62.3713C139.839 62.8207 137.416 65.7095 138.631 68.2293C139.803 70.6603 144.249 72.4404 147.528 71.5668C150.658 70.7327 152.219 67.5957 151.164 65.3008C150.061 62.9031 146.469 61.9798 143.382 62.3713Z" fill="#89C5CC"/>
<path fill-rule="evenodd" clip-rule="evenodd" d="M176.526 65.0493C175.169 65.1341 173.997 65.8496 172.632 65.9763C171.355 66.0947 170.298 65.7658 169.102 65.5028C167.658 65.1851 166.333 65.0453 164.857 65.3276C163.729 65.5435 162.616 66.1217 161.444 66.1915C159.138 66.3286 156.458 64.3468 154.658 66.5883C153.795 67.6629 155.048 68.355 156.339 67.8539C157.685 67.3316 157.024 67.1445 158.693 67.4531C160.086 67.7103 161.212 67.8501 162.607 67.4895C163.871 67.163 164.98 66.5655 166.354 66.4983C167.699 66.4326 168.869 66.8941 170.154 67.0932C171.735 67.338 173.134 67.1528 174.632 66.7795C176.057 66.4244 176.626 66.2302 178.063 66.5469C178.974 66.7476 180.963 67.3848 181.849 66.8713C183.381 65.9834 181.33 65.8536 180.522 65.7274C179.221 65.5245 177.876 64.9661 176.526 65.0493Z" fill="#89C5CC"/>
<path fill-rule="evenodd" clip-rule="evenodd" d="M207.572 64.4527C207.583 64.4589 207.593 64.4652 207.604 64.4715C207.593 64.4652 207.582 64.4589 207.572 64.4527ZM206.24 64.243C208.221 64.339 210.362 67.0568 207.738 67.1532C205.891 67.2212 203.824 64.8413 206.24 64.243ZM205.962 62.019C199.699 63.3364 202.562 69.9874 208.603 69.2192C211.347 68.8702 212.277 66.4756 211.37 64.7031C210.98 63.9418 210.221 63.2999 209.313 62.8617C208.643 62.5386 206.727 61.8585 205.962 62.019Z" fill="#89C5CC"/>
<path fill-rule="evenodd" clip-rule="evenodd" d="M176.743 75.9039C182.254 75.7615 187.766 75.619 193.283 75.5805C196.272 75.5596 199.246 75.599 202.231 75.728C203.555 75.7852 204.879 75.8405 206.204 75.8826C206.432 75.8899 206.748 75.8782 207.096 75.8653C207.916 75.835 208.918 75.7979 209.389 75.9855C212.024 77.0358 206.655 77.1509 206.002 77.1426C204.541 77.1241 203.081 77.0697 201.621 77.0153C200.344 76.9678 199.068 76.9203 197.791 76.8967C189.596 76.745 181.351 77.0224 173.143 77.2985C171.261 77.3618 169.381 77.425 167.504 77.483C165.511 77.5446 163.519 77.5845 161.527 77.6244L161.527 77.6244L161.527 77.6244C158.679 77.6813 155.832 77.7383 152.984 77.8588C151.897 77.9048 150.81 77.9536 149.723 78.0023L149.723 78.0023L149.722 78.0023C148.165 78.0721 146.607 78.142 145.049 78.2038C143.83 78.2523 142.61 78.2992 141.388 78.3224C141.168 78.3266 140.882 78.3496 140.569 78.3748L140.569 78.3748C139.812 78.4356 138.9 78.5089 138.408 78.3573C137.816 78.1749 137.337 77.9198 137.663 77.3793C137.938 76.9224 138.939 76.9772 139.668 77.0171C139.867 77.028 140.046 77.0378 140.185 77.0358C142.516 77.0017 144.842 76.9031 147.17 76.7958C148.021 76.7565 148.872 76.7162 149.723 76.6759C154.153 76.466 158.58 76.2562 163.021 76.1992C167.597 76.1404 172.17 76.0222 176.743 75.9039ZM205.526 103.226L207.111 103.212C207.929 103.265 208.295 103.912 207.77 104.41C207.368 104.79 205.82 104.808 204.811 104.819H204.81C204.531 104.822 204.293 104.825 204.132 104.834C201.498 104.994 198.869 105.066 196.227 105.085C190.663 105.125 185.121 105.304 179.566 105.543C173.88 105.787 168.19 105.879 162.499 105.971H162.499C158.312 106.038 154.125 106.106 149.939 106.234C147.543 106.307 145.146 106.362 142.748 106.41C142.49 106.415 142.147 106.443 141.76 106.474C140.245 106.597 138.044 106.776 137.545 105.87C137.103 105.066 137.718 104.696 138.618 104.527C138.475 104.052 138.502 103.382 138.517 102.999C138.521 102.884 138.525 102.794 138.522 102.744C138.5 102.263 138.484 101.782 138.468 101.302C138.45 100.757 138.433 100.212 138.405 99.6677C138.38 99.1736 138.356 98.679 138.332 98.184C138.24 96.2321 138.147 94.2756 137.947 92.3315C137.855 91.4342 137.709 90.5475 137.563 89.6621C137.331 88.2487 137.099 86.839 137.088 85.396C137.086 85.1364 137.069 84.8118 137.049 84.4457C136.95 82.5722 136.792 79.6105 138.336 78.7085C141.058 77.512 140.52 80.9656 140.28 82.5068C140.24 82.7614 140.209 82.9637 140.201 83.0844C140.045 85.6474 140.257 88.0973 140.6 90.6441C140.831 92.364 140.696 94.0782 140.561 95.7952C140.512 96.4084 140.464 97.022 140.432 97.6363C140.417 97.9403 140.403 98.2441 140.389 98.5478C140.346 99.4826 140.303 100.417 140.21 101.35C140.2 101.451 140.196 101.645 140.192 101.893C140.18 102.591 140.16 103.717 139.962 104.401C140.384 104.387 140.794 104.39 141.132 104.393C141.348 104.395 141.535 104.396 141.678 104.393C142.328 104.378 142.978 104.364 143.627 104.35C145.547 104.307 147.466 104.265 149.385 104.211C153.916 104.082 158.448 104.039 162.979 103.996H162.98C168.332 103.946 173.685 103.895 179.035 103.704C187.852 103.388 196.699 103.307 205.526 103.226H205.526L205.526 103.226ZM207.162 78.1707C207.158 82.5609 207.608 86.8307 208.135 91.2033C208.46 93.908 208.721 96.6231 208.929 99.3346C208.939 99.4601 208.937 99.6696 208.936 99.9322C208.925 101.432 208.902 104.662 210.869 103.89C212.355 103.306 211.784 99.9222 211.468 98.0499L211.468 98.0497C211.399 97.6391 211.342 97.3011 211.321 97.0814C211.278 96.6132 211.236 96.1451 211.193 95.6771C210.995 93.5033 210.798 91.3313 210.537 89.16L210.482 88.7023L210.482 88.702C210.181 86.1944 209.88 83.6887 209.827 81.1693C209.822 80.961 209.849 80.6708 209.879 80.343L209.879 80.3429C209.966 79.3944 210.082 78.1315 209.559 77.6277C208.823 76.919 207.164 77.1285 207.162 78.1707Z" fill="#69A1AC"/>
<path fill-rule="evenodd" clip-rule="evenodd" d="M176.995 88.9333C184.035 86.5343 191.156 84.1073 198.476 82.3793C199.005 82.2546 199.339 82.6656 199.219 83.0104C199.096 83.3657 197.95 83.6689 197.191 83.8699C196.964 83.9301 196.771 83.9811 196.651 84.0216C195.628 84.3656 194.603 84.7053 193.578 85.0451C192.528 85.393 191.479 85.7409 190.432 86.0934C188.255 86.8261 186.076 87.5555 183.897 88.285C181.563 89.0662 179.229 89.8474 176.898 90.6326C176.81 90.6624 176.722 90.6921 176.633 90.7219C179.803 91.5704 182.954 92.4568 186.092 93.3701C187.165 93.6821 188.233 94.0006 189.302 94.3192C189.907 94.4994 190.511 94.6796 191.116 94.8586C191.313 94.9169 191.657 94.9958 192.069 95.0907C193.413 95.3998 195.492 95.878 195.645 96.3609C195.895 97.1477 193.025 96.3866 191.943 96.0994C191.799 96.0613 191.687 96.0316 191.617 96.0149C190.02 95.6302 188.441 95.2016 186.863 94.7732L186.645 94.7139C185.394 94.3745 184.145 94.0315 182.897 93.6885C180.457 93.0185 178.018 92.3485 175.566 91.7057C175.219 91.6148 174.872 91.5242 174.525 91.4339C170.589 92.7655 166.661 94.1099 162.746 95.4757C160.647 96.2081 158.559 96.9575 156.477 97.717C156.022 97.8828 155.459 98.139 154.848 98.4173C153.383 99.0844 151.638 99.8786 150.438 99.8589C149.795 99.8481 149.362 99.7442 149.294 99.1568C149.225 98.5506 150.258 98.2326 151 98.004C151.178 97.9493 151.339 97.8997 151.464 97.8525C153.69 97.0141 155.929 96.1968 158.175 95.3899C162.635 93.7874 167.137 92.2489 171.655 90.741C171.681 90.7323 171.707 90.7236 171.733 90.7149C169.227 90.0761 166.714 89.4526 164.196 88.8422C163.945 88.7813 163.429 88.6737 162.752 88.5323C159.551 87.8645 152.731 86.4417 153.035 85.6107C153.383 84.6602 159.776 86.3977 162.607 87.1669C163.137 87.311 163.543 87.4212 163.759 87.4732C167.143 88.2856 170.518 89.1209 173.875 89.9942C174.914 89.6428 175.954 89.2884 176.995 88.9333Z" fill="#89C5CC"/>
<path fill-rule="evenodd" clip-rule="evenodd" d="M146.834 109.812C148.894 110.084 150.348 111.573 150.122 113.133C149.816 115.239 147.029 116.205 144.453 115.93C141.531 115.618 140.917 113.757 142.333 111.967C142.646 111.571 143.006 111.097 143.576 110.888C143.968 110.745 144.467 110.872 144.782 110.756C145.888 110.351 145.223 109.705 146.834 109.812ZM145.896 108.436C143.381 108.678 138.736 110.87 138.971 113.062C139.175 113.317 139.482 113.421 139.891 113.375C139.793 113.85 139.825 114.319 139.988 114.784C140.226 115.388 140.703 115.883 141.341 116.276C142.656 117.085 144.454 117.284 146.091 117.142C149.148 116.877 151.558 115.303 151.729 112.908C151.897 110.57 149.188 108.123 145.896 108.436Z" fill="#89C5CC"/>
<path fill-rule="evenodd" clip-rule="evenodd" d="M158.074 111.289C156.945 111.74 155.161 112.432 154.499 113.287C153.8 114.19 154.524 115.179 155.997 114.751C157.166 114.412 157.909 113.334 159.156 112.989C160.256 112.684 160.7 112.839 161.863 113.143C163.061 113.456 164.109 113.758 165.404 113.681C167.033 113.585 168.443 112.873 170.036 112.712C171.378 112.575 172.485 112.969 173.77 113.125C175.261 113.307 176.236 112.882 177.631 112.66C178.58 112.51 180.252 113.122 180.944 112.893C182.5 112.378 180.854 111.748 179.993 111.539C178.541 111.189 177.648 111.498 176.268 111.789C174.769 112.105 174.122 111.867 172.69 111.577C169.791 110.991 167.552 112.409 164.805 112.151C162.262 111.913 160.74 110.226 158.074 111.289Z" fill="#89C5CC"/>
<path fill-rule="evenodd" clip-rule="evenodd" d="M205.465 110.241C208.255 112.211 205.121 115.015 202.045 113.44C200.963 112.886 200.945 111.996 201.788 111.199C202.558 110.471 204.251 110.187 205.465 110.241ZM204.431 108.649C201.825 109.031 199.367 109.932 199.131 112.198C198.9 114.409 201.911 115.435 204.44 115.29C210.118 114.965 209.707 107.881 204.431 108.649Z" fill="#89C5CC"/>
</g>
<path opacity="0.5" fill-rule="evenodd" clip-rule="evenodd" d="M266.169 35.2223C264.084 35.2526 258.936 35.8238 258.171 37.6815C257.59 39.0917 259.315 38.7821 260.24 38.269C261.492 37.5751 262.589 37.1598 264.139 36.9487C270.045 36.144 275.72 39.0297 281.57 39.3947C283.786 39.5329 286.46 39.623 288.575 39.0824C290.082 38.6975 290.278 37.8582 288.559 37.7304C287.098 37.6218 285.482 37.964 283.984 37.9543C277.787 37.9144 272.278 35.1345 266.169 35.2223Z" fill="#C1DEE2"/>
<g opacity="0.5">
<path fill-rule="evenodd" clip-rule="evenodd" d="M47.1168 123.447C43.1279 123.481 39.1411 123.592 35.1602 123.782C31.3744 123.962 27.2668 123.825 23.5428 124.378C22.4853 124.535 21.0569 125.261 22.4629 126.059C23.4512 126.621 27.0671 125.975 28.2473 125.92C32.5935 125.719 36.9419 125.478 41.2942 125.362C45.4145 125.252 49.5346 125.214 53.6569 125.183C54.2863 125.178 55.331 125.026 55.9578 125.164C56.8583 125.362 56.6447 125.415 56.7121 126.276C56.8344 127.837 56.8006 129.402 56.7595 130.964C56.7198 132.475 56.6456 133.986 56.6528 135.498C56.6579 136.576 56.2001 138.72 56.9187 139.656C57.9529 141.005 59.0257 139.54 59.103 138.644C59.2509 136.931 59.1846 135.196 59.1853 133.48C59.1857 131.87 59.2011 130.259 59.1258 128.649C59.0711 127.486 59.2918 125.457 58.4602 124.4C57.6132 123.323 55.5741 123.555 54.0861 123.504C51.765 123.423 49.4398 123.429 47.1168 123.447Z" fill="#89C5CC"/>
<path fill-rule="evenodd" clip-rule="evenodd" d="M21.7379 125.391C21.7423 128.417 21.2775 131.422 21.1473 134.445C21.0876 135.835 20.9664 137.361 21.4332 138.725C21.9043 140.102 23.4006 140.401 23.5729 138.863C23.9219 135.749 23.8363 132.52 24.1081 129.381C24.204 128.273 24.8284 126.242 24.2455 125.204C23.7323 124.29 21.7357 124.115 21.7379 125.391Z" fill="#89C5CC"/>
<path fill-rule="evenodd" clip-rule="evenodd" d="M59.1422 138.729C52.215 139.42 44.9732 139.168 37.9967 139.277C34.6495 139.329 31.303 139.332 27.9555 139.358C26.7871 139.367 23.8202 139.033 22.8095 139.527C21.2006 140.315 22.9463 140.923 24.0114 140.94C30.6177 141.049 37.2975 140.82 43.9024 140.657C46.87 140.584 49.8472 140.548 52.8069 140.358C54.6289 140.241 56.6201 140.128 58.3894 139.759C58.7664 139.68 59.5872 139.696 59.6717 139.309C59.7237 139.069 59.6293 138.678 59.1422 138.729Z" fill="#89C5CC"/>
<path fill-rule="evenodd" clip-rule="evenodd" d="M30.3368 143.128C28.4116 143.136 22.6099 142.463 21.8126 143.877C20.7496 145.763 24.8963 145.323 26.0115 145.301C28.5444 145.252 31.0755 145.247 33.6091 145.248C36.095 145.248 38.5807 145.236 41.0662 145.192C41.7863 145.179 43.4624 145.404 43.8766 144.751C44.1914 144.254 43.9427 143.863 43.3621 143.6C41.965 142.967 38.3355 143.334 36.6998 143.277C34.5821 143.204 32.4572 143.128 30.3368 143.128Z" fill="#89C5CC"/>
<path fill-rule="evenodd" clip-rule="evenodd" d="M53.7588 143.477C52.6586 143.526 50.433 143.185 49.4473 143.564C48.3271 143.995 48.7218 144.67 49.689 144.967C50.3588 145.172 53.1064 145.064 53.7588 144.826C54.4389 144.578 55.2079 143.41 53.7588 143.477Z" fill="#89C5CC"/>
<path fill-rule="evenodd" clip-rule="evenodd" d="M65.8215 125.687C64.6464 125.93 65.0029 130.956 64.9726 131.752C64.8897 133.935 64.5639 136.68 65.5267 138.783C66.1407 140.123 67.32 139.941 67.1192 138.53C66.9427 137.292 66.6399 136.068 66.5089 134.821C66.2125 132.001 65.8093 128.993 66.0892 126.17C66.2084 126.334 67.3231 127.856 67.5854 127.742C67.5062 127.778 66.2997 125.592 65.8215 125.687Z" fill="#89C5CC"/>
<path fill-rule="evenodd" clip-rule="evenodd" d="M79.0403 123.837C76.6621 123.863 74.284 123.895 71.9065 123.944C70.0162 123.984 67.0457 123.75 65.3121 124.349C63.2479 125.062 64.2272 126.651 66.1661 126.685C67.8812 126.715 69.7104 126.423 71.4411 126.379C76.1159 126.258 80.7991 126.232 85.4762 126.202C89.706 126.175 94.1157 126.515 98.3084 126.036C98.9303 130.196 97.2483 134.373 97.8204 138.581C97.9091 139.234 97.8694 140.157 98.9734 140.305C100.367 140.493 100.424 139.454 100.477 138.709C100.628 136.584 100.546 134.457 100.753 132.328C100.944 130.356 101.321 128.34 101.002 126.365C100.611 123.934 99.0645 124.129 96.3309 124.028C90.5576 123.815 84.82 123.773 79.0403 123.837Z" fill="#89C5CC"/>
<path fill-rule="evenodd" clip-rule="evenodd" d="M71.0703 138.607C69.8585 138.63 67.8459 138.349 67.0694 139.224C66.2616 140.135 67.22 140.929 68.3947 141.116C69.7852 141.338 71.5983 141.034 73.0415 141.031C74.5444 141.028 76.0477 141.04 77.5506 141.045C83.9939 141.064 90.4649 141.137 96.9037 140.937C97.8029 140.909 100.355 141.136 100.977 140.486C101.53 139.91 101.143 139.393 100.416 139.099C99.2225 138.618 96.7715 138.801 95.4443 138.763C93.805 138.716 92.1639 138.7 90.5238 138.681C84.0503 138.606 77.5431 138.487 71.0703 138.607Z" fill="#89C5CC"/>
<path fill-rule="evenodd" clip-rule="evenodd" d="M76.5209 142.818C74.1096 142.848 71.5369 142.769 69.1496 143.044C67.0505 143.286 66.7921 144.815 69.0517 144.994C71.1282 145.158 73.6457 144.851 75.7323 144.75C76.4735 144.714 77.3353 144.765 77.6905 144.148C78.0613 143.503 77.3525 142.885 76.5209 142.818Z" fill="#89C5CC"/>
<path fill-rule="evenodd" clip-rule="evenodd" d="M94.7499 142.978C93.4628 143.002 89.7036 142.585 89.0661 143.693C88.0049 145.536 93.094 144.836 94.0703 144.809C95.3007 144.775 100.096 145.316 100.097 143.84C100.098 142.393 95.9283 142.956 94.7499 142.978Z" fill="#89C5CC"/>
<path fill-rule="evenodd" clip-rule="evenodd" d="M21.5298 152.139C21.5329 155.492 21.2559 158.877 21.662 162.222C21.8299 163.606 21.8012 166.256 22.865 167.429C23.6202 168.262 24.6675 168.203 25.08 167.204C25.3558 166.535 24.9147 165.199 24.8656 164.484C24.8181 163.798 24.7628 163.112 24.7207 162.426C24.6124 160.658 24.621 158.892 24.6533 157.123C24.6809 155.606 25.1659 153.598 24.7086 152.139C24.2823 150.779 21.5298 150.461 21.5298 152.139Z" fill="#69A1AC"/>
<path fill-rule="evenodd" clip-rule="evenodd" d="M66.2733 149.188C58.5492 149.334 50.8078 149.204 43.0905 149.492C39.2846 149.634 35.4936 149.946 31.7067 150.257C29.8462 150.41 27.9868 150.567 26.1296 150.74C25.5692 150.792 20.9121 150.928 22.6637 152.262C23.4286 152.844 25.8625 152.236 26.8255 152.15C28.6902 151.984 30.5586 151.839 32.4259 151.691C35.9792 151.408 39.5368 151.139 43.1053 150.991C51.5094 150.64 59.9483 150.745 68.3608 150.511C70.6364 150.448 72.9052 150.403 75.1817 150.47C75.7795 150.488 80.1723 150.656 78.265 149.434C77.3632 148.856 73.9629 149.154 72.8359 149.137C70.6485 149.103 68.4598 149.147 66.2733 149.188Z" fill="#69A1AC"/>
<path fill-rule="evenodd" clip-rule="evenodd" d="M76.803 154.839C76.7648 153.289 76.7266 151.739 76.633 150.191C76.5344 148.561 79.4827 148.314 80.357 149.634C80.9865 150.584 80.8758 152.2 80.7809 153.586C80.7427 154.144 80.707 154.665 80.7234 155.09C80.761 156.063 80.856 157.069 80.9523 158.089C81.1946 160.655 81.4449 163.305 80.8082 165.727C80.4987 166.904 79.1806 167.523 78.3033 166.881C78.3021 166.883 78.3009 166.884 78.2996 166.885C77.9697 167.252 76.9424 167.251 76.1859 167.25C75.9776 167.25 75.7898 167.25 75.6427 167.257C73.5701 167.364 71.536 167.543 69.4819 167.775C65.389 168.237 61.3317 168.521 57.1945 168.598C54.3874 168.65 51.5762 168.668 48.7644 168.685C43.38 168.719 37.9929 168.753 32.6256 169.03C30.8161 169.124 29.0339 169.284 27.254 169.541C27.1025 169.563 26.9342 169.591 26.7551 169.621C25.4317 169.843 23.5157 170.164 23.3848 168.77C23.2292 167.117 27.9869 166.9 30.4353 166.789C30.8091 166.772 31.129 166.757 31.3695 166.74C38.8036 166.219 46.3543 166.3 53.82 166.38C54.1817 166.384 54.5433 166.388 54.9046 166.391C55.4872 166.397 56.0697 166.405 56.652 166.412C59.8485 166.451 63.0411 166.491 66.2366 166.344C67.6908 166.277 69.1639 166.242 70.6398 166.208C72.9944 166.153 75.356 166.098 77.6588 165.91C77.3115 164.896 77.2508 163.698 77.1935 162.57C77.1712 162.131 77.1495 161.702 77.1115 161.298C76.9093 159.148 76.8561 156.993 76.803 154.839Z" fill="#69A1AC"/>
<path fill-rule="evenodd" clip-rule="evenodd" d="M83.0543 151.386C82.0109 151.493 81.1405 152.165 81.6063 153.019C82.1931 154.093 83.9408 153.673 85.0953 153.605C88.7649 153.389 92.5963 153.821 96.2216 153.495C97.2117 153.406 98.648 152.999 97.7592 151.997C97.0909 151.244 94.6564 151.376 93.6215 151.304C90.0821 151.057 86.5892 151.123 83.0543 151.386Z" fill="#C1DEE2"/>
<path fill-rule="evenodd" clip-rule="evenodd" d="M89.2478 156.073C87.8246 156.145 84.5117 156.088 83.912 157.308C82.8363 159.496 87.0499 158.725 88.3328 158.601C89.8232 158.456 93.3365 158.843 94.1301 157.754C95.5491 155.808 90.4958 156.008 89.2478 156.073Z" fill="#C1DEE2"/>
<path fill-rule="evenodd" clip-rule="evenodd" d="M85.5882 160.875C84.9132 161.384 84.9121 162.292 85.5882 162.801C86.4161 163.424 88.2197 163.295 89.3075 163.34C90.8246 163.404 95.182 164.008 95.9355 162.663C96.9519 160.847 93.0061 160.885 91.7082 160.782C90.2082 160.663 86.8314 159.938 85.5882 160.875Z" fill="#C1DEE2"/>
<path fill-rule="evenodd" clip-rule="evenodd" d="M32.4045 129.795C32.4045 131.747 36.452 131.747 36.452 129.795C36.452 127.853 32.4045 127.824 32.4045 129.795Z" fill="#89C5CC"/>
<path fill-rule="evenodd" clip-rule="evenodd" d="M40.0818 129.817C40.0818 132.049 44.6919 132.044 44.6919 129.817C44.6919 127.593 40.0818 127.57 40.0818 129.817Z" fill="#89C5CC"/>
<path fill-rule="evenodd" clip-rule="evenodd" d="M35.4374 132.784C33.1965 133.25 35.2609 134.681 36.3015 135.008C37.9552 135.527 40.2122 135.91 41.8663 135.131C42.5244 134.821 43.0588 134.41 42.5765 133.808C42.0626 133.168 41.359 133.453 40.5766 133.512C39.5854 133.587 38.7844 133.575 37.8272 133.336C37.1129 133.157 36.2165 132.623 35.4374 132.784Z" fill="#89C5CC"/>
<path fill-rule="evenodd" clip-rule="evenodd" d="M76.0854 129.918C76.0854 131.239 78.8072 131.239 78.8072 129.918C78.8072 128.598 76.0854 128.598 76.0854 129.918Z" fill="#89C5CC"/>
<path fill-rule="evenodd" clip-rule="evenodd" d="M82.1047 130.117C82.1047 131.584 85.1283 131.584 85.1283 130.117C85.1283 128.65 82.1047 128.65 82.1047 130.117Z" fill="#89C5CC"/>
<path fill-rule="evenodd" clip-rule="evenodd" d="M81.8808 133.301C80.2926 133.455 75.6989 133.806 75.4419 135.281C75.0454 137.556 80.0787 135.714 81.2275 135.536C82.6907 135.308 83.9973 135.368 85.458 135.412C86.26 135.436 87.3267 135.534 87.2426 134.614C87.1047 133.102 83.2691 133.167 81.8808 133.301Z" fill="#89C5CC"/>
<path fill-rule="evenodd" clip-rule="evenodd" d="M41.9476 154.283C40.7964 154.514 39.2904 156.013 40.0825 156.93C41.3812 158.435 41.9539 156.125 42.4975 155.902C43.4864 155.498 44.2893 156.976 45.3228 156.201C46.9537 154.977 42.9743 154.075 41.9476 154.283Z" fill="#69A1AC"/>
<path fill-rule="evenodd" clip-rule="evenodd" d="M55.1383 153.17C53.7731 153.18 50.8909 154.636 50.6868 155.711C50.5656 156.349 51.1278 156.963 52.0419 156.972C53.2866 156.983 53.6822 155.764 54.7612 155.509C55.9251 155.234 55.7524 155.867 56.7576 156.196C57.4932 156.436 58.4133 156.335 58.6688 155.654C59.1509 154.369 56.5411 153.15 55.1383 153.17Z" fill="#69A1AC"/>
<path fill-rule="evenodd" clip-rule="evenodd" d="M44.688 159.326C42.5043 160.29 46.0973 162.356 47.3429 162.614C49.2234 163.004 53.008 162.276 53.4537 160.546C53.6311 159.857 53.0592 159.233 52.0502 159.357C51.2196 159.458 50.6868 160.243 49.9173 160.524C48.8787 160.904 47.9554 160.878 47.0729 160.307C46.3539 159.841 45.9689 158.763 44.688 159.326Z" fill="#69A1AC"/>
<path fill-rule="evenodd" clip-rule="evenodd" d="M46.2706 173.568C44.3197 173.881 42.3365 173.671 40.3761 173.966C38.3771 174.266 37.1824 174.835 35.3252 174.262C35.2379 174.234 35.1507 174.207 35.0635 174.179C33.6261 173.713 32.1195 173.574 30.6148 174.318C29.7244 174.758 27.0214 176.279 27.3472 177.207C28.0532 179.22 31.0947 176.064 31.8703 175.756C33.3493 175.17 34.3633 175.919 35.8859 176.131C37.7097 176.384 39.1773 175.658 40.8953 175.369C42.9046 175.031 45.1651 174.913 47.2093 174.732C48.017 174.66 51.0761 175.142 51.3523 174.384C51.8267 173.084 47.0375 173.445 46.2706 173.568Z" fill="#C1DEE2"/>
<path fill-rule="evenodd" clip-rule="evenodd" d="M60.3463 177.621C60.4739 177.694 60.3716 177.636 60.3463 177.621V177.621ZM65.8104 173.489C67.4805 173.362 72.8243 172.463 73.9215 173.763C74.636 174.61 73.502 177.735 72.4201 178.139C71.5554 178.462 69.5412 178.105 68.5924 178.08C66.827 178.033 65.0578 178.012 63.2944 177.929C62.7029 177.902 60.7999 177.983 60.3362 177.589C59.7887 177.124 59.8131 174.642 59.6842 174.026C61.2198 174.4 64.2047 173.612 65.8104 173.489ZM69.3768 172.215C67.2377 172.285 65.0991 172.406 62.9761 172.622C61.7926 172.742 60.5935 173.063 59.5005 173.214C59.1482 173.263 58.5763 173.128 58.1443 173.285C56.8818 173.744 57.9873 176.851 58.2918 177.68C58.7594 178.955 59.9363 179.162 61.5851 179.282C63.7571 179.44 65.9737 179.391 68.1525 179.37C70.2527 179.351 73.0846 179.702 74.2631 178.114C75.0248 177.088 75.8419 174.698 75.1908 173.554C74.3342 172.049 71.1359 172.159 69.3768 172.215Z" fill="#C1DEE2"/>
<path fill-rule="evenodd" clip-rule="evenodd" d="M93.3304 178.475C93.2161 178.586 93.2161 178.586 93.3304 178.475V178.475ZM93.7991 178.05C93.7638 178.09 93.5995 178.22 93.7991 178.05V178.05ZM88.6979 177.933C89.6408 177.799 90.5841 177.667 91.5281 177.537C90.6341 178.48 89.6928 178.09 88.1658 178.008C88.3431 177.983 88.5205 177.958 88.6979 177.933ZM84.1995 177.599C84.4385 177.539 84.6774 177.479 84.9164 177.419C84.9092 177.555 84.9483 177.683 85.0337 177.802C84.6245 177.769 84.2157 177.734 83.8074 177.696C83.938 177.663 84.0688 177.631 84.1995 177.599ZM82.1149 176.439C82.1015 176.193 82.5952 176.362 82.8782 176.345C82.3326 176.706 82.0782 176.738 82.1149 176.439ZM89.57 173.634C89.6416 173.566 89.7366 173.569 89.8547 173.645C89.7258 173.677 89.2293 173.836 89.57 173.634ZM94.405 173.206C94.4178 173.206 94.686 173.478 94.405 173.206V173.206ZM94.2693 173.117C94.3396 173.157 94.3396 173.157 94.2693 173.117V173.117ZM93.6659 173.064C94.6531 173.189 94.5781 174.062 93.6659 173.064V173.064ZM82.0518 173.004C81.8509 173.129 81.9196 173.008 82.0518 173.004V173.004ZM85.8323 171.144C84.154 171.217 81.0734 171.143 79.6717 171.817C77.8426 172.696 78.805 175.723 78.9687 177.049C79.2107 179.011 80.4356 179.569 82.8875 179.775C85.8136 180.02 88.8201 180.066 91.7613 180.008C94.4101 179.956 95.9187 179.269 96.4039 177.168C96.5525 176.526 96.9296 175.531 96.9178 174.916C96.9096 174.489 96.6271 174.294 96.5202 173.931C95.9119 171.863 94.8946 171.618 92.0814 171.528C90.0108 171.461 87.864 171.064 85.8323 171.144Z" fill="#89C5CC"/>
</g>
<g opacity="0.5">
<path fill-rule="evenodd" clip-rule="evenodd" d="M174.734 123.644C179.001 123.712 183.842 125.491 183.168 129.26C182.673 132.021 179.5 134.262 175.825 134.455C171.875 134.663 167.699 132.379 167.163 129.35C166.559 125.942 170.562 123.576 174.734 123.644ZM172.642 122.11C170.912 122.304 169.259 122.989 167.736 123.602C167.154 123.836 164.206 125.263 166.518 125.617C160.948 132.385 174.058 138.671 181.429 134.272C184.738 132.297 186.481 128.552 184.341 125.621C182.129 122.59 176.881 121.63 172.642 122.11Z" fill="#89C5CC"/>
<path fill-rule="evenodd" clip-rule="evenodd" d="M171.622 127.87C171.622 129.134 174.226 129.134 174.226 127.87C174.226 126.606 171.622 126.606 171.622 127.87Z" fill="#89C5CC"/>
<path fill-rule="evenodd" clip-rule="evenodd" d="M176.451 128.072C176.451 129.443 179.274 129.443 179.274 128.072C179.274 126.702 176.451 126.702 176.451 128.072Z" fill="#89C5CC"/>
<path fill-rule="evenodd" clip-rule="evenodd" d="M173.192 130.782C172.812 131.822 177.145 132.355 177.289 131.152C177.358 130.577 173.456 130.057 173.192 130.782Z" fill="#89C5CC"/>
<path fill-rule="evenodd" clip-rule="evenodd" d="M185.893 130.14C190.879 129.689 196.019 129.898 201.029 130.006C202.282 130.033 203.536 130.059 204.79 130.075C205.587 130.085 207.309 130.373 208.004 130.092C210.853 128.941 205.265 128.385 204.473 128.332C199.49 128.023 191.8 127.913 186.802 128.059C185.324 128.102 185.005 130.22 185.893 130.14Z" fill="#89C5CC"/>
<path fill-rule="evenodd" clip-rule="evenodd" d="M208.327 148.809C208.37 144.874 208.557 140.913 208.959 136.99C209.123 135.391 209.319 133.794 209.481 132.194C209.558 131.441 209.913 130.386 209.326 129.725C208.72 129.044 207.391 128.903 206.591 129.506C205.632 130.441 205.911 132.009 205.792 133.14C205.608 134.878 205.387 136.615 205.277 138.357C205.064 141.728 205.015 145.158 205.374 148.525C205.544 150.114 205.912 151.664 206.402 153.213C206.625 153.919 208.4 157.061 208.027 157.494C207.449 158.166 203.175 157.912 202.248 157.93C199.87 157.979 197.49 158.01 195.111 158.044C193.074 158.073 191.037 158.094 189 158.108C188.191 158.113 183.438 158.005 184.492 158.908C172.703 159.527 160.687 158.494 148.97 158.14C148.378 158.122 147.409 157.995 146.515 157.959C146.408 157.633 146.32 157.343 146.299 157.141C146.145 155.722 146.104 154.299 145.937 152.88C145.632 150.286 145.04 147.717 144.687 145.127C144.336 142.539 144.371 139.943 144.166 137.349C144.131 136.905 144.048 133.264 142.828 132.379C143.407 132.544 144.339 132.566 144.876 132.533C149.223 132.269 153.538 131.7 157.847 131.212C159.08 131.072 161.878 131.171 162.901 130.707C163.786 130.305 164.136 128.896 162.597 129.01C158.299 129.357 154.025 129.895 149.762 130.425C148.622 130.566 147.484 130.718 146.347 130.873C145.587 130.976 143.583 130.968 142.994 131.313C142.278 131.732 142.202 132.017 142.445 132.206C142.108 132.136 141.704 132.246 141.218 132.612C140.301 133.511 141.163 135.726 141.273 136.781C141.404 138.046 141.469 139.313 141.545 140.581C141.693 143.033 142.034 145.452 142.558 147.875C143.145 150.589 143.644 153.315 144.233 156.029C144.386 156.735 144.585 157.424 144.84 158.107C143.255 158.718 144.333 159.689 145.59 159.862C145.599 159.863 145.609 159.864 145.618 159.865C146.01 160.585 146.558 161.252 146.986 160.287C147.019 160.213 147.034 160.122 147.038 160.02C150.286 160.297 153.856 160.125 157.053 160.223C163.98 160.436 170.949 160.756 177.882 160.594C180.627 160.53 183.38 160.346 186.101 160.07C187.696 159.909 189.297 159.716 190.866 159.448C190.978 159.429 191.149 159.409 191.347 159.384C191.379 159.384 191.411 159.383 191.442 159.383C193.845 159.355 196.245 159.307 198.646 159.232C200.661 159.169 202.685 159.136 204.694 158.993C205.942 158.904 208.578 158.921 209.344 157.975C210.041 157.116 208.876 154.902 208.711 153.937C208.42 152.237 208.309 150.522 208.327 148.809Z" fill="#C1DEE2"/>
<path fill-rule="evenodd" clip-rule="evenodd" d="M183.978 137.447C182.059 137.571 180.283 138.25 178.346 138.259C176.72 138.266 175.118 137.9 173.483 137.954C171.565 138.017 170.51 138.951 168.829 139.264C167.492 139.513 166.649 138.741 165.473 138.4C163.987 137.969 162.89 138.192 161.616 138.843C160.681 139.322 158.499 140.397 158.516 141.365C158.566 144.299 163.11 140.246 164.026 140.197C165.243 140.132 166.603 141.177 167.898 141.237C169.61 141.316 170.708 140.484 172.285 140.181C173.879 139.875 175.602 140.25 177.201 140.367C179.025 140.5 180.62 140.193 182.385 139.865C184.094 139.548 185.551 139.565 187.289 139.831C188.461 140.012 191.382 141.059 191.895 139.712C192.594 137.879 185.321 137.361 183.978 137.447Z" fill="#89C5CC"/>
<path fill-rule="evenodd" clip-rule="evenodd" d="M184.563 143.043C180.629 143.331 176.671 143.583 172.719 143.664C171.008 143.699 164.428 143.146 165.012 144.784C165.512 146.189 174.466 145.305 176.289 145.198C178.303 145.08 180.313 144.915 182.316 144.724C183.026 144.657 184.741 144.727 185.242 144.278C185.72 143.85 185.484 142.974 184.563 143.043Z" fill="#89C5CC"/>
<path fill-rule="evenodd" clip-rule="evenodd" d="M157.425 150.504C157.335 150.532 157.335 150.532 157.425 150.504V150.504ZM158.255 150.496C159.235 150.472 159.025 150.083 160.004 150.286C160.455 150.379 160.501 150.24 160.851 150.565C161.533 151.199 160.891 152.579 160.218 153.09C157.727 154.981 154.737 150.58 158.255 150.496ZM158.255 148.64C151.435 148.813 154.288 156.749 160.224 155.129C162.675 154.46 164.216 151.446 162.774 149.752C162.073 148.928 161.179 148.781 160.004 148.724C159.731 148.711 159.387 149.01 159.217 148.996C158.813 148.964 158.85 148.624 158.255 148.64Z" fill="#89C5CC"/>
<path fill-rule="evenodd" clip-rule="evenodd" d="M174.563 150.776C174.441 150.748 176.716 151.246 176.467 151.051C176.999 151.467 176.284 152.451 175.684 152.623C174.228 153.039 173.412 151.335 174.563 150.776ZM175.572 148.624C173.437 148.852 171.789 149.522 171.497 151.311C171.228 152.962 172.709 154.634 175.045 154.666C180.136 154.736 180.292 148.128 175.572 148.624Z" fill="#89C5CC"/>
<path fill-rule="evenodd" clip-rule="evenodd" d="M198.816 150.848C199.115 153.78 195.079 151.097 198.816 150.848V150.848ZM197.084 147.712C196.731 148.166 197.032 148.648 197.565 148.913C192.804 149.671 193.883 155.067 198.727 154.27C201.19 153.864 201.643 151.913 201.276 150.302C201.102 149.536 198.567 145.802 197.084 147.712Z" fill="#89C5CC"/>
</g>
<path opacity="0.5" fill-rule="evenodd" clip-rule="evenodd" d="M208.347 150.527C206.928 150.717 203.573 151.898 203.602 153.166C203.648 155.145 206.499 152.983 207.133 152.693C210.54 151.131 214.953 153.155 218.501 153.585C220.127 153.783 223.309 154.148 224.746 153.326C227.301 151.866 221.392 152.232 220.64 152.173C216.549 151.855 212.48 149.971 208.347 150.527Z" fill="#C1DEE2"/>
<g opacity="0.5">
<path fill-rule="evenodd" clip-rule="evenodd" d="M275.377 136.611C275.376 138.636 275.24 140.703 275.735 142.704C275.885 143.31 276.004 144.47 276.852 144.785C277.704 145.1 278.53 144.746 278.742 144.088C278.989 143.322 278.447 142.176 278.392 141.372C278.317 140.274 278.312 139.175 278.311 138.076C278.311 137.282 278.658 136.005 277.414 135.596C276.488 135.293 275.377 135.857 275.377 136.611Z" fill="#C1DEE2"/>
<path fill-rule="evenodd" clip-rule="evenodd" d="M317.881 133.407C308.974 134.081 299.938 134.221 290.998 134.572C286.865 134.735 281.871 134.527 277.978 135.732C277.255 135.956 274.666 137.202 276.768 137.709C277.423 137.867 278.089 137.335 278.627 137.157C279.523 136.861 280.56 136.769 281.515 136.653C289.639 135.671 298.136 135.842 306.342 135.382C308.445 135.265 310.549 135.144 312.648 134.988C314.147 134.877 317.298 134.063 318.682 134.479C321.046 135.191 320.991 139.813 321.038 141.403C321.062 142.225 320.002 145.176 322.108 144.877C323.794 144.638 323.183 141.572 323.052 140.733C322.708 138.535 322.12 133.084 317.881 133.407Z" fill="#C1DEE2"/>
<path fill-rule="evenodd" clip-rule="evenodd" d="M321.166 144.77C313.429 145.297 305.513 144.78 297.744 144.987C293.672 145.096 289.604 145.269 285.531 145.37C283.769 145.414 282.006 145.416 280.244 145.425C279.401 145.43 275.565 145.815 277.938 147.073C278.989 147.631 282.337 147.182 283.543 147.171C285.353 147.155 287.163 147.098 288.973 147.045C293.164 146.921 297.353 146.75 301.547 146.665C305.559 146.583 309.572 146.566 313.584 146.484C315.58 146.443 317.603 146.397 319.581 146.177C320.027 146.128 321.477 146.088 321.787 145.713C322.08 145.359 321.875 144.719 321.166 144.77Z" fill="#89C5CC"/>
<path fill-rule="evenodd" clip-rule="evenodd" d="M283.139 140.394C283.097 140.468 283.097 140.468 283.139 140.394V140.394ZM286.489 139.627C286.612 139.666 286.612 139.666 286.489 139.627V139.627ZM286.333 139.606C288.138 140.993 285.361 142.647 283.67 141.294C281.875 139.858 285.17 139.611 286.333 139.606ZM284.418 137.509C278.198 138.342 280.4 144.586 286.209 143.684C288.759 143.288 290.218 141.353 289.34 139.494C288.997 138.767 288.25 137.97 287.209 137.741C286.69 137.627 286.23 137.807 285.736 137.765C285.264 137.725 285.003 137.429 284.418 137.509Z" fill="#C1DEE2"/>
<path fill-rule="evenodd" clip-rule="evenodd" d="M308.22 139.266C304.47 139.275 300.718 139.395 296.969 139.449C295.818 139.465 292.862 139.077 292.857 140.443C292.852 141.903 296.145 141.364 297.241 141.344C300.961 141.277 304.69 141.154 308.395 140.887C309.331 140.82 312.571 140.936 312.567 139.978C312.564 138.962 308.976 139.266 308.22 139.266Z" fill="#C1DEE2"/>
<path fill-rule="evenodd" clip-rule="evenodd" d="M317.178 148.792C307.902 148.98 298.641 149.045 289.372 149.403C285.906 149.536 282.443 149.636 278.972 149.636C278.303 149.636 276.957 149.441 276.327 149.758C274.619 150.618 276.564 151.357 277.677 151.403C285.291 151.722 293.015 150.929 300.625 150.751C305.08 150.646 309.536 150.615 313.988 150.444C315.203 150.398 316.418 150.344 317.63 150.273C318.327 150.232 320.172 150.344 320.735 150.036C323.196 148.695 318.008 148.775 317.178 148.792Z" fill="#89C5CC"/>
<path fill-rule="evenodd" clip-rule="evenodd" d="M274.619 152.209C274.532 154.02 274.523 155.8 274.838 157.602C274.961 158.311 275.018 159.115 276.121 159.295C277.123 159.459 277.631 158.888 277.839 158.255C278.345 156.71 277.9 154.486 277.894 152.88C277.891 152.086 277.89 151.198 276.588 151.019C275.594 150.882 274.657 151.422 274.619 152.209Z" fill="#89C5CC"/>
<path fill-rule="evenodd" clip-rule="evenodd" d="M327.01 156.576C311.995 157.172 296.999 157.692 281.973 158.171C280.802 158.208 271.698 158.134 274.881 160.525C275.864 161.264 278.396 160.763 279.668 160.716C281.578 160.646 283.489 160.592 285.4 160.518C292.974 160.228 300.568 160.15 308.137 159.824C312.302 159.644 316.457 159.364 320.601 158.998C322.572 158.825 325.018 158.843 326.864 158.261C327.813 157.961 328.838 156.503 327.01 156.576Z" fill="#89C5CC"/>
<path fill-rule="evenodd" clip-rule="evenodd" d="M318.377 147.386C317.235 148.243 317.822 149.933 317.908 150.992C318.026 152.449 318.17 153.907 318.412 155.356C318.569 156.297 318.486 157.763 319.153 158.576C319.933 159.528 321.652 159.423 322.358 158.503C322.982 157.689 322.666 155.977 322.65 155.075C322.628 153.829 322.525 152.58 322.426 151.336C322.344 150.296 322.657 148.629 321.898 147.739C321.126 146.835 319.447 146.585 318.377 147.386Z" fill="#89C5CC"/>
<path fill-rule="evenodd" clip-rule="evenodd" d="M284.056 154.034C283.922 154.112 283.922 154.112 284.056 154.034V154.034ZM286.723 153.783C289.212 154.16 285.188 156.348 283.916 154.846C283.718 154.612 283.614 154.323 283.933 154.119C284.224 153.933 284.407 154.263 284.682 154.174C285.156 154.021 286.218 153.769 286.723 153.783ZM286.38 151.986C284.681 152.087 282.345 152.166 281.504 153.449C280.374 155.172 282.307 156.86 284.542 157.122C286.693 157.374 289.904 156.477 290.076 154.587C290.215 153.064 288.291 151.869 286.38 151.986Z" fill="#89C5CC"/>
<path fill-rule="evenodd" clip-rule="evenodd" d="M300.564 152.897C298.806 152.918 295.349 152.527 293.816 153.172C292.3 153.811 292.976 154.949 294.359 155.222C295.274 155.401 296.768 155.111 297.72 155.082C298.972 155.044 300.225 155.035 301.478 155.022C303.585 155.001 305.691 155.019 307.799 155.019C309.951 155.019 312.14 155.063 314.289 154.944C317.007 154.793 316.934 153.26 314.276 153.068C309.759 152.743 305.096 152.843 300.564 152.897Z" fill="#89C5CC"/>
<path fill-rule="evenodd" clip-rule="evenodd" d="M296.072 170.071C296.072 170.799 296.93 170.071 296.924 170.071C296.93 170.071 296.072 169.342 296.072 170.071Z" fill="#89C5CC"/>
<path fill-rule="evenodd" clip-rule="evenodd" d="M276.661 164.206C276.716 166.324 276.752 168.443 276.872 170.559C276.91 171.229 276.656 172.535 277.733 172.876C278.931 173.256 279.304 172.309 279.442 171.668C279.879 169.636 279.45 167.317 279.408 165.261C279.394 164.571 279.592 163.61 278.552 163.265C277.703 162.985 276.643 163.506 276.661 164.206Z" fill="#89C5CC"/>
<path fill-rule="evenodd" clip-rule="evenodd" d="M322.892 164.239C322.963 164.365 322.963 164.365 322.892 164.239V164.239ZM322.992 164.217C323.049 164.236 323.282 164.309 322.992 164.217V164.217ZM300.281 162.506C295.966 162.557 291.647 162.596 287.334 162.735C285.493 162.794 283.631 162.842 281.797 162.973C280.498 163.066 277.27 163.104 276.427 163.904C274.688 165.555 278.376 165.105 279.17 164.971C280.616 164.726 282.091 164.648 283.568 164.59C286.773 164.462 289.978 164.394 293.186 164.346C301.887 164.214 310.593 164.234 319.295 164.204C320.138 164.201 321.66 163.946 322.438 164.203C323.218 164.46 323.174 165.093 323.255 165.827C323.363 166.804 322.507 168.667 323.159 169.489C324.17 170.764 325.641 169.681 325.866 168.751C326.176 167.467 325.684 165.925 325.202 164.697C324.522 162.965 323.578 162.896 321.354 162.76C318.755 162.602 316.166 162.506 313.558 162.488C309.134 162.458 304.706 162.454 300.281 162.506Z" fill="#89C5CC"/>
<path fill-rule="evenodd" clip-rule="evenodd" d="M317.351 171.26C307.99 172.079 298.363 171.596 288.953 171.625C286.664 171.632 284.374 171.646 282.087 171.73C280.88 171.774 278.017 171.523 277.19 172.225C275.446 173.704 278.588 173.919 279.734 173.858C282.053 173.734 284.377 173.677 286.702 173.663C294.89 173.616 303.124 173.904 311.305 173.599C314.733 173.472 318.084 173.03 321.448 172.537C322.193 172.427 327.295 171.697 324.386 170.821C322.666 170.304 319.157 171.101 317.351 171.26Z" fill="#89C5CC"/>
<path fill-rule="evenodd" clip-rule="evenodd" d="M290.02 168.552C289.955 168.615 289.955 168.615 290.02 168.552V168.552ZM289.957 168.541C289.935 168.586 289.866 168.698 289.957 168.541V168.541ZM289.367 167.967C289.381 167.981 289.436 168.034 289.367 167.967V167.967ZM289.344 167.963C289.57 168.166 289.721 168.392 289.799 168.641C287.86 169.037 287.113 167.855 289.344 167.963ZM289.222 167.908C289.222 167.908 289.495 167.994 289.222 167.908V167.908ZM286.036 166.147C284.78 167.325 283.744 168.697 285.309 170.042C286.708 171.244 289.524 171.399 291.3 170.597C293.129 169.769 292.971 168.028 291.695 166.891C290.873 166.159 290.207 166.18 289.015 166.06C288.203 165.979 286.724 165.503 286.036 166.147Z" fill="#89C5CC"/>
<path fill-rule="evenodd" clip-rule="evenodd" d="M299.011 168.326C299.011 169.894 307.998 169.219 309.597 169.218C310.937 169.216 319.035 169.773 318.454 168.159C317.976 166.833 309.999 167.492 308.3 167.49C306.832 167.489 299.011 166.729 299.011 168.326Z" fill="#89C5CC"/>
</g>
<g opacity="0.5">
<path fill-rule="evenodd" clip-rule="evenodd" d="M181.679 183.017C186.18 183.509 190.862 185.103 190.823 189.05C190.79 192.368 187.095 195.9 182.351 195.701C178.082 195.523 174.062 192.006 173.527 188.992C173.25 187.431 173.769 185.75 174.988 184.465C176.586 182.782 179.121 182.785 181.679 183.017ZM179.553 180.871C176.298 180.885 173.916 181.772 171.901 183.644C171.178 184.316 170.338 185.038 169.788 185.799C169.274 186.509 169.364 188.316 171.127 187.469C170.693 190.966 173.407 194.361 177.308 196.153C181.548 198.101 186.34 197.721 189.869 194.991C193.1 192.491 194.236 188.269 191.873 185.178C189.511 182.089 184.039 180.838 179.553 180.871Z" fill="#89C5CC"/>
<path fill-rule="evenodd" clip-rule="evenodd" d="M189.315 179.934C187.231 181.085 185.328 182.6 183.747 184.137C182.202 185.639 181.181 187.515 179.325 188.825C178.388 188.056 177.289 185.979 175.42 186.803C173.868 187.486 174.867 188.662 175.623 189.434C177.574 191.428 179.741 192.23 182.243 190.26C184.516 188.472 185.807 186.085 187.932 184.194C188.864 183.364 190.304 182.54 191.046 181.624C191.719 180.793 190.887 179.064 189.315 179.934Z" fill="#89C5CC"/>
</g>
<g opacity="0.5">
<path fill-rule="evenodd" clip-rule="evenodd" d="M268.08 55.1502C268.083 55.307 268.086 55.4546 268.091 55.5903C268.188 58.5522 268.131 61.6661 267.812 64.6211C267.702 65.6413 266.716 66.9345 265.592 65.5281C265.098 64.9097 265.167 63.6397 265.218 62.7055C265.232 62.4551 265.244 62.2288 265.244 62.0456C265.243 61.0033 265.316 59.9502 265.389 58.8944C265.531 56.8302 265.674 54.7552 265.269 52.7279C265.261 52.6869 265.253 52.6474 265.245 52.6094C265.069 51.7179 265.057 51.6563 263.756 51.6766C263.213 51.6851 262.671 51.6961 262.128 51.7072C261.594 51.718 261.061 51.7289 260.527 51.7373C259.997 51.7457 259.467 51.7534 258.937 51.7611C257.275 51.7851 255.613 51.8092 253.952 51.855C253.675 51.8627 253.157 51.9116 252.505 51.9733C251.2 52.0966 249.353 52.2711 247.799 52.2701C247.799 52.2751 247.8 52.2802 247.8 52.2852C247.801 52.2942 247.802 52.3033 247.802 52.3125C247.82 52.9588 247.599 53.6802 247.377 54.405C247.191 55.012 247.004 55.6213 246.956 56.1907C246.842 57.5458 246.841 58.9151 246.84 60.2845C246.838 61.9519 246.837 63.6193 246.632 65.261C246.622 65.341 246.616 65.4256 246.61 65.5112C246.609 65.5226 246.608 65.5339 246.607 65.5453C246.677 65.5373 246.746 65.5316 246.812 65.5284C247.932 65.4749 249.061 65.4702 250.189 65.4654C250.811 65.4628 251.432 65.4602 252.051 65.4494C253.163 65.43 254.288 65.4309 255.418 65.4318C257.912 65.4338 260.428 65.4358 262.868 65.2194C263.588 65.1491 263.84 65.8453 263.517 66.2062C263.228 66.5292 262.431 66.5815 261.847 66.6199C261.699 66.6296 261.565 66.6384 261.456 66.6506C259.882 66.8261 258.288 66.8873 256.701 66.9403C255.033 66.996 253.364 67.0376 251.696 67.0726C251.299 67.0808 250.769 67.1212 250.181 67.1659C248.63 67.284 246.677 67.4328 245.707 67.1023C244.665 66.7472 244.69 66.353 245.115 66.0475C244.928 65.7386 244.899 65.2872 244.876 64.9342C244.867 64.7994 244.86 64.6789 244.844 64.5862C244.613 63.1805 244.474 61.7927 244.47 60.3749C244.464 57.5977 244.471 54.7133 245.491 52.0251C245.083 51.8904 244.836 51.6918 244.837 51.4055C244.842 49.9632 250.801 50.0366 253.634 50.0715C254.14 50.0777 254.547 50.0827 254.801 50.0776C256.865 50.037 258.929 50.0317 260.993 50.0402C261.429 50.0419 261.914 50.0204 262.417 49.9982C263.487 49.9508 264.636 49.8999 265.56 50.0616C267.987 50.4861 268.045 53.3978 268.08 55.1502Z" fill="#89C5CC"/>
<path fill-rule="evenodd" clip-rule="evenodd" d="M283.26 50.3778C285.513 50.2879 287.768 50.2673 290.024 50.261C292.413 50.252 294.805 50.2843 297.193 50.3396L297.248 50.3409C298.306 50.3648 304.187 50.4979 301.485 51.6018C301.328 51.6662 301.15 51.72 300.957 51.7646C301.071 52.2756 301.085 52.8031 301.067 53.0572C300.997 54.0214 300.951 54.9866 300.905 55.9518C300.874 56.6059 300.843 57.26 300.804 57.9138C300.698 59.7202 300.596 61.5265 300.514 63.3338C300.504 63.5556 300.519 63.8457 300.537 64.1691V64.1691C300.594 65.2383 300.671 66.6708 299.9 67.2004C299.224 67.6652 298.762 67.5723 298.451 67.2569C296.515 67.6804 292.539 67.5427 290.54 67.4735C290.059 67.4568 289.692 67.4441 289.496 67.4442C289.145 67.4443 288.494 67.4772 287.672 67.5188C284.249 67.692 277.86 68.0153 277.847 66.7442C277.845 66.6219 277.898 66.5123 277.997 66.4141C277.726 66.2057 277.482 65.8996 277.325 65.5177C276.763 64.1468 276.71 62.6674 276.668 61.2458C276.609 59.2384 276.608 57.2286 276.608 55.2193V55.2193C276.607 54.1874 276.607 53.1556 276.599 52.1242C276.233 51.7541 276.45 51.3307 276.907 51.0353C277.879 50.4069 280.291 50.3993 282.037 50.3938C282.507 50.3923 282.928 50.391 283.26 50.3778ZM279.593 65.8566C281.765 65.5072 285.425 65.6196 287.385 65.6799C287.899 65.6957 288.296 65.7079 288.519 65.7072C290.522 65.7013 292.525 65.7223 294.526 65.7825C294.733 65.7888 295.04 65.7829 295.402 65.7761C296.128 65.7623 297.075 65.7443 297.88 65.8114C297.869 65.7291 297.861 65.6538 297.857 65.5888C297.767 64.2472 297.832 62.8939 297.897 61.5483V61.5482L297.897 61.5476C297.911 61.2618 297.924 60.9763 297.937 60.6913C297.979 59.6852 298.036 58.6795 298.093 57.6739V57.6738C298.129 57.0406 298.165 56.4073 298.198 55.7738C298.212 55.4959 298.191 55.1185 298.167 54.6938C298.118 53.8301 298.059 52.771 298.264 51.9575C297.524 51.9469 296.764 51.9074 296.068 51.8711C295.397 51.8361 294.785 51.8042 294.303 51.8042C293.693 51.8041 293.082 51.8027 292.471 51.8013C290.779 51.7974 289.088 51.7935 287.396 51.8187L286.914 51.8258C284.584 51.8596 282.235 51.8938 279.925 52.125C279.789 52.1385 279.627 52.1647 279.447 52.1964C279.7 52.9938 279.576 54.1176 279.467 55.1018C279.414 55.5798 279.365 56.025 279.365 56.3838C279.361 58.6151 279.44 60.8376 279.518 63.0579L279.518 63.0579C279.547 63.8978 279.577 64.7374 279.602 65.577C279.605 65.6772 279.602 65.7703 279.593 65.8566Z" fill="#89C5CC"/>
<path fill-rule="evenodd" clip-rule="evenodd" d="M254.874 67.0081C253.393 67.6597 254.191 70.2663 254.705 71.1679C255.548 72.6503 257.259 73.8102 259.106 74.5797C262.838 76.1349 268.218 75.7218 271.04 78.4181C271.069 78.446 272.045 79.1736 272.267 78.2314C272.45 77.4581 270.628 76.2772 269.922 75.8896C267.915 74.7874 265.341 74.432 263.02 73.8814C260.544 73.2941 257.827 72.2116 256.789 70.289C256.421 69.6079 257.122 66.014 254.874 67.0081Z" fill="#C1DEE2"/>
<path fill-rule="evenodd" clip-rule="evenodd" d="M288.726 68.2612C287.369 68.543 288.267 69.9496 288.265 70.6539C288.262 71.5325 287.889 72.4521 287.17 73.1532C285.347 74.9315 281.778 75.1979 279.102 75.7077C277.158 76.0782 272.509 76.8725 272.327 78.8521C272.124 81.0629 276.229 78.3725 276.575 78.2622C280.412 77.2021 285.375 76.9974 288.336 74.664C289.558 73.7008 290.281 72.4153 290.396 71.0884C290.46 70.3414 290.471 67.9021 288.726 68.2612Z" fill="#C1DEE2"/>
<path fill-rule="evenodd" clip-rule="evenodd" d="M260.687 87.8706C260.655 83.7802 265.852 81.306 270.551 80.3752C276.199 79.2544 281.46 82.2355 282.126 86.5239C282.829 91.0496 278.3 94.6931 272.329 94.8928C267.076 95.0685 260.72 92.2353 260.687 87.8706ZM273.304 82.342C273.609 82.6548 273.885 83.1541 273.269 83.426C272.677 83.6858 272.381 83.3734 272.084 83.059C271.896 82.8602 271.707 82.6607 271.442 82.6045C270.756 82.4589 269.652 83.0028 269.08 83.32C268.848 83.4488 268.518 83.7259 268.132 84.0499C266.902 85.0813 265.107 86.5871 264.115 85.2914C260.159 90.4378 270.023 94.2893 275.632 92.3417C281.792 90.2027 280.593 82.3827 273.304 82.342Z" fill="#89C5CC"/>
<path fill-rule="evenodd" clip-rule="evenodd" d="M268.134 86.5013C268.134 87.4402 270.102 87.4402 270.102 86.5013C270.102 85.5731 268.134 85.5333 268.134 86.5013Z" fill="#89C5CC"/>
<path fill-rule="evenodd" clip-rule="evenodd" d="M271.597 86.325C271.597 87.4751 274.009 87.4751 274.009 86.325C274.009 85.188 271.597 85.1395 271.597 86.325Z" fill="#89C5CC"/>
<path fill-rule="evenodd" clip-rule="evenodd" d="M269.119 89.005C267.146 89.879 272.787 91.6156 273.01 89.841C273.106 89.0753 272.122 89.2818 271.465 89.2255C270.838 89.1715 269.714 88.7438 269.119 89.005Z" fill="#89C5CC"/>
<path fill-rule="evenodd" clip-rule="evenodd" d="M268.263 95.2058C268.349 97.4382 268.308 99.6693 268.87 101.871C268.976 102.289 269.051 103.805 269.489 104.116C270.568 104.88 270.586 103.415 270.628 102.854C270.778 100.844 270.498 98.7717 270.436 96.7575C270.422 96.324 270.575 95.426 270.303 95.0064C269.872 94.3402 268.221 94.1424 268.263 95.2058Z" fill="#C1DEE2"/>
<path fill-rule="evenodd" clip-rule="evenodd" d="M266.153 93.3957C261.829 97.0518 255.874 96.7826 249.875 97.1027C246.705 97.2719 243.5 97.6193 240.949 99.1637C239.763 99.8822 238.74 100.782 238.053 101.808C237.752 102.256 236.327 104.843 238.467 104.229C239.226 104.012 239.974 102.301 240.465 101.795C241.4 100.831 242.596 100.035 244.031 99.5182C246.8 98.5205 250.106 98.5375 253.108 98.4109C256.245 98.2786 259.614 98.155 262.498 97.1271C263.855 96.6436 265.128 96.0405 266.22 95.2634C266.61 94.9855 267.447 94.5137 267.509 94.0889C267.58 93.6034 266.961 92.7145 266.153 93.3957Z" fill="#C1DEE2"/>
<path fill-rule="evenodd" clip-rule="evenodd" d="M244.322 104.618C240.26 104.72 236.203 104.844 232.147 105.037C231.315 105.077 228.544 104.95 229.25 106.233C229.815 107.262 233.196 106.582 234.314 106.532C238.541 106.343 242.785 106.277 247.003 105.991C247.951 105.926 252.234 105.952 250.465 104.687C249.624 104.085 245.485 104.588 244.322 104.618Z" fill="#89C5CC"/>
<path fill-rule="evenodd" clip-rule="evenodd" d="M226.67 106.094C225.39 107.36 225.978 110.439 226.075 111.962C226.169 113.438 225.788 116.136 228.345 116.365C227.533 116.285 228.962 116.402 229.194 116.411C229.713 116.432 230.235 116.439 230.755 116.443C231.956 116.453 233.158 116.441 234.359 116.423C237.079 116.382 239.806 116.323 242.523 116.209C243.665 116.162 249.86 116.201 250.106 115.308C250.419 114.166 244.479 114.812 243.416 114.848C240.826 114.938 238.232 114.957 235.64 114.982C234.356 114.995 233.07 115.005 231.785 114.986C231.255 114.978 229.154 115.142 228.832 114.875C228.557 114.648 228.771 112.562 228.765 112.243C228.746 111.202 228.748 110.159 228.797 109.119C228.83 108.419 229.333 107.087 228.923 106.429C228.525 105.79 227.364 105.572 226.67 106.094Z" fill="#89C5CC"/>
<path fill-rule="evenodd" clip-rule="evenodd" d="M247.587 106.153C247.661 108.47 247.684 110.834 248.411 113.101C248.653 113.855 248.992 115.411 249.998 115.801C251.053 116.211 251.965 115.626 252.034 114.838C252.121 113.847 251.417 112.546 251.272 111.53C251.103 110.344 251.005 109.157 250.948 107.965C250.904 107.069 251.266 105.725 250.131 105.147C249.112 104.628 247.554 105.15 247.587 106.153Z" fill="#89C5CC"/>
<path fill-rule="evenodd" clip-rule="evenodd" d="M255.671 105.587C254.408 106.535 254.972 109.536 255.13 110.754C255.246 111.646 256.542 116.035 258.485 113.747C259.344 112.734 258.252 110.057 258.26 108.877C258.265 108.125 258.618 107.175 258.448 106.452C258.222 105.498 256.817 104.725 255.671 105.587Z" fill="#89C5CC"/>
<path fill-rule="evenodd" clip-rule="evenodd" d="M264.418 104.804C268.213 104.51 272.012 104.288 275.828 104.261C276.011 104.26 276.204 104.258 276.404 104.256C279.019 104.231 282.949 104.194 284.709 105.673C285.668 106.479 286.102 107.724 286.481 108.81C286.551 109.013 286.62 109.21 286.69 109.397C286.749 109.558 286.827 109.74 286.911 109.938C287.306 110.87 287.841 112.132 287.299 112.913C287.001 113.341 286.522 113.706 285.796 113.554C285.627 113.519 285.494 113.474 285.39 113.421C285.668 113.648 285.791 113.971 285.61 114.287C285.26 114.898 284.157 114.911 283.287 114.921C283.076 114.924 282.879 114.926 282.709 114.937C279.812 115.119 276.902 115.24 273.994 115.259C272.61 115.268 271.225 115.26 269.841 115.251C268.416 115.242 266.991 115.234 265.566 115.244C264.532 115.252 263.478 115.326 262.425 115.4C261.094 115.494 259.763 115.587 258.47 115.547C257.502 115.517 256.468 115.278 256.713 114.336C256.913 113.567 257.875 113.5 258.736 113.44C258.811 113.434 258.885 113.429 258.958 113.424C261.701 113.213 264.445 113.139 267.202 113.146C272.993 113.161 278.78 113.139 284.571 113.116C284.808 113.131 285.032 113.199 285.216 113.303C285.009 113.112 285.013 112.859 285.017 112.589C285.019 112.467 285.021 112.341 285.003 112.216C284.968 111.966 284.936 111.716 284.903 111.467C284.796 110.643 284.69 109.826 284.481 108.997C284.45 108.872 284.419 108.735 284.387 108.589C284.198 107.729 283.947 106.59 283.039 106.125C282.126 105.658 280.336 105.681 278.941 105.698C278.565 105.703 278.217 105.707 277.923 105.702C274.201 105.629 270.457 105.828 266.752 106.082C266.467 106.102 266.182 106.12 265.897 106.139C264.487 106.231 263.07 106.324 261.681 106.514C261.427 106.549 261.038 106.651 260.593 106.768C259.407 107.08 257.818 107.498 257.278 107.038C255.489 105.513 263.351 104.887 264.418 104.804Z" fill="#89C5CC"/>
<path fill-rule="evenodd" clip-rule="evenodd" d="M304.791 101.334C304.956 101.493 304.956 101.493 304.791 101.334V101.334ZM279.111 91.8907C276.807 92.9111 281.072 95.9054 282.159 96.3685C284.604 97.4106 287.964 97.5677 290.695 97.8608C294.15 98.2319 297.911 98.3685 301.231 99.2215C302.647 99.585 303.546 100.152 304.472 101.024C304.942 101.465 306.072 103.369 307.102 102.918C309.174 102.011 303.589 98.2024 302.359 97.7929C299.561 96.862 296.254 96.6013 293.263 96.2399C290.482 95.9036 287.64 95.6537 284.928 95.061C283.436 94.7351 282.376 94.2094 281.516 93.2033C280.98 92.5763 280.541 91.2607 279.111 91.8907Z" fill="#C1DEE2"/>
<path fill-rule="evenodd" clip-rule="evenodd" d="M314.442 103.588C311.785 103.632 309.133 103.786 306.482 103.94C304.994 104.026 303.507 104.113 302.019 104.18C301.553 104.201 301.088 104.22 300.621 104.238C299.311 104.292 297.998 104.345 296.694 104.444C296.495 104.459 296.266 104.473 296.016 104.489C294.908 104.557 293.397 104.651 292.431 104.955C291.547 104.451 290.181 104.88 290.159 105.779C290.123 107.416 290.143 109.024 290.408 110.651C290.47 111.029 290.786 112.941 291.476 113.936C291.23 114.876 292.294 115.14 293.284 115.212C297.119 115.491 301.141 115.274 305.108 115.061C307.126 114.952 309.13 114.844 311.088 114.803C311.739 114.789 312.398 114.783 313.062 114.778C315.226 114.76 317.433 114.741 319.529 114.433C319.613 114.42 319.703 114.408 319.798 114.395C320.627 114.283 321.769 114.129 321.856 113.442C321.909 113.03 321.6 112.652 321.083 112.599C321.119 112.256 321.061 111.881 321.019 111.605C321.009 111.541 321 111.483 320.993 111.431C320.868 110.475 320.552 109.526 320.24 108.589L320.24 108.589L320.24 108.589C320.17 108.379 320.1 108.169 320.032 107.959C319.958 107.728 319.888 107.452 319.814 107.155C319.55 106.105 319.219 104.786 318.339 104.174C317.415 103.532 315.912 103.56 314.707 103.583C314.617 103.585 314.529 103.586 314.442 103.588ZM319.118 112.702C318.803 112.081 318.711 111.241 318.623 110.442V110.442V110.442C318.568 109.941 318.515 109.456 318.41 109.052C318.33 108.749 318.266 108.429 318.2 108.104C318.04 107.315 317.873 106.495 317.48 105.803C316.953 104.877 316.485 104.912 315.376 104.996C315.169 105.012 314.941 105.029 314.686 105.042C313.556 105.1 312.427 105.173 311.298 105.247C310.756 105.282 310.214 105.318 309.673 105.351C307.355 105.495 305.035 105.605 302.715 105.715L302.715 105.715L302.715 105.715C301.36 105.78 300.005 105.844 298.65 105.915C297.586 105.971 296.548 106.124 295.514 106.275C294.695 106.395 293.879 106.515 293.055 106.586C293.043 106.798 293.02 107.011 292.997 107.214C292.966 107.491 292.938 107.748 292.944 107.959C292.971 108.894 293.08 109.823 293.19 110.754L293.19 110.754C293.207 110.897 293.224 111.04 293.24 111.184C293.26 111.355 293.309 111.576 293.364 111.82C293.448 112.199 293.545 112.634 293.566 113.036C293.667 113.035 293.766 113.036 293.864 113.036C293.991 113.036 294.116 113.037 294.235 113.035C297.156 112.997 300.075 112.93 302.994 112.845C303.366 112.835 303.739 112.824 304.112 112.813C306.716 112.736 309.32 112.66 311.927 112.637C312.962 112.629 314.011 112.653 315.063 112.678C316.417 112.709 317.776 112.741 319.118 112.702Z" fill="#89C5CC"/>
</g>
<path fill-rule="evenodd" clip-rule="evenodd" d="M117.257 136.975C119.477 138.317 121.658 138.966 122.682 138.701C125.25 138.037 125.486 128.613 123.499 124.898C121.512 121.183 111.299 119.564 110.784 126.925C110.605 129.479 111.675 131.759 113.255 133.62L110.422 146.865H118.65L117.257 136.975Z" fill="#B28B67"/>
<path fill-rule="evenodd" clip-rule="evenodd" d="M120.249 120.852C119.125 120.508 117.493 120.391 116.806 120.47C117.197 119.531 117.352 118.485 117.225 117.467C117.103 116.478 116.662 115.635 116.254 114.752C116.066 114.345 115.853 113.94 115.536 113.629C115.212 113.312 114.803 113.103 114.374 113.003C113.934 112.9 113.475 112.909 113.035 113.002C112.84 113.043 112.666 113.132 112.475 113.182C112.279 113.232 112.185 113.11 112.043 112.986C111.701 112.689 111.199 112.542 110.767 112.49C110.282 112.431 109.778 112.504 109.315 112.665C108.864 112.82 108.432 113.073 108.106 113.442C107.961 113.606 107.829 113.793 107.744 113.999C107.708 114.084 107.703 114.134 107.619 114.165C107.541 114.194 107.45 114.194 107.369 114.222C106.592 114.486 105.928 115.088 105.567 115.861C105.356 116.312 105.256 117.106 105.283 117.996C105.31 118.886 106.112 121.209 106.861 122.056C107.53 122.812 108.513 123.311 109.462 123.53C108.832 124.252 108.413 125.154 108.103 126.072C107.766 127.069 107.558 128.105 107.481 129.16C107.407 130.163 107.401 131.223 107.635 132.205C107.854 133.122 108.323 133.875 109.106 134.353C109.464 134.572 109.85 134.736 110.238 134.886C110.62 135.034 111.004 135.178 111.404 135.261C112.162 135.418 113.035 135.391 113.619 134.786C113.83 134.568 114.061 134.294 114.214 134.027C114.27 133.932 114.303 133.869 114.236 133.775C114.156 133.663 114.026 133.577 113.922 133.489C113.334 132.989 112.97 132.321 112.878 131.527C112.785 130.721 113 129.681 113.781 129.329C114.745 128.895 115.806 129.394 116.663 129.858C117.027 128.569 117.775 127.408 118.947 126.817C120.243 126.163 121.731 126.086 123.063 125.525C123.411 125.379 123.764 125.213 124.02 124.915C124.127 124.79 124.252 124.629 124.295 124.464C124.351 124.247 124.212 124.066 124.104 123.897C123.534 123.003 121.374 121.196 120.249 120.852Z" fill="#191847"/>
<path fill-rule="evenodd" clip-rule="evenodd" d="M109.736 235.605C124.316 235.605 136.136 224.287 136.136 210.325C136.136 196.362 124.316 185.044 109.736 185.044C95.1558 185.044 83.3362 196.362 83.3362 210.325C83.3362 224.287 95.1558 235.605 109.736 235.605Z" fill="#C5CFD6"/>
<path fill-rule="evenodd" clip-rule="evenodd" d="M150.78 208.976C152.055 213.457 155.232 221.951 159.625 231.705L163.799 230.483C160.147 208.038 157.108 193.179 155.367 188.656C154.217 185.668 145.515 186.018 146.516 192.031C146.936 194.552 148.597 201.304 150.78 208.976ZM133.622 193.079C126.815 194.494 112.7 199.496 108.669 201.094C106.136 202.098 107.769 205.505 109.93 205.207C110.296 205.157 111.591 205.011 113.523 204.794C119.728 204.098 132.506 202.664 142.197 201.265C147.301 200.528 144.555 190.939 139.257 191.953C137.474 192.295 135.578 192.673 133.622 193.079Z" fill="#B28B67"/>
<path fill-rule="evenodd" clip-rule="evenodd" d="M155.634 186.123C154.938 183.845 123.301 175.757 123.301 175.757H120.708V178.181L142.509 189.315C142.48 189.674 142.498 190.054 142.568 190.454C142.411 198.708 145.932 204.874 149.418 210.979C151.698 214.971 153.963 218.937 155.174 223.444L163.184 222.245C162.951 221.646 162.582 218.947 162.077 215.257C160.805 205.951 158.672 190.344 155.679 186.215C155.669 186.2 155.658 186.186 155.647 186.172C155.643 186.155 155.639 186.139 155.634 186.123Z" fill="#1F28CF"/>
<path fill-rule="evenodd" clip-rule="evenodd" d="M122.519 195.927C120.524 195.526 118.687 195.169 117.115 194.892C106.962 193.106 104.001 187.653 105.752 175.757H124.459C127.515 176.638 143.396 183.319 151.635 186.873C157.089 189.225 155.37 197.703 152.281 199.91C152.265 200.045 152.209 200.137 152.11 200.178C140.401 205.046 130.417 204.683 124.005 204.45C121.319 204.352 119.261 204.277 117.965 204.619L115.934 198.193L122.519 195.927Z" fill="#2B44FF"/>
<path fill-rule="evenodd" clip-rule="evenodd" d="M110.951 202.18C110.735 201.029 109.791 200.053 108.646 200.288C108.285 200.363 107.956 200.454 107.729 200.565C106.896 200.973 105.432 202.034 105.432 202.034C105.904 203.004 113.909 219.47 113.909 219.47C113.909 219.47 116.48 219.054 115.946 217.502C115.413 215.95 115.086 214.911 115.086 214.911L114.77 205.719C114.751 205.156 114.272 204.72 113.711 204.756L112.87 204.809C112.87 204.809 111.581 203.762 111.169 202.914C111.074 202.72 111.003 202.462 110.951 202.18Z" fill="#E4E4E4"/>
<path fill-rule="evenodd" clip-rule="evenodd" d="M159.921 230.009C158.79 229.7 157.494 230.123 157.203 231.259C157.113 231.615 157.05 231.95 157.05 232.202C157.05 233.132 157.359 234.917 157.359 234.917C158.435 234.917 176.697 234.917 176.697 234.917C176.697 234.917 177.451 232.417 175.827 232.218C174.203 232.019 173.129 231.858 173.129 231.858L164.76 228.115C164.245 227.885 163.641 228.126 163.426 228.648L163.106 229.427C163.106 229.427 161.603 230.131 160.663 230.131C160.45 230.131 160.193 230.083 159.921 230.009Z" fill="#E4E4E4"/>
<path fill-rule="evenodd" clip-rule="evenodd" d="M149.742 179.073L138.804 171.015L136.387 177.01L147.218 181.516C150.281 185.126 151.994 186.631 152.357 186.031C152.662 185.525 152.423 185.051 152.203 184.615C152.032 184.275 151.872 183.958 151.989 183.666C152.258 182.999 154.316 183.069 156.266 183.22C158.215 183.371 157.647 182.5 157.177 182.071C155.186 180.875 152.708 179.876 149.742 179.073ZM92.3871 193.267C93.3918 191.223 96.8133 171.293 96.8133 171.293L103.978 171.321C103.978 171.321 97.3422 192.811 96.8133 194.126C96.1263 195.835 97.2933 198.316 98.0847 199.999C98.2071 200.26 98.3206 200.501 98.4167 200.717C97.3187 201.21 96.7912 200.614 96.2351 199.986C95.607 199.277 94.9424 198.526 93.3779 199.256C92.7735 199.538 92.2015 199.872 91.6427 200.198C89.7124 201.323 87.9391 202.357 85.5269 200.864C85.1445 200.627 84.7254 199.736 85.7379 199.039C88.2606 197.304 91.8959 194.267 92.3871 193.267Z" fill="#B28B67"/>
<path fill-rule="evenodd" clip-rule="evenodd" d="M117.175 141.132L120.139 140.622C131.139 150.155 135.657 168.468 149.141 178.17L145.895 182.206C122.504 179.3 116.707 156.962 117.175 141.132Z" fill="#E87613"/>
<path fill-rule="evenodd" clip-rule="evenodd" d="M104.25 178.509C104.25 178.509 122.082 178.509 130.483 178.509C131.682 178.509 131.456 176.772 131.282 175.896C129.283 165.784 121.476 154.883 121.476 140.488L113.909 139.298C107.651 149.396 105.486 161.829 104.25 178.509Z" fill="#DDE3E9"/>
<path fill-rule="evenodd" clip-rule="evenodd" d="M101.301 185.732C100.122 188.573 98.9659 191.051 97.8765 192.955H92.2506C91.6453 173.322 99.0547 158.214 105.256 149.105C103.879 149.007 102.636 148.429 101.851 147.007C99.085 142 100.084 139.244 103.039 138.338C104.665 137.84 106.193 138.18 108.023 138.587C109.52 138.92 111.219 139.298 113.338 139.298C113.338 139.298 113.339 139.298 113.34 139.298C113.545 139.298 113.732 139.312 113.901 139.338L116.412 139.482C116.412 139.482 126.607 174.143 122.035 185.732H101.301Z" fill="#FF9B21"/>
<path fill-rule="evenodd" clip-rule="evenodd" d="M101.301 185.732C102.848 182.005 104.434 177.655 105.961 173.162C106.529 178.109 107.475 183.079 109.051 185.732H101.301Z" fill="black" fill-opacity="0.1"/>
<path fill-rule="evenodd" clip-rule="evenodd" d="M214.05 98.6637C218.316 98.6637 221.775 102.123 221.775 106.389V112.968C221.775 116.838 218.93 120.044 215.216 120.606C215.215 120.638 215.213 120.67 215.211 120.702H205.254C203.56 119.043 205.474 107.793 206.667 104.065C206.825 103.572 206.978 103.208 207.129 102.952C208.394 100.41 211.018 98.6637 214.05 98.6637Z" fill="#191847"/>
<path fill-rule="evenodd" clip-rule="evenodd" d="M213.9 115.271C211.677 116.614 209.492 117.263 208.467 116.998C205.895 116.334 205.659 106.903 207.649 103.185C209.638 99.4666 219.867 97.8461 220.383 105.213C220.562 107.77 219.491 110.051 217.908 111.913L220.745 125.169H212.505L213.9 115.271Z" fill="#B28B67"/>
<path fill-rule="evenodd" clip-rule="evenodd" d="M221.473 105.256C221.234 105.018 221.002 104.789 220.772 104.584L220.783 104.316C220.783 104.316 218.197 99.0078 214.221 99.0078C210.248 99.0078 208.992 100.859 207.924 102.433L207.921 102.437C208.48 104.359 210.163 105.136 212.067 106.015C212.887 106.394 213.747 106.791 214.576 107.307C214.901 107.042 215.315 106.884 215.766 106.884C216.809 106.884 217.655 107.731 217.655 108.777C217.655 109.823 216.809 110.67 215.766 110.67C215.738 110.67 215.709 110.67 215.681 110.668C215.301 114.757 215.453 119.426 216.585 120.535H226.542C226.828 115.556 225.543 114.135 224.231 112.684C222.995 111.318 221.735 109.925 221.735 105.515C221.647 105.428 221.559 105.341 221.473 105.256L221.473 105.256Z" fill="#191847"/>
<path fill-rule="evenodd" clip-rule="evenodd" d="M226.228 154.237L213.326 196.604L207.076 232.635H202.176L208.78 154.237H226.228Z" fill="#997659"/>
<path fill-rule="evenodd" clip-rule="evenodd" d="M230.844 154.237C229.967 177.499 230.999 189.498 231.195 191.611C231.391 193.725 234.077 207.428 240.435 233.344L235.213 231.543C225.165 207.774 221.74 195.421 220.588 192.3C219.436 189.179 216.375 176.491 211.405 154.237H230.844Z" fill="#B28B67"/>
<path fill-rule="evenodd" clip-rule="evenodd" d="M238.099 231.63C239.231 231.321 240.528 231.744 240.818 232.881C240.909 233.237 240.971 233.574 240.971 233.826C240.971 234.757 240.662 236.544 240.662 236.544C239.586 236.544 221.324 236.544 221.324 236.544C221.324 236.544 220.571 234.041 222.195 233.842C223.819 233.642 224.893 233.481 224.893 233.481L233.261 229.734C233.776 229.503 234.381 229.745 234.595 230.267L234.915 231.048C234.915 231.048 236.419 231.752 237.359 231.752C237.571 231.752 237.828 231.704 238.099 231.63Z" fill="#E4E4E4"/>
<path fill-rule="evenodd" clip-rule="evenodd" d="M205.87 231.63C207.002 231.321 208.299 231.744 208.589 232.881C208.68 233.237 208.743 233.574 208.743 233.826C208.743 234.757 208.434 236.544 208.434 236.544C207.358 236.544 189.096 236.544 189.096 236.544C189.096 236.544 188.342 234.041 189.966 233.842C191.59 233.642 192.664 233.481 192.664 233.481L201.033 229.734C201.548 229.503 202.152 229.745 202.366 230.267L202.687 231.048C202.687 231.048 204.19 231.752 205.13 231.752C205.342 231.752 205.599 231.704 205.87 231.63Z" fill="#E4E4E4"/>
<path fill-rule="evenodd" clip-rule="evenodd" d="M227.942 154.237L222.457 175.822H205.701L208.2 154.237H227.942Z" fill="#69A1AC"/>
<path fill-rule="evenodd" clip-rule="evenodd" d="M231.028 154.237C233.736 162.389 232.057 175.822 232.057 175.822H214.958L210.257 154.237H231.028Z" fill="#89C5CC"/>
<path fill-rule="evenodd" clip-rule="evenodd" d="M178.871 119.919L192.302 121.975L189.781 127.924L178.933 123.434C174.216 123.814 171.941 123.664 172.108 122.983C172.249 122.409 172.752 122.244 173.216 122.091C173.577 121.973 173.915 121.862 174.037 121.572C174.318 120.91 172.812 119.502 171.325 118.227C169.839 116.952 170.856 116.74 171.492 116.769C173.745 117.335 176.204 118.385 178.871 119.919ZM186.9 154.052L196.629 144.553L199.858 150.147L189.742 156.117C187.205 160.115 185.715 161.843 185.273 161.3C184.899 160.843 185.071 160.341 185.228 159.878C185.351 159.518 185.466 159.182 185.309 158.909C184.949 158.287 182.919 158.644 181.006 159.065C179.093 159.486 179.536 158.546 179.943 158.055C181.751 156.595 184.07 155.26 186.9 154.052Z" fill="#B28B67"/>
<path fill-rule="evenodd" clip-rule="evenodd" d="M210.467 120.715C206.105 132.568 198.749 142.22 187.598 152.747L193.028 157.377C206.132 150.287 212.994 146.157 215.117 135.24C215.65 132.5 215.111 124.08 215.035 119.621L210.467 120.715Z" fill="#2026A2"/>
<path fill-rule="evenodd" clip-rule="evenodd" d="M232.126 155.108L205.944 158.797C205.944 158.797 211.034 130.393 209.808 120.247C209.767 119.903 210.316 119.207 210.608 119.247C213.81 119.684 217.109 117.667 217.109 117.667C224.716 126.782 228.587 138.779 232.126 155.108Z" fill="#F2F2F2"/>
<path fill-rule="evenodd" clip-rule="evenodd" d="M212.678 133.833C211.05 151.963 213.253 166.305 222.281 165.033L236.241 163.066C236.367 147.843 227.642 127.989 220.778 118.322C220.516 117.953 219.971 117.264 218.937 117.41L214.88 117.981C214.879 117.987 214.878 117.993 214.877 117.998C213.658 118.18 212.32 118.414 210.871 118.668C203.412 119.972 193.011 121.792 180.723 119.671L180.308 126.799C191.879 132.134 203.367 135.911 212.678 133.833Z" fill="#1F28CF"/>
</svg>
