<svg width="1280" height="401" viewBox="0 0 1280 401" fill="none" xmlns="http://www.w3.org/2000/svg">
<path fill-rule="evenodd" clip-rule="evenodd" d="M648.547 205.999C642.101 205.999 639.757 198.338 636.094 194.134C633.474 191.127 629.003 192.023 627.679 187.813C624.351 177.224 633.259 169.771 644.881 169.771C656.502 169.771 664.338 176.307 666.03 186.133C667.722 195.958 660.168 205.999 648.547 205.999Z" fill="#191847"/>
<path fill-rule="evenodd" clip-rule="evenodd" d="M641.251 204.62C637.599 206.806 634.01 207.861 632.326 207.43C628.102 206.35 627.714 191.01 630.982 184.963C634.25 178.916 651.052 176.28 651.898 188.261C652.192 192.42 650.433 196.131 647.835 199.159L652.495 220.72H638.959L641.251 204.62Z" fill="#B28B67"/>
<path fill-rule="evenodd" clip-rule="evenodd" d="M651.019 179.849C661.387 189.927 650.979 200.638 648.127 200.638C647.943 199.184 647.382 197.77 646.559 196.423C646.996 195.862 647.255 195.163 647.255 194.406C647.255 192.55 645.7 191.046 643.783 191.046C643.184 191.046 642.62 191.193 642.128 191.451C637.972 187.932 632.759 185.479 630.17 184.997C625.668 184.158 640.651 169.771 651.019 179.849Z" fill="#191847"/>
<path fill-rule="evenodd" clip-rule="evenodd" d="M657.006 267.19L635.783 336.068L625.502 394.644H617.441L628.304 267.19H657.006Z" fill="#997659"/>
<path fill-rule="evenodd" clip-rule="evenodd" d="M664.599 267.19C663.158 305.007 664.854 324.515 665.177 327.951C665.499 331.386 669.917 353.665 680.376 395.798L671.786 392.869C655.257 354.227 649.624 334.144 647.729 329.07C645.833 323.996 640.798 303.369 632.623 267.19H664.599Z" fill="#B28B67"/>
<path fill-rule="evenodd" clip-rule="evenodd" d="M677.881 392.559C678.968 392.138 680.24 392.605 680.608 393.712C680.94 394.714 681.258 395.859 681.258 396.58C681.258 398.095 680.75 401 680.75 401C678.98 401 648.94 401 648.94 401C648.94 401 647.7 396.931 650.371 396.606C653.043 396.282 654.81 396.02 654.81 396.02L669.189 389.657C669.702 389.43 670.302 389.669 670.517 390.188L671.296 392.064C671.296 392.064 673.769 393.209 675.315 393.209C676.012 393.209 677.002 392.9 677.881 392.559Z" fill="#E4E4E4"/>
<path fill-rule="evenodd" clip-rule="evenodd" d="M624.866 392.559C625.953 392.138 627.225 392.605 627.593 393.712C627.925 394.714 628.243 395.859 628.243 396.58C628.243 398.095 627.735 401 627.735 401C625.965 401 595.924 401 595.924 401C595.924 401 594.684 396.931 597.356 396.606C600.027 396.282 601.794 396.02 601.794 396.02L616.174 389.657C616.687 389.43 617.287 389.669 617.502 390.188L618.281 392.064C618.281 392.064 620.754 393.209 622.3 393.209C622.997 393.209 623.987 392.9 624.866 392.559Z" fill="#E4E4E4"/>
<path fill-rule="evenodd" clip-rule="evenodd" d="M659.826 267.19L650.803 302.282H623.24L627.35 267.19H659.826Z" fill="#69A1AC"/>
<path fill-rule="evenodd" clip-rule="evenodd" d="M664.902 267.19C669.356 280.442 666.594 302.282 666.594 302.282H638.468L630.734 267.19H664.902Z" fill="#89C5CC"/>
<path fill-rule="evenodd" clip-rule="evenodd" d="M591.374 273.772L607.35 258.3L612.657 267.415L596.043 277.138C591.877 283.653 589.431 286.467 588.703 285.582C588.09 284.836 588.371 284.019 588.63 283.265C588.832 282.679 589.02 282.131 588.762 281.687C588.171 280.673 584.836 281.253 581.694 281.939C578.552 282.624 579.279 281.093 579.947 280.293C582.916 277.914 586.725 275.741 591.374 273.772ZM685.546 296.252C683.893 292.923 678.265 260.482 678.265 260.482L666.479 260.528C666.479 260.528 677.395 295.51 678.265 297.65C679.395 300.431 677.475 304.47 676.173 307.21C675.972 307.633 675.785 308.026 675.627 308.378C677.433 309.18 678.301 308.211 679.216 307.188C680.249 306.033 681.342 304.811 683.916 306C684.91 306.459 685.851 307.002 686.77 307.533C689.946 309.365 692.862 311.048 696.831 308.617C697.46 308.232 698.149 306.781 696.483 305.647C692.334 302.823 686.354 297.879 685.546 296.252Z" fill="#B28B67"/>
<path fill-rule="evenodd" clip-rule="evenodd" d="M644.771 211.388L639.894 210.557C631.497 231.379 616.838 250.299 595.916 267.316L611.726 286.383C632.646 262.153 645.541 237.155 644.771 211.388Z" fill="#191847"/>
<path fill-rule="evenodd" clip-rule="evenodd" d="M666.03 272.228H622.603C622.603 272.228 637.695 235.802 637.695 210.34L650.795 208.403C661.09 224.84 663.997 245.077 666.03 272.228Z" fill="#DDE3E9"/>
<path fill-rule="evenodd" clip-rule="evenodd" d="M685.77 290.704C681.021 237.514 651.082 208.403 651.082 208.403L651.072 208.412C651.07 208.409 651.069 208.406 651.067 208.403H650.212C648.677 208.455 645.536 208.592 645.536 208.592L642.371 217.572C641.869 233.995 636.505 283.765 636.505 283.765H664.931C664.882 286.047 664.775 288.361 664.603 290.704H685.77Z" fill="#2F3676"/>
<path fill-rule="evenodd" clip-rule="evenodd" d="M664.926 283.986C665.153 274.048 664.265 264.717 662.783 256.273C662.008 266.293 660.389 278.35 657.007 283.986H664.926Z" fill="black" fill-opacity="0.1"/>
<path fill-rule="evenodd" clip-rule="evenodd" d="M658.636 266.63L644.599 260.152V266.63H658.636Z" fill="white" fill-opacity="0.2"/>
<path fill-rule="evenodd" clip-rule="evenodd" d="M758.017 204.62C754.431 206.806 750.908 207.861 749.253 207.43C745.106 206.35 744.725 191.01 747.934 184.963C751.143 178.916 767.641 176.28 768.472 188.261C768.761 192.42 767.034 196.131 764.482 199.159L769.057 220.72H755.766L758.017 204.62Z" fill="#B28B67"/>
<path fill-rule="evenodd" clip-rule="evenodd" d="M757.353 189.585C756.203 187.854 755.099 186.534 753.664 185.767C747.82 185.861 747.136 184.802 747.136 181.232C748.08 180.55 751.41 179.4 755.139 179.077C757.042 178.526 759.295 178.63 761.466 179.548C764.146 180.317 766.416 181.972 767.418 185.072C771.044 191.399 768.292 197.985 764.583 200.235C763.595 199.052 762.734 197.906 761.965 196.809C762.582 196.199 762.966 195.348 762.966 194.406C762.966 192.55 761.478 191.046 759.643 191.046C759.508 191.046 759.375 191.055 759.244 191.07C759.162 193.39 758.822 201.238 757.929 203.964C756.877 207.177 750.736 207.967 748.594 207.967C746.744 207.967 746.807 206.196 746.852 204.926C746.859 204.743 746.865 204.571 746.865 204.416C746.865 204.092 747.282 204.093 747.753 204.093C748.365 204.095 749.069 204.096 749.069 203.386C749.069 202.612 748.011 202.019 747.064 201.488C746.474 201.156 745.927 200.849 745.707 200.538C745.012 199.555 744.779 198.23 745.826 198.23C746.398 198.23 747.184 198.564 748.129 198.965C749.555 199.571 751.346 200.332 753.315 200.332C756.569 200.332 757.343 189.721 757.353 189.585Z" fill="#191847"/>
<path fill-rule="evenodd" clip-rule="evenodd" d="M773.488 267.19L753.41 338.421L738.761 390.922H728.076L743.643 267.19H773.488Z" fill="#191847"/>
<path fill-rule="evenodd" clip-rule="evenodd" d="M778.857 267.19C779.322 303.903 780.905 323.928 781.393 327.263C781.881 330.599 789.253 351.818 803.511 390.922H792.443C774.291 353.409 764.159 332.189 762.045 327.263C759.931 322.337 753.408 302.313 743.583 267.19H778.857Z" fill="#2F3676"/>
<path fill-rule="evenodd" clip-rule="evenodd" d="M804.501 401L803.947 389.243L792.317 389.243C784.045 395.121 770.719 398.76 770.719 398.76V401H791.763L798.963 399.88V401H804.501Z" fill="#191847"/>
<path fill-rule="evenodd" clip-rule="evenodd" d="M740.26 401L739.706 389.243L728.076 389.243C719.805 395.121 706.478 398.76 706.478 398.76V401H727.523L734.722 399.88V401H740.26Z" fill="#191847"/>
<path fill-rule="evenodd" clip-rule="evenodd" d="M816.482 287.504C814.417 284.436 802.47 251.813 802.47 251.813L792.661 253.253C792.661 253.253 808.454 287.895 809.595 289.895C811.077 292.492 809.766 296.758 808.877 299.65C808.74 300.097 808.612 300.512 808.507 300.883C810.374 301.428 811.084 300.347 811.833 299.208C812.678 297.922 813.573 296.561 816.239 297.382C817.269 297.7 818.259 298.107 819.226 298.506C822.566 299.881 825.634 301.145 829.158 298.19C829.716 297.722 830.187 296.19 828.411 295.297C823.987 293.073 817.492 289.004 816.482 287.504ZM710.053 272.341L726.77 258.013L731.339 267.473L714.394 276.023C709.864 282.233 707.274 284.871 706.622 283.938C706.073 283.151 706.405 282.355 706.71 281.621C706.948 281.05 707.17 280.517 706.948 280.056C706.439 279.003 703.132 279.351 700.007 279.818C696.883 280.284 697.701 278.806 698.41 278.055C701.482 275.888 705.363 273.983 710.053 272.341Z" fill="#B28B67"/>
<path fill-rule="evenodd" clip-rule="evenodd" d="M761.473 211.388L755.395 209.356C747.151 230.178 734.855 250.324 714.311 267.341L719.391 276.202C737.446 265.449 754.538 257.097 761.473 240.962C763.801 235.547 761.663 217.863 761.473 211.388Z" fill="#C5CFD6"/>
<path fill-rule="evenodd" clip-rule="evenodd" d="M782.349 269.989C782.349 269.989 756.233 272.788 741.237 269.989C739.998 269.758 739.803 267.661 740.377 266.238C749.322 244.08 755.456 224.746 755.456 209.356C757.918 210.611 764.073 209.732 764.073 209.732C775.102 225.592 780.171 243.79 782.349 269.989Z" fill="#323337"/>
<path fill-rule="evenodd" clip-rule="evenodd" d="M767.234 208.403C766.949 208.209 766.799 208.112 766.799 208.112L766.815 208.403H762.219C761.988 209.776 761.65 214.865 761.156 222.286C759.364 249.254 755.525 307.012 747.354 329.115H803.733C802.544 303.986 793.379 273.934 783.886 248.417C790.891 255.463 799.073 267.275 805.685 286.938L816.245 284.197C805.483 237.314 773.952 213.134 767.834 208.819C767.774 208.679 767.715 208.541 767.655 208.403H767.234Z" fill="#DDE3E9"/>
<path fill-rule="evenodd" clip-rule="evenodd" d="M874.213 204.62C870.627 206.806 867.103 207.861 865.449 207.43C861.302 206.35 860.92 191.01 864.129 184.963C867.339 178.916 883.836 176.28 884.668 188.261C884.957 192.42 883.229 196.131 880.678 199.159L885.253 220.72H871.962L874.213 204.62Z" fill="#B28B67"/>
<path fill-rule="evenodd" clip-rule="evenodd" d="M869.379 178.376C871.196 177.817 873.832 177.627 874.941 177.755C874.31 176.227 874.06 174.525 874.264 172.867C874.462 171.256 875.174 169.884 875.833 168.447C876.136 167.785 876.48 167.126 876.993 166.619C877.515 166.103 878.177 165.762 878.87 165.6C879.58 165.433 880.322 165.447 881.032 165.598C881.347 165.665 881.629 165.81 881.937 165.891C882.253 165.974 882.406 165.774 882.635 165.573C883.188 165.089 883.997 164.851 884.696 164.765C885.48 164.669 886.294 164.789 887.041 165.049C887.769 165.303 888.468 165.715 888.994 166.315C889.229 166.582 889.441 166.886 889.579 167.222C889.636 167.359 889.645 167.441 889.781 167.492C889.907 167.538 890.054 167.54 890.184 167.584C891.439 168.014 892.512 168.994 893.096 170.252C893.437 170.987 893.598 172.279 893.554 173.728C893.51 175.177 892.216 178.958 891.005 180.337C889.925 181.567 888.337 182.38 886.804 182.735C887.822 183.911 888.499 185.38 888.999 186.874C889.543 188.496 889.88 190.182 890.004 191.9C890.122 193.533 890.133 195.259 889.755 196.856C889.401 198.35 888.643 199.575 887.379 200.353C886.8 200.709 886.177 200.977 885.551 201.221C884.933 201.462 884.314 201.696 883.667 201.832C882.443 202.087 881.032 202.043 880.089 201.058C879.749 200.703 879.375 200.257 879.127 199.823C879.038 199.667 878.984 199.565 879.093 199.412C879.223 199.23 879.432 199.09 879.599 198.947C880.55 198.132 881.138 197.045 881.287 195.752C881.437 194.441 881.089 192.748 879.827 192.176C878.271 191.469 876.556 192.28 875.172 193.036C874.584 190.938 873.377 189.049 871.484 188.086C869.389 187.021 866.986 186.897 864.834 185.983C864.273 185.745 863.702 185.475 863.289 184.99C863.116 184.787 862.914 184.524 862.845 184.256C862.755 183.904 862.979 183.608 863.153 183.334C864.073 181.878 867.563 178.936 869.379 178.376Z" fill="#191847"/>
<path fill-rule="evenodd" clip-rule="evenodd" d="M888.576 267.19L847.425 336.741L816.574 395.541H809.929L861.621 267.19L888.576 267.19Z" fill="#997659"/>
<path fill-rule="evenodd" clip-rule="evenodd" d="M818.191 392.582C819.288 392.154 820.575 392.626 820.939 393.745C821.261 394.739 821.566 395.867 821.566 396.58C821.566 398.095 821.067 401 821.067 401C819.329 401 789.832 401 789.832 401C789.832 401 788.614 396.931 791.238 396.606C793.861 396.282 795.596 396.02 795.596 396.02L809.689 389.669C810.205 389.436 810.812 389.678 811.026 390.203L811.784 392.064C811.784 392.064 814.213 393.209 815.731 393.209C816.399 393.209 817.344 392.913 818.191 392.582Z" fill="#E4E4E4"/>
<path fill-rule="evenodd" clip-rule="evenodd" d="M825.142 386.126L812.327 382.207C812.327 382.207 820.749 356.753 832.972 326.186C845.194 295.619 859.225 267.19 859.225 267.19H895.419C895.419 267.19 879.82 303.151 862.345 332.541C844.87 361.931 825.142 386.126 825.142 386.126Z" fill="#DB2721"/>
<path fill-rule="evenodd" clip-rule="evenodd" d="M891.28 267.19C895.164 291.631 902.655 322.857 903.362 323.82C903.833 324.463 920.8 330.21 954.262 341.064L952.827 346.988C912.923 341.167 891.898 336.651 889.75 333.44C886.528 328.623 870.44 290.572 864.209 267.19H891.28Z" fill="#B28B67"/>
<path fill-rule="evenodd" clip-rule="evenodd" d="M942.5 335.943L939.971 345.484C910.126 348.13 891.839 346.218 885.11 339.747C878.382 333.277 870.713 309.091 862.105 267.19H896.618C902.072 301.501 905.122 319.377 905.766 320.817C906.41 322.258 918.655 327.299 942.5 335.943Z" fill="#FF4133"/>
<path fill-rule="evenodd" clip-rule="evenodd" d="M951.951 340.938C951.725 339.794 952.402 338.625 953.553 338.457C954.581 338.307 955.742 338.197 956.441 338.322C957.916 338.585 960.66 339.586 960.66 339.586C960.358 341.317 955.236 370.685 955.236 370.685C955.236 370.685 951.06 371.19 951.2 368.522C951.339 365.854 951.386 364.081 951.386 364.081L947.64 348.925C947.506 348.38 947.844 347.832 948.39 347.711L950.343 347.277C950.343 347.277 951.88 345.058 952.144 343.546C952.262 342.869 952.131 341.853 951.951 340.938Z" fill="#E4E4E4"/>
<path fill-rule="evenodd" clip-rule="evenodd" d="M841.31 221.666L860.533 232.309L853.434 240.012L839.467 227.083C832.109 225.033 828.744 223.533 829.372 222.584C829.902 221.783 830.756 221.811 831.543 221.837C832.156 221.857 832.728 221.875 833.074 221.5C833.864 220.643 832.357 217.646 830.806 214.864C829.256 212.082 830.914 212.325 831.862 212.725C834.964 214.848 838.114 217.828 841.31 221.666ZM821.984 236.6L830.427 241.29L829.946 249.856C829.946 249.856 824.478 245.866 819.773 244.539C813.774 242.848 811.347 241.557 808.416 237.781C806.847 235.761 805.516 231.699 807.009 230.376C807.582 229.869 809.715 231.068 811.892 232.291C813.552 233.223 815.236 234.169 816.274 234.385C817.671 234.676 817.507 232.845 817.377 231.382C817.283 230.333 817.206 229.472 817.735 229.721C820.206 229.764 821.984 236.6 821.984 236.6Z" fill="#997659"/>
<path fill-rule="evenodd" clip-rule="evenodd" d="M869.894 229.938C863.161 229.866 854.183 228.429 844.603 222.281L840.841 230.763C847.449 237.393 856.74 242.84 864.864 242.61C871.267 242.428 874.539 234.599 869.894 229.938Z" fill="#2026A2"/>
<path fill-rule="evenodd" clip-rule="evenodd" d="M888.053 288.05C894.454 287.206 900.335 286.431 903.821 287.125C907.731 274.285 904.484 266.201 901.486 258.738C899.68 254.24 897.963 249.968 897.96 245.017C897.949 230.597 886.497 208.403 884.812 208.403H884.328H870.974H869.446C868.759 217.326 865.827 226.987 862.876 236.71C862.187 238.98 861.496 241.254 860.834 243.523C849.666 246.086 824.869 237.165 824.869 237.165C824.869 237.165 818.609 250.258 819.082 255.834C833.515 263.456 845.886 266.854 856.077 267.078C855.753 273.192 856.489 279.01 858.962 284.325C862.275 291.447 876.074 289.629 888.053 288.05Z" fill="#1F28CF"/>
<path fill-rule="evenodd" clip-rule="evenodd" d="M991.388 204.62C987.758 206.806 984.191 207.861 982.516 207.43C978.318 206.35 977.932 191.01 981.18 184.963C984.429 178.916 1001.13 176.28 1001.97 188.261C1002.26 192.42 1000.51 196.131 997.932 199.159L1002.56 220.72H989.109L991.388 204.62Z" fill="#B28B67"/>
<path fill-rule="evenodd" clip-rule="evenodd" d="M988.849 177.993C990.622 177.703 995.397 177.503 996.277 177.503C996.84 177.503 997.45 177.632 997.783 177.116C998.056 176.693 997.956 175.978 998.037 175.488C998.132 174.918 998.266 174.356 998.402 173.795C998.789 172.199 999.374 170.681 1000.19 169.255C1001.73 166.581 1003.98 164.486 1006.81 163.267C1009.95 161.921 1013.5 161.613 1016.87 161.886C1020.48 162.178 1023.74 163.368 1027.15 164.487C1030.4 165.554 1033.8 165.974 1037.2 165.453C1040.62 164.928 1043.2 163.076 1046.09 161.318C1049.04 159.519 1052.42 158.342 1055.91 158.612C1059.17 158.865 1062.18 160.209 1064.87 162.005C1067.4 163.686 1069.48 165.708 1070.65 168.553C1071.92 171.614 1071.91 174.973 1069.84 177.679C1066.82 181.599 1061.23 182.613 1056.58 182.513C1053.88 182.455 1051.24 181.964 1048.7 181.071C1045.31 179.881 1042.38 177.863 1039.21 176.226C1037.72 175.457 1036.19 174.826 1034.57 174.372C1033.01 173.931 1031.47 173.728 1030.05 174.672C1028.55 175.67 1027.21 176.651 1025.5 177.276C1023.85 177.876 1022.11 178.211 1020.36 178.198C1016.95 178.172 1013.59 177.111 1010.28 176.4C1007.58 175.821 1004.69 175.244 1001.94 175.801C1000.79 176.033 999.111 176.513 998.696 177.705C1005.68 178.969 1008.42 187.592 1006.45 193.923C1005.39 197.34 999.004 201.334 996.521 199.538C994.948 198.4 995.903 196.906 996.521 195.919C997.704 194.031 998.109 191.605 995.919 190.29C994.03 189.156 992.044 191.849 992.007 191.846C991.487 191.805 987.001 189.271 983.91 185.573C980.861 185.754 980.398 183.746 981.126 182.104C981.854 180.461 986.399 178.395 988.849 177.993Z" fill="#191847"/>
<path fill-rule="evenodd" clip-rule="evenodd" d="M1013.41 267.19C1012.4 280.968 947.285 321.533 946.905 322.671C946.652 323.43 967.174 370.642 967.174 370.642L961.482 372.852C961.482 372.852 930.004 322.85 931.621 317.522C933.936 309.895 982.145 267.336 982.145 267.336L1013.41 267.19Z" fill="#B28B67"/>
<path fill-rule="evenodd" clip-rule="evenodd" d="M965.676 363.534L956.382 366.913C936.786 344.83 929.104 326.61 930.505 317.326C931.905 308.042 980.855 267.223 980.855 267.223L1014.08 267.223C1012.95 299.132 952.59 322.793 951.783 324.152C950.976 325.512 958.921 338.83 965.676 363.534Z" fill="#2F3676"/>
<path fill-rule="evenodd" clip-rule="evenodd" d="M966.89 370.145C967.77 369.374 969.131 369.379 969.856 370.298C970.507 371.124 971.192 372.087 971.438 372.763C971.956 374.186 972.477 377.089 972.477 377.089C970.824 377.689 942.765 387.889 942.765 387.889C942.765 387.889 940.213 384.486 942.597 383.274C944.982 382.062 946.542 381.216 946.542 381.216L957.787 370.362C958.192 369.971 958.84 369.991 959.22 370.407L960.586 371.901C960.586 371.901 963.289 372.138 964.733 371.613C965.378 371.378 966.19 370.759 966.89 370.145Z" fill="#E4E4E4"/>
<path fill-rule="evenodd" clip-rule="evenodd" d="M1005.93 267.19L1034.94 336.741L1063.45 395.541H1056.72L983.125 267.19H1005.93Z" fill="#997659"/>
<path fill-rule="evenodd" clip-rule="evenodd" d="M1061.41 392.567C1062.5 392.143 1063.78 392.612 1064.15 393.723C1064.48 394.722 1064.79 395.861 1064.79 396.58C1064.79 398.095 1064.28 401 1064.28 401C1062.52 401 1032.67 401 1032.67 401C1032.67 401 1031.43 396.931 1034.09 396.606C1036.74 396.282 1038.5 396.02 1038.5 396.02L1052.78 389.661C1053.3 389.432 1053.9 389.672 1054.12 390.193L1054.89 392.064C1054.89 392.064 1057.35 393.209 1058.88 393.209C1059.57 393.209 1060.54 392.904 1061.41 392.567Z" fill="#E4E4E4"/>
<path fill-rule="evenodd" clip-rule="evenodd" d="M1060.87 383.326L1045.92 386.126C1034.37 369.157 986.003 299.579 980.7 267.19H1013.97C1031.68 290.604 1049.86 366.077 1060.87 383.326Z" fill="#5C63AB"/>
<path fill-rule="evenodd" clip-rule="evenodd" d="M935.161 242.949L955.474 251.859L948.987 260.157L933.774 248.508C926.176 247.114 922.652 245.917 923.202 244.916C923.666 244.072 924.53 244.024 925.326 243.98C925.946 243.946 926.524 243.914 926.84 243.51C927.562 242.586 925.781 239.734 923.975 237.099C922.169 234.464 923.862 234.56 924.852 234.875C928.166 236.716 931.602 239.408 935.161 242.949ZM1026.11 256.589L1037.6 254.312C1045.39 274.82 1050.03 286.059 1051.53 288.027C1052.63 289.471 1059.41 293.189 1063.99 295.174C1065.83 295.971 1065.44 297.525 1064.9 298.022C1061.49 301.158 1058.33 300.059 1054.88 298.863C1053.88 298.516 1052.86 298.162 1051.8 297.899C1049.06 297.221 1048.23 298.626 1047.44 299.955C1046.75 301.131 1046.09 302.247 1044.17 301.802C1044.26 301.426 1044.37 301.006 1044.48 300.552C1045.23 297.618 1046.33 293.291 1044.69 290.777C1043.86 289.487 1037.66 278.091 1026.11 256.589Z" fill="#B28B67"/>
<path fill-rule="evenodd" clip-rule="evenodd" d="M994.886 211.388L990.038 210.557C979.48 220.786 975.171 245.361 968.135 248.614C961.482 251.69 952.052 248.714 940.842 244.695L937.409 252.355C947.594 263.36 969.293 272.658 978.088 267.35C992.149 258.864 995.396 228.555 994.886 211.388Z" fill="#DB2721"/>
<path fill-rule="evenodd" clip-rule="evenodd" d="M1016.02 272.228C1016.02 272.228 986.862 272.228 973.126 272.228C971.166 272.228 971.535 269.402 971.818 267.976C975.088 251.515 987.853 233.771 987.853 210.34L1000.22 208.403C1010.46 224.84 1014 245.077 1016.02 272.228Z" fill="#DDE3E9"/>
<path fill-rule="evenodd" clip-rule="evenodd" d="M1000.88 208.403H1001.02C1028.77 225.481 1045.54 251.956 1051.34 287.826L1042.34 289.585C1036.39 282.655 1029.04 271.315 1020.3 255.563C1022.98 265.052 1024.94 274.783 1025.55 283.986H986.938C979.464 265.121 996.124 208.403 996.124 208.403H998.79H1000.88Z" fill="#FF4133"/>
<path fill-rule="evenodd" clip-rule="evenodd" d="M1107.3 177.609C1114.31 177.609 1119.99 183.291 1119.99 190.299V200.752C1119.99 207.109 1115.31 212.374 1109.22 213.298C1109.21 213.35 1109.21 213.402 1109.21 213.454H1092.85C1090.07 210.756 1093.21 192.459 1095.17 186.394C1095.49 185.41 1095.8 184.743 1096.1 184.327C1098.24 180.33 1102.45 177.609 1107.3 177.609Z" fill="#191847"/>
<path fill-rule="evenodd" clip-rule="evenodd" d="M1107.05 204.62C1103.4 206.806 1099.81 207.861 1098.13 207.43C1093.9 206.35 1093.52 191.01 1096.78 184.963C1100.05 178.916 1116.85 176.28 1117.7 188.261C1118 192.42 1116.24 196.131 1113.64 199.159L1118.3 220.72H1104.76L1107.05 204.62Z" fill="#B28B67"/>
<path fill-rule="evenodd" clip-rule="evenodd" d="M1119.49 188.331C1119.1 187.946 1118.72 187.572 1118.34 187.238L1118.36 186.803C1118.36 186.803 1114.11 178.169 1107.58 178.169C1101.06 178.169 1098.99 181.181 1097.24 183.741L1097.23 183.747C1098.15 186.873 1100.92 188.137 1104.04 189.567C1105.39 190.183 1106.8 190.829 1108.16 191.668C1108.7 191.237 1109.38 190.98 1110.12 190.98C1111.83 190.98 1113.22 192.358 1113.22 194.059C1113.22 195.76 1111.83 197.138 1110.12 197.138C1110.07 197.138 1110.03 197.137 1109.98 197.135C1109.35 203.785 1109.6 211.38 1111.46 213.182H1127.82C1128.29 205.084 1126.18 202.774 1124.02 200.414C1121.99 198.192 1119.92 195.927 1119.92 188.753C1119.78 188.611 1119.63 188.471 1119.49 188.331L1119.49 188.331Z" fill="#191847"/>
<path fill-rule="evenodd" clip-rule="evenodd" d="M1140.06 322.107C1140.06 322.107 1119.77 327.742 1105.04 327.742C1090.32 327.742 1077.69 319.064 1077.69 319.064C1077.69 319.064 1097.55 313.28 1110.4 313.28C1123.25 313.28 1140.06 322.107 1140.06 322.107Z" fill="#1F28CF"/>
<path fill-rule="evenodd" clip-rule="evenodd" d="M1093.33 333.157C1093.46 332.962 1093.57 332.75 1093.66 332.521C1095.47 327.773 1124.44 276.554 1127.32 267.19H1094.71C1092.51 274.309 1082.64 318.989 1081.25 327.903C1076.86 341.965 1067.83 387.504 1066.68 390.659C1065.47 393.978 1072.29 397.435 1074.11 393.355C1077 386.863 1083.89 368.9 1086.96 357.931C1089.84 347.648 1092.18 338.397 1093.33 333.157Z" fill="#997659"/>
<path fill-rule="evenodd" clip-rule="evenodd" d="M1120.01 339.41C1133.26 342.733 1181.7 348.74 1185.02 349.682C1188.44 350.651 1191.44 343.654 1187.21 342.138C1180.49 339.726 1161.96 334.154 1150.72 331.88C1141.68 330.051 1133.44 328.558 1127.9 327.684C1128.37 312.245 1130.51 275.192 1129.11 267.19H1100.25C1101.6 274.864 1112.99 330.857 1115.11 336.462C1115.78 338.463 1117.78 339.347 1120.01 339.41V339.41Z" fill="#B28B67"/>
<path fill-rule="evenodd" clip-rule="evenodd" d="M1186.23 342.638C1186 341.487 1186.68 340.305 1187.85 340.138C1188.9 339.987 1190.08 339.877 1190.8 340.002C1192.3 340.265 1195.09 341.266 1195.09 341.266C1194.78 342.996 1189.57 372.364 1189.57 372.364C1189.57 372.364 1185.32 372.87 1185.46 370.202C1185.6 367.534 1185.65 365.761 1185.65 365.761L1181.83 350.613C1181.7 350.066 1182.04 349.512 1182.59 349.391L1184.58 348.956C1184.58 348.956 1186.15 346.737 1186.42 345.226C1186.54 344.553 1186.41 343.547 1186.23 342.638Z" fill="#E4E4E4"/>
<path fill-rule="evenodd" clip-rule="evenodd" d="M1073.75 392.559C1074.84 392.138 1076.11 392.605 1076.48 393.712C1076.81 394.714 1077.13 395.859 1077.13 396.58C1077.13 398.095 1076.62 401 1076.62 401C1074.85 401 1044.81 401 1044.81 401C1044.81 401 1043.57 396.931 1046.24 396.606C1048.91 396.282 1050.68 396.02 1050.68 396.02L1065.06 389.657C1065.57 389.43 1066.17 389.669 1066.38 390.188L1067.16 392.064C1067.16 392.064 1069.64 393.209 1071.18 393.209C1071.88 393.209 1072.87 392.9 1073.75 392.559Z" fill="#E4E4E4"/>
<path fill-rule="evenodd" clip-rule="evenodd" d="M1129.01 267.19C1129.01 267.19 1109.94 261.772 1092.92 267.19C1088.97 285.071 1079.38 292.168 1077.69 319.582C1096.87 329.041 1120.55 312.837 1140.29 322.06C1145.93 309.158 1138.04 278.087 1129.01 267.19Z" fill="#2B44FF"/>
<path fill-rule="evenodd" clip-rule="evenodd" d="M1052.04 241.953L1074.31 244.969L1070.31 254.872L1052.24 247.761C1044.45 248.524 1040.69 248.34 1040.94 247.21C1041.16 246.258 1041.99 245.97 1042.75 245.705C1043.34 245.499 1043.9 245.306 1044.09 244.823C1044.54 243.721 1042.01 241.437 1039.51 239.372C1037.02 237.307 1038.69 236.927 1039.74 236.958C1043.49 237.829 1047.58 239.494 1052.04 241.953ZM1160.37 296.252C1158.72 292.923 1144.26 250.085 1144.26 250.085L1131.91 250.131C1131.91 250.131 1152.22 295.51 1153.09 297.65C1154.22 300.43 1152.3 304.47 1151 307.21C1150.8 307.633 1150.61 308.026 1150.45 308.378C1152.26 309.18 1153.13 308.211 1154.04 307.188C1155.08 306.033 1156.17 304.811 1158.74 306C1159.74 306.459 1160.68 307.002 1161.6 307.533C1164.77 309.365 1167.69 311.048 1171.66 308.617C1172.29 308.232 1172.98 306.781 1171.31 305.647C1167.16 302.823 1161.18 297.879 1160.37 296.252Z" fill="#997659"/>
<path fill-rule="evenodd" clip-rule="evenodd" d="M1110.43 211.202L1100.76 211.841C1098.38 233.229 1085.41 246.739 1056.36 242.165L1052.51 269.708C1079.65 273.191 1103.46 262.403 1108.34 233.193C1109.6 225.632 1110.6 217.763 1110.43 211.202Z" fill="#AFB9C5"/>
<path fill-rule="evenodd" clip-rule="evenodd" d="M1158.68 290.704C1151.96 255.244 1137.79 227.81 1116.17 208.403H1115.24H1115.21L1115.2 208.412L1100.55 211.742C1100.55 229.213 1096.63 242.266 1092.87 254.816C1091.24 260.236 1089.65 265.562 1088.41 271.109H1127.97C1128.53 277.464 1128.87 283.996 1129.05 290.704H1158.68Z" fill="#C5CFD6"/>
<path fill-rule="evenodd" clip-rule="evenodd" d="M1127.97 271.109C1126.84 258.17 1124.81 245.965 1121.46 234.492C1122.2 246.761 1122.4 261.982 1119.93 271.109H1127.97Z" fill="black" fill-opacity="0.1"/>
</svg>
