<svg width="693" height="439" viewBox="0 0 693 439" fill="none" xmlns="http://www.w3.org/2000/svg">
<path fill-rule="evenodd" clip-rule="evenodd" d="M689.225 88.3342C688.692 87.9462 687.426 87.8087 686.838 87.6925C684.39 87.21 681.869 87 679.374 87C671.681 87.0115 663.863 87.7667 656.298 89.0737C651.494 89.9034 645.687 92.6957 640.909 91.1793C632.585 88.5371 624.172 88.6668 616.274 92.4389C609.053 95.8882 603.572 102.439 600.373 109.517C599.89 110.586 597.932 114.519 597.378 117.17C597.141 117.712 596.913 118.257 596.708 118.811C596.126 120.384 595.603 121.984 595.118 123.588C594.91 124.272 594.389 125.782 595.008 126.074C594.019 127.901 593.141 129.783 592.411 131.726C590.286 137.378 587.962 143.578 587.215 149.568C586.939 151.786 586.928 154.017 587.185 156.239C587.312 157.338 587.26 159.546 588.004 160.382C589.585 162.154 590.396 159.673 590.218 158.491C588.858 149.485 591.485 141.027 594.598 132.561C596.612 127.087 599.92 122.078 603.626 117.543C606.625 113.871 609.842 110.98 613.953 108.546C618.981 105.569 624.356 103.163 629.681 100.749C633.184 99.1605 636.691 97.615 640.291 96.2466C641.092 95.942 642.351 95.1614 643.239 95.1584C645.116 95.1516 647.777 96.5369 649.59 97.0522C655.554 98.7479 661.594 100.919 667.758 101.785C671.712 102.341 675.416 101.715 679.113 100.398C679.491 100.264 680.125 99.9177 680.901 99.4238C683.646 98.3678 686.243 97.0387 688.504 95.1215C689.806 94.0167 690.989 92.589 692.067 91.2823C692.389 90.8917 692.532 90.4438 692.537 90.0183C692.781 89.8906 692.943 89.7415 692.98 89.5673C693.249 88.2813 690.796 88.2576 689.225 88.3342Z" fill="#89C5CC"/>
<path fill-rule="evenodd" clip-rule="evenodd" d="M64.2734 195.541C62.7641 196.763 61.2838 198.012 59.8396 199.31C58.7389 200.301 56.7911 201.485 56.3959 202.985C55.9852 204.544 57.2819 206.003 58.3063 206.945C63.7233 211.929 69.8231 215.298 77.3293 215.859C88.8871 216.722 98.9457 213.77 108.974 207.963C116.018 203.883 120.684 197.849 121.703 189.701C130.092 193.187 138.205 197.993 145.1 203.891C148.502 206.801 151.432 210.025 154.142 213.599C155.878 215.889 157.557 218.215 159.115 220.631C159.792 221.68 160.481 223.542 161.599 224.146C162.912 224.856 164.499 223.743 164.434 222.284C164.379 221.069 163.068 219.66 162.454 218.667C161.436 217.018 160.402 215.379 159.313 213.776C157.551 211.179 155.73 208.62 153.744 206.19C149.28 200.73 143.601 196.221 137.714 192.375C126.42 184.997 114.025 180.349 100.283 179.955C91.8332 179.713 84.7248 182.6 77.4988 186.911C72.9999 189.595 68.3558 192.235 64.2734 195.541Z" fill="#DDE3E9"/>
<path fill-rule="evenodd" clip-rule="evenodd" d="M173.883 159.856C165.077 150.787 156.241 141.832 146.403 133.847C140.605 129.141 134.495 124.863 128.511 120.401C129.201 121.006 129.878 121.628 130.539 122.266C128.671 120.998 126.226 120.281 124.246 119.107C122.037 117.798 119.925 116.301 117.854 114.791C113.811 111.845 109.829 108.843 105.673 106.051C101.043 102.94 96.2446 100.066 91.5357 97.0725C87.5392 94.532 83.4939 91.7512 79.2185 89.6745C76.8883 88.5425 74.5526 87.2006 72.2129 86.02C71.4298 85.625 63.4841 80.6077 63.5041 80.5926C63.9433 80.2616 67.9418 82.1404 68.5601 82.3931C70.3664 83.1309 72.0938 84.0134 73.8304 84.8932C72.8772 83.013 72.1227 81.0376 71.712 78.9583C71.5851 78.3165 70.5685 73.6443 71.0887 73.2523C71.3485 73.0566 73.8835 81.4158 74.0133 82.2195C74.1188 82.8723 74.1033 83.8124 74.317 84.4306C74.662 85.4289 74.6446 85.1275 75.4047 85.6899C76.7977 86.7207 78.6468 87.3648 80.1545 88.2266C80.9675 88.6805 83.4847 90.4802 85.0008 90.9933C89.5883 93.2214 94.2382 96.6493 98.597 99.4953C97.4531 97.3453 96.5825 95.0972 95.9477 92.7414C95.7966 92.1821 94.1675 87.1646 94.5628 86.8668C95.0075 86.5316 98.1117 94.1947 98.2956 94.9202C98.6372 96.2676 98.7081 97.7675 99.1357 99.0787C99.6052 100.518 101.07 101.028 102.39 101.867C107.247 104.953 111.938 108.232 116.55 111.662C121.583 102.711 115.78 91.9028 110.89 84.3928C107.364 78.9805 102.619 74.3401 97.6077 70.289C90.9203 64.8824 83.269 60.5631 75.6271 56.6123C66.7227 52.0088 57.0987 49.1565 47.0933 47.8388C41.8603 47.1495 36.5067 47.1688 31.2208 47.3898C28.6387 47.4975 26.1602 47.8396 23.6857 48.6817C22.5704 49.0617 21.4925 49.5407 20.4421 50.0769C19.644 50.4843 17.7134 50.9144 17.2545 51.5215C13.4772 56.4378 11.5448 61.3369 11.8399 67.5149C12.1189 73.3631 13.9659 79.2143 16.4725 84.4308C19.264 90.2396 22.8542 95.5116 27.5497 99.9364C31.1321 103.312 35.1372 106.25 39.1159 109.15C53.267 119.463 71.2082 128.433 89.5363 126.128C95.4692 125.383 101.112 123.308 106.385 120.489C107.628 119.824 108.863 119.152 110.036 118.368C110.827 117.839 112.941 115.456 113.736 115.37C114.827 115.251 117.175 117.469 118.198 118.144C125.972 123.275 133.542 128.685 140.953 134.313C148.839 140.301 156.337 146.697 163.615 153.393C166.71 156.242 169.786 159.096 172.791 162.04C173.491 162.725 175.202 165.247 176.471 165.361C177.273 165.434 177.814 164.749 177.7 164.006C177.501 162.715 174.785 160.784 173.883 159.856Z" fill="#C1DEE2"/>
<path fill-rule="evenodd" clip-rule="evenodd" d="M679.98 124.66C676.57 123.915 672.803 123.972 669.329 124.033C650.695 124.287 632.397 133.109 620.489 147.205C610.351 159.205 607.563 174.125 605.56 189.207C605.362 190.704 605.277 192.192 605.165 193.693C605.141 194.015 605.105 194.302 605.066 194.573C604.279 195.277 603.865 196.098 604.332 197C602.597 200.797 601.129 204.69 599.869 208.706C596.162 220.526 592.392 232.571 594.714 245C595.257 238.16 596.399 231.166 597.764 224.438C597.842 224.052 597.927 223.669 598.015 223.287C598.025 223.247 598.033 223.206 598.042 223.166C598.525 221.106 599.153 219.108 599.917 217.141C599.925 217.119 599.933 217.098 599.941 217.077C600.042 216.818 600.149 216.56 600.255 216.303C600.474 215.77 600.699 215.238 600.937 214.709C601.018 214.528 601.095 214.346 601.17 214.163C602.282 211.437 602.751 208.365 603.748 205.545C603.986 204.904 604.235 204.265 604.496 203.629C604.512 203.592 604.527 203.555 604.543 203.518C605.249 201.807 606.028 200.118 606.853 198.446C607.301 198.109 607.54 197.274 607.927 196.515C608.006 196.365 608.631 195.368 608.817 194.793C609.303 193.854 609.786 192.915 610.275 191.977C610.261 191.983 610.246 191.988 610.231 191.994C610.72 191.093 611.211 190.197 611.698 189.304C611.805 189.108 611.913 188.912 612.021 188.715C612.196 188.402 612.371 188.089 612.545 187.777C614.177 184.856 615.908 181.994 617.705 179.167C618.347 178.158 619.879 176.711 620.173 175.579C620.184 175.536 620.186 175.497 620.193 175.457C624.093 169.979 628.582 164.927 633.967 160.924C633.316 161.628 631.932 164.015 631.567 164.488C630.447 165.935 629.232 167.282 628.013 168.646C625.828 171.089 623.696 173.609 621.801 176.274C618.335 181.148 615.346 186.277 612.519 191.51C612.493 191.54 612.463 191.569 612.438 191.601C611.017 193.352 610.123 195.998 609.101 198.001C613.147 196.127 617.622 194.906 621.774 193.242C625.916 191.583 629.944 189.735 633.834 187.566C639.003 184.682 644.366 181.427 649.25 177.743C654.847 174.271 659.551 169.492 663.703 164.477C668.615 158.543 673.117 152.558 675.901 145.353C677.269 141.813 678.345 138.121 678.983 134.386C679.011 134.224 679.046 134.047 679.085 133.864C679.738 132.574 680.321 131.255 680.811 129.906C681.588 127.766 683.425 125.412 679.98 124.66Z" fill="#69A1AC"/>
<path fill-rule="evenodd" clip-rule="evenodd" d="M212.274 188.326C211.648 187.702 210.946 187.14 210.122 186.739C209.913 186.637 208.361 185.958 208.259 186.107C208.024 186.454 212.086 188.127 212.274 188.326M219.635 184.161C219.63 184.188 220.169 185.029 220.315 185.288C220.627 185.838 220.915 186.398 221.186 186.96C220.785 185.968 220.373 185.048 219.635 184.161M181.985 191.009C181.467 191.163 180.843 190.557 181.516 190.407C182.06 190.288 182.033 190.259 182.278 189.856C182.476 189.528 182.598 189.128 182.772 188.784C183.142 188.055 183.561 187.359 184.075 186.707C185.177 185.309 186.52 184.105 188.026 183.09C190.655 181.319 193.602 179.7 196.728 178.887C201.699 177.594 207.356 177.514 212.335 178.411C215.418 178.966 218.236 179.931 220.284 182.217C221.307 183.36 222.11 184.698 222.461 186.172C222.553 186.557 222.536 186.985 222.65 187.363C222.827 187.942 222.749 187.788 223.486 187.901C224.29 188.024 225.093 188.15 225.897 188.278C228 188.613 230.116 188.968 232.166 189.512C232.84 189.691 233.5 189.91 234.144 190.164C234.632 190.356 236.573 190.958 236.809 191.541C237.201 192.512 235.886 192.072 235.477 191.861C235.119 191.675 234.751 191.503 234.378 191.344C233.439 190.944 232.461 190.634 231.461 190.388C230.379 190.121 229.276 189.923 228.177 189.724C227.152 189.538 226.123 189.369 225.093 189.208C224.521 189.118 223.948 189.031 223.376 188.944C223.18 188.914 222.835 188.758 222.861 188.993C221.657 188.779 220.355 188.81 219.128 188.751C217.626 188.679 216.118 188.62 214.611 188.663C213.524 188.694 212.436 188.76 211.354 188.894C210.722 188.973 210.1 189.088 209.48 189.233C209.14 189.313 207.797 189.483 207.611 189.756C207.691 189.639 209.173 189.753 209.362 189.746C210.116 189.72 210.865 189.651 211.617 189.574C213.012 189.43 214.408 189.356 215.808 189.366C215.802 189.593 214.846 189.996 214.613 190.146C214.09 190.482 213.588 190.849 213.121 191.251C212.297 191.96 211.311 192.837 210.741 193.677C210.909 193.429 211.737 193.108 212.031 192.919C212.502 192.616 212.964 192.292 213.4 191.947C213.803 191.628 214.179 191.283 214.549 190.932C214.919 190.579 215.42 189.847 215.906 189.613C215.936 189.599 216.147 189.753 216.268 189.7C216.389 189.648 216.54 189.384 216.571 189.373C217.023 189.212 217.882 189.412 218.358 189.432C219.591 189.485 220.823 189.553 222.055 189.616C222.436 189.635 222.761 189.555 222.905 189.814C223.059 190.091 222.777 190.818 222.697 191.119C222.4 192.237 221.872 193.24 221.042 194.107C219.486 195.73 217.568 196.813 215.401 197.536C207.101 200.309 198.271 201.42 189.974 198.535C186.539 197.341 181.366 195.207 181.985 191.009" fill="#89C5CC"/>
<g opacity="0.6">
<path fill-rule="evenodd" clip-rule="evenodd" d="M545.845 321.638C551.02 356.834 425.524 379.792 317.506 363.77C209.489 347.749 159.936 285.183 211.48 251.846C263.024 218.508 540.67 286.441 545.845 321.638Z" fill="#DDE3E9"/>
</g>
<rect x="232.749" y="90.9489" width="93.0365" height="162.718" rx="8" fill="#F2F2F2"/>
<path fill-rule="evenodd" clip-rule="evenodd" d="M216 252C224.284 252 231 245.284 231 237C231 228.716 224.284 222 216 222C207.716 222 201 228.716 201 237C201 245.284 207.716 252 216 252Z" fill="white"/>
<path fill-rule="evenodd" clip-rule="evenodd" d="M271.368 101.725C272.014 101.725 272.538 101.242 272.538 100.647C272.538 100.052 272.014 99.5697 271.368 99.5697C270.721 99.5697 270.197 100.052 270.197 100.647C270.197 101.242 270.721 101.725 271.368 101.725Z" fill="white"/>
<rect x="275.463" y="99.5697" width="12.2878" height="2.15522" rx="1.07761" fill="white"/>
<rect x="263.761" y="114.764" width="42.7149" height="4.3643" rx="2.18215" fill="#DDE3E9"/>
<rect x="263.761" y="122.038" width="28.6716" height="4.3643" rx="2.18215" fill="#DDE3E9"/>
<path fill-rule="evenodd" clip-rule="evenodd" d="M325 36C318.373 36 313 30.6274 313 24C313 17.3726 318.373 12 325 12C331.627 12 337 17.3726 337 24C337 30.6274 331.627 36 325 36Z" fill="#C5CFD6"/>
<rect x="263.761" y="173.17" width="42.7149" height="3.39445" rx="1.69722" fill="#DDE3E9"/>
<rect x="263.761" y="178.827" width="28.6716" height="3.39447" rx="1.69724" fill="#DDE3E9"/>
<path fill-rule="evenodd" clip-rule="evenodd" d="M325 142C318.373 142 313 136.627 313 130C313 123.373 318.373 118 325 118C331.627 118 337 123.373 337 130C337 136.627 331.627 142 325 142Z" fill="#AFB9C5"/>
<rect x="263.761" y="200.11" width="42.7149" height="3.39445" rx="1.69723" fill="#DDE3E9"/>
<rect x="263.761" y="205.767" width="28.6716" height="3.39444" rx="1.69722" fill="#DDE3E9"/>
<path fill-rule="evenodd" clip-rule="evenodd" d="M325 192C318.373 192 313 186.627 313 180C313 173.373 318.373 168 325 168C331.627 168 337 173.373 337 180C337 186.627 331.627 192 325 192Z" fill="#C5CFD6"/>
<rect width="208" height="286" rx="4" transform="matrix(1 0 0 -1 338 286)" fill="white"/>
<path fill-rule="evenodd" clip-rule="evenodd" d="M686.986 190.376C683.041 187.701 677.796 187 673.076 187C654.64 187 637.311 193.84 622.341 204.032C614.138 209.616 606.8 216.728 600.322 224.132C596.582 228.407 593.248 233.03 590.887 238.173C589.294 241.644 588.201 245.261 587.46 248.991C586.557 253.537 585.839 258.175 585.515 262.797C585.387 264.617 584.33 274.274 587.356 274.438C587.338 274.676 587.334 274.903 587.353 275.106C580.782 285.38 576.723 297.42 572.958 308.835C569.683 318.769 566.764 328.786 564.87 339.063C562.375 352.592 560.737 366.326 559.958 380.05C559.791 382.999 559.676 385.95 559.577 388.903C559.493 391.422 559.408 393.941 559.325 396.461C559.233 399.284 558.736 402.534 559.185 405.34C559.576 407.784 561.691 407.414 561.785 404.982C561.898 402.045 561.879 399.102 562.008 396.163C562.179 392.262 562.355 388.361 562.546 384.461C563.875 357.369 568.86 330.675 578.061 305.084C581.785 294.728 586.051 284.925 591.535 275.345C596.356 266.922 602.156 258.767 608.084 251.173C613.845 243.792 619.836 236.583 626.895 230.33C632.624 225.256 638.926 220.835 645.404 216.722C653.631 211.498 661.843 206.401 670.755 202.391C675.388 200.307 680.108 198.441 684.777 196.44C685.617 196.081 686.517 195.732 687.325 195.315C690.02 193.925 689.133 191.832 686.986 190.376Z" fill="#C1DEE2"/>
<path fill-rule="evenodd" clip-rule="evenodd" d="M612.818 285C620.295 285 626.949 285.972 633.838 288.943C639.785 291.508 645.205 294.903 650.467 298.599C657.868 303.798 663.698 309.848 667.779 317.865C670.217 322.654 672.006 329.431 670.368 334.655C668.44 340.807 663.144 345.939 656.169 344.855C651.856 344.185 647.903 341.33 644.625 338.643C640.703 335.428 637.564 331.563 634.972 327.27C630.744 320.267 628.26 312.351 624.668 305.033C622.964 301.56 621.317 298.063 619.275 294.762C618.265 293.128 617.189 291.509 615.656 290.294C614.836 289.644 611.378 288.52 612.7 287.061C593.31 287.315 576.132 302.207 572.409 320.641C572.063 322.359 571.792 324.091 571.505 325.82C571.325 326.911 571.398 330.937 570.422 331.634C568.27 333.172 569.174 328.499 569.267 327.826C569.506 326.087 569.76 324.35 570.027 322.615C571.481 313.181 575.681 304.411 582.685 297.683C590.694 289.99 601.501 285 612.818 285Z" fill="#89C5CC"/>
<path fill-rule="evenodd" clip-rule="evenodd" d="M195.849 248.676C206.771 265.548 219.492 281.886 227.132 300.334C226.824 298.159 226.497 295.987 226.132 293.818C224.194 282.32 221.785 270.905 219.253 259.505C217.964 253.7 216.6 247.916 215.202 242.133C214.45 239.027 213.707 235.919 212.939 232.816C212.753 232.064 212.593 230.751 212.36 229.421C219.785 251.855 226.944 274.305 232.181 297.279C232.868 300.294 233.454 303.303 233.933 306.308C234.097 305.622 234.258 304.937 234.434 304.253C236.553 296.06 239.732 287.931 243.517 280.27C245.326 276.606 247.404 273.022 249.851 269.683C251.377 267.602 254.975 265.128 256.367 262.996C248.755 275.852 246.006 291.939 241.611 305.916C240.538 309.327 239.458 312.732 238.4 316.144C245.029 303.903 255.313 293.846 269.612 289.488C252.304 300.018 241.922 318.46 234.927 337.321C234.903 337.545 234.876 337.768 234.852 337.992C236.911 334.395 239.504 331.141 243.019 328.862C250.541 323.983 258.885 325.404 266.181 329.589C260.455 326.237 250.105 329.289 245.287 332.696C241.837 335.135 238.889 338.407 236.329 341.599C235.716 342.364 234.879 343.257 233.995 344.209C232.756 351.618 230.736 358.976 227.876 366.276C228.348 364.181 228.007 360.83 228.137 359.268C228.152 359.099 228.163 358.93 228.177 358.761C227.743 360.359 227.323 361.94 226.918 363.494C227.722 360.528 228.159 357.431 228.5 354.302C228.588 352.957 228.674 351.613 228.764 350.268C228.735 347.716 228.621 345.154 228.428 342.588C227.744 340.095 226.977 337.742 226.345 335.786C224.064 328.727 220.721 321.965 216.605 315.656C212.85 309.899 208.356 304.685 203.167 299.968C200.37 297.427 197.442 295.006 194.556 292.552C193.512 291.664 191.647 289.483 190.034 288.346C201.783 294.311 213.877 300.764 222.449 310.374C221.444 306.821 220.352 303.318 219.198 299.885C213.34 282.468 205.944 264.417 195.849 248.676Z" fill="#DDE3E9"/>
<path fill-rule="evenodd" clip-rule="evenodd" d="M207.588 344.185C207.588 363.527 209.251 379.207 231.578 379.207C253.905 379.207 255.569 363.527 255.569 344.185" fill="#C5CFD6"/>
<rect x="456.27" y="95.2593" width="3.5108" height="13.47" rx="1.7554" fill="#DDE3E9"/>
<rect x="464.462" y="86.6385" width="3.51077" height="22.0908" rx="1.75539" fill="#DDE3E9"/>
<rect x="472.654" y="82.3281" width="3.51077" height="26.4012" rx="1.75539" fill="#DDE3E9"/>
<rect x="480.846" y="86.6385" width="3.51083" height="22.0908" rx="1.75542" fill="#DDE3E9"/>
<rect x="489.038" y="78.0176" width="3.5108" height="30.7116" rx="1.7554" fill="#C5CFD6"/>
<path fill-rule="evenodd" clip-rule="evenodd" d="M168.384 243.029C168.384 237.027 173.651 232.115 180.087 232.115V243.029L172.089 250.973C169.814 249.031 168.384 246.181 168.384 243.029Z" fill="#F2F2F2"/>
<path fill-rule="evenodd" clip-rule="evenodd" d="M179.777 242.891H191.595C191.595 245.704 190.349 248.34 188.379 250.255C186.212 252.35 183.126 253.667 179.777 253.667C176.692 253.667 173.868 252.53 171.7 250.734L179.777 242.891Z" fill="#AFB9C5"/>
<path fill-rule="evenodd" clip-rule="evenodd" d="M191.789 242.891C191.789 236.965 186.522 232.115 180.087 232.115V242.891H191.789ZM174.235 232.115L178.916 241.813L168.384 237.503C169.426 234.989 171.764 233.074 174.235 232.115Z" fill="#C5CFD6"/>
<path fill-rule="evenodd" clip-rule="evenodd" d="M549.17 247.836C548.046 248.936 546.453 249.626 544.682 249.626C541.278 249.626 538.518 247.093 538.518 243.968C538.518 240.844 541.278 238.311 544.682 238.311V227.804C534.998 227.804 527.072 235.08 527.072 243.968C527.072 252.857 534.998 260.132 544.682 260.132C549.768 260.132 554.365 258.157 557.499 255.015L549.17 247.836Z" fill="#F2F2F2"/>
<path fill-rule="evenodd" clip-rule="evenodd" d="M544.626 227.804V238.311C548.019 238.311 550.77 240.844 550.77 243.968H562.18C562.18 235.08 554.279 227.804 544.626 227.804Z" fill="#AFB9C5"/>
<path fill-rule="evenodd" clip-rule="evenodd" d="M550.534 243.968C550.534 245.804 549.595 247.436 548.137 248.489L555.312 256.9C559.488 253.889 562.18 249.221 562.18 243.968H550.534Z" fill="#C5CFD6"/>
<path fill-rule="evenodd" clip-rule="evenodd" d="M437.576 99.3024C436.711 100.145 435.486 100.674 434.123 100.674C431.504 100.674 429.382 98.7323 429.382 96.3369C429.382 93.9414 431.504 91.9995 434.123 91.9995V83.9445C426.674 83.9445 420.577 89.5223 420.577 96.3369C420.577 103.151 426.674 108.729 434.123 108.729C438.036 108.729 441.572 107.215 443.982 104.806L437.576 99.3024Z" fill="#F2F2F2"/>
<path fill-rule="evenodd" clip-rule="evenodd" d="M434.035 83.9445V91.9995C436.636 91.9995 438.745 93.9414 438.745 96.3369H447.493C447.493 89.5223 441.436 83.9445 434.035 83.9445Z" fill="#AFB9C5"/>
<path fill-rule="evenodd" clip-rule="evenodd" d="M438.759 96.3369C438.759 97.7136 438.055 98.9374 436.961 99.7276L442.342 106.035C445.474 103.777 447.493 100.277 447.493 96.3369H438.759Z" fill="#C5CFD6"/>
<path fill-rule="evenodd" clip-rule="evenodd" d="M224.561 108.722C224.558 108.727 224.556 108.733 224.552 108.739C224.556 108.734 224.561 108.712 224.561 108.722" fill="#C5CFD6"/>
<path fill-rule="evenodd" clip-rule="evenodd" d="M224.555 108.73C224.555 108.731 224.554 108.733 224.554 108.735C224.554 108.73 224.565 108.714 224.555 108.73" fill="#C5CFD6"/>
<path fill-rule="evenodd" clip-rule="evenodd" d="M224.596 108.639C224.588 108.66 224.577 108.681 224.568 108.703C224.572 108.692 224.577 108.683 224.582 108.672C224.46 108.953 224.537 108.77 224.596 108.639" fill="#C5CFD6"/>
<path fill-rule="evenodd" clip-rule="evenodd" d="M224.57 108.704C224.565 108.714 224.56 108.724 224.556 108.734C224.522 108.794 224.57 108.704 224.57 108.704" fill="#C5CFD6"/>
<path fill-rule="evenodd" clip-rule="evenodd" d="M224.556 108.73C224.556 108.729 224.556 108.729 224.557 108.728C224.556 108.729 224.556 108.729 224.556 108.73" fill="#C5CFD6"/>
<path fill-rule="evenodd" clip-rule="evenodd" d="M224.55 108.738C224.543 108.751 224.583 108.689 224.55 108.738Z" fill="#C5CFD6"/>
<path fill-rule="evenodd" clip-rule="evenodd" d="M224.555 108.73L224.558 108.728C224.557 108.729 224.557 108.73 224.555 108.73" fill="#C5CFD6"/>
<rect x="196.47" y="80.7116" width="55.5878" height="33.9445" rx="4" fill="#DDE3E9"/>
<path fill-rule="evenodd" clip-rule="evenodd" d="M217.535 90.4101L201.151 114.656H233.919L217.535 90.4101Z" fill="#AFB9C5"/>
<path fill-rule="evenodd" clip-rule="evenodd" d="M233.626 96.8757L219.291 114.656H247.962L233.626 96.8757Z" fill="#C5CFD6"/>
<path fill-rule="evenodd" clip-rule="evenodd" d="M239.77 96.8757C242.679 96.8757 245.036 94.7046 245.036 92.0265C245.036 89.3483 242.679 87.1772 239.77 87.1772C236.862 87.1772 234.504 89.3483 234.504 92.0265C234.504 94.7046 236.862 96.8757 239.77 96.8757Z" fill="white"/>
<path fill-rule="evenodd" clip-rule="evenodd" d="M503.662 338.79C503.664 338.795 503.667 338.801 503.67 338.807C503.667 338.802 503.662 338.78 503.662 338.79" fill="#C5CFD6"/>
<path fill-rule="evenodd" clip-rule="evenodd" d="M503.667 338.798C503.667 338.799 503.669 338.801 503.669 338.803C503.669 338.798 503.658 338.782 503.667 338.798" fill="#C5CFD6"/>
<path fill-rule="evenodd" clip-rule="evenodd" d="M503.627 338.707C503.635 338.728 503.646 338.749 503.655 338.77C503.65 338.76 503.646 338.751 503.641 338.74C503.763 339.02 503.685 338.838 503.627 338.707" fill="#C5CFD6"/>
<path fill-rule="evenodd" clip-rule="evenodd" d="M503.653 338.772C503.658 338.781 503.662 338.792 503.667 338.802C503.701 338.862 503.653 338.772 503.653 338.772" fill="#C5CFD6"/>
<path fill-rule="evenodd" clip-rule="evenodd" d="M503.667 338.798C503.667 338.797 503.667 338.797 503.665 338.796C503.667 338.797 503.667 338.797 503.667 338.798" fill="#C5CFD6"/>
<path fill-rule="evenodd" clip-rule="evenodd" d="M503.672 338.806C503.679 338.819 503.639 338.756 503.672 338.806Z" fill="#C5CFD6"/>
<path fill-rule="evenodd" clip-rule="evenodd" d="M503.667 338.798L503.665 338.796C503.666 338.797 503.666 338.798 503.667 338.798" fill="#C5CFD6"/>
<rect width="83.0892" height="50.6472" rx="4" transform="matrix(-1 0 0 1 545.211 297.31)" fill="#DDE3E9"/>
<path fill-rule="evenodd" clip-rule="evenodd" d="M514.359 311.857L538.382 347.957H490.336L514.359 311.857Z" fill="#AFB9C5"/>
<path fill-rule="evenodd" clip-rule="evenodd" d="M489.59 321.527L510.828 347.957H468.353L489.59 321.527Z" fill="#C5CFD6"/>
<path fill-rule="evenodd" clip-rule="evenodd" d="M480.553 321.556C476.191 321.556 472.654 318.299 472.654 314.282C472.654 310.265 476.191 307.008 480.553 307.008C484.916 307.008 488.453 310.265 488.453 314.282C488.453 318.299 484.916 321.556 480.553 321.556Z" fill="white"/>
<path fill-rule="evenodd" clip-rule="evenodd" d="M280.689 255.667C284.054 257.697 287.36 258.678 288.912 258.278C292.804 257.274 293.162 243.026 290.151 237.409C287.139 231.792 271.658 229.344 270.878 240.473C270.607 244.335 272.228 247.782 274.622 250.595L270.329 270.621H282.801L280.689 255.667Z" fill="#B28B67"/>
<path fill-rule="evenodd" clip-rule="evenodd" d="M265.441 236.768C265.038 236.369 264.818 235.799 264.628 235.257C264.431 234.695 264.239 234.127 264.108 233.541C263.846 232.372 263.843 231.026 264.677 230.118C265.346 229.39 266.349 229.063 267.275 228.992C267.892 228.945 268.526 229.031 269.117 229.226C269.704 229.419 270.21 229.804 270.779 230.042C270.801 228.782 271.016 227.463 271.655 226.387C272.27 225.351 273.251 224.77 274.367 224.616C275.513 224.459 276.645 224.727 277.671 225.282C277.927 225.421 278.182 225.567 278.425 225.732C278.629 225.87 278.841 226.036 279.081 226.092C279.347 226.155 279.479 226.001 279.653 225.806C279.856 225.578 280.085 225.377 280.327 225.198C281.399 224.41 282.804 224.086 284.046 224.559C284.618 224.776 285.174 225.146 285.562 225.655C285.908 226.109 286.154 226.829 286.632 227.146C286.834 227.28 286.977 227.102 287.162 226.971C287.439 226.773 287.703 226.555 287.983 226.363C288.377 226.093 288.804 225.891 289.26 225.785C289.929 225.63 290.853 225.667 291.044 226.543C291.115 226.872 291.06 227.224 291.037 227.555C291.005 228.011 290.972 228.466 290.933 228.921C290.903 229.266 290.865 229.599 290.8 229.938C290.765 230.119 290.656 230.456 290.734 230.637C290.831 230.863 291.277 230.734 291.468 230.742C291.845 230.758 292.223 230.824 292.572 230.985C292.842 231.11 293.126 231.294 293.24 231.603C293.31 231.794 293.291 231.989 293.258 232.185C293.218 232.42 293.264 232.544 293.293 232.781C293.8 232.532 295.554 231.978 295.774 232.886C295.848 233.188 295.68 233.529 295.553 233.784C295.329 234.231 295.035 234.64 294.735 235.03C294.109 235.843 293.362 236.544 292.558 237.143C293.5 237.563 293.746 238.799 292.93 239.535C292.57 239.86 292.086 239.933 291.632 239.912C291.465 239.904 291.226 239.84 291.095 239.869C291.025 239.885 290.949 239.945 290.852 239.951C290.211 239.995 289.487 239.841 288.86 239.698C287.744 239.445 286.686 238.915 285.823 238.109C285.602 237.902 285.419 237.783 285.121 237.786C284.859 237.789 284.603 237.86 284.342 237.867C283.652 237.885 283.029 237.547 282.388 237.322C282.349 238.189 282.102 239.144 281.748 239.923C281.459 240.559 280.855 240.652 280.262 240.707C278.366 240.886 276.464 240.687 274.565 240.689C276.403 241.105 278.302 241.276 280.123 241.766C280.947 241.987 280.318 242.542 279.966 242.927C279.386 243.561 278.955 244.346 278.656 245.174C277.757 244.001 276.168 243.228 274.761 243.588C273.205 243.986 272.11 246.091 273.105 247.605C273.682 248.483 274.725 248.822 275.593 249.2C274.916 249.904 274.752 250.944 274.344 251.82C274.144 252.252 273.861 252.741 273.412 252.891C273.246 252.947 273.051 252.952 272.92 253.088C272.757 253.256 272.719 253.443 272.511 253.588C271.683 254.164 270.39 254.119 269.656 253.367C268.992 252.688 269.165 251.612 269.719 250.923C268.837 250.555 267.23 250.081 267.58 248.706C265.668 248.579 261.027 245.476 263.593 243.209C262.184 242.412 260.891 240.466 261.795 238.75C262.492 237.429 264.112 236.838 265.441 236.768" fill="#191847"/>
<path fill-rule="evenodd" clip-rule="evenodd" d="M251.944 336.145H292.09L297.351 400.628H237.59L251.944 336.145Z" fill="#C5CFD6"/>
<path fill-rule="evenodd" clip-rule="evenodd" d="M251.944 336.145H264.292L271.682 400.628H237.59L251.944 336.145Z" fill="black" fill-opacity="0.1"/>
<path fill-rule="evenodd" clip-rule="evenodd" d="M314.148 348.92C309.637 358.494 302.588 381.736 302.588 381.736L308.572 384.473C308.572 384.473 323.758 360.041 333.038 343.34C332.605 347.099 332.165 351.332 331.757 355.782C330.79 366.323 331.756 389.097 332.277 395.676C332.603 399.81 338.217 398.944 338.741 395.665C338.83 395.11 339.192 393.16 339.732 390.251C342.378 375.985 349.305 338.65 349.318 329.508C349.322 325.83 342.141 322.525 337.861 325.097C334.92 321.958 329.356 320.148 326.159 325.334C324.127 328.631 319.298 337.99 314.148 348.92Z" fill="#B28B67"/>
<path fill-rule="evenodd" clip-rule="evenodd" d="M303.015 373.132L323.556 324.437C328.477 316.516 342.274 326.049 340.596 330.644C336.786 341.074 317.41 374.842 316.275 377.95L303.015 373.132Z" fill="#1F28CF"/>
<path fill-rule="evenodd" clip-rule="evenodd" d="M304.052 379.711C303.31 378.804 301.97 378.568 301.102 379.354C300.409 379.981 299.693 380.701 299.377 381.248C298.675 382.467 297.732 385.038 297.732 385.038C299.144 385.854 323.115 399.703 323.115 399.703C323.115 399.703 325.993 397.002 324.012 395.509C322.031 394.016 320.742 392.991 320.742 392.991L312.271 381.312C311.94 380.856 311.298 380.763 310.852 381.107L309.423 382.208C309.423 382.208 306.918 381.989 305.684 381.276C305.166 380.977 304.57 380.345 304.052 379.711Z" fill="#E4E4E4"/>
<path fill-rule="evenodd" clip-rule="evenodd" d="M333.37 392.853C332.275 392.438 330.996 392.905 330.637 394.02C330.35 394.909 330.09 395.891 330.09 396.523C330.09 397.929 330.558 400.628 330.558 400.628C332.189 400.628 359.868 400.628 359.868 400.628C359.868 400.628 361.011 396.848 358.549 396.547C356.088 396.245 354.459 396.003 354.459 396.003L341.288 390.127C340.773 389.897 340.171 390.138 339.956 390.659L339.269 392.327C339.269 392.327 336.99 393.391 335.565 393.391C334.968 393.391 334.136 393.142 333.37 392.853Z" fill="#E4E4E4"/>
<path fill-rule="evenodd" clip-rule="evenodd" d="M350.757 333.25C350.757 347.065 344.201 379.291 344.196 382.333L330.09 382.344C330.09 382.344 333.187 339.212 332.286 338.747C331.386 338.282 295.364 342.346 284.56 342.346C268.982 342.346 262.537 332.515 262.014 314.303H292.875C299.159 314.976 331.934 321.592 344.106 323.866C349.317 324.84 350.757 329.444 350.757 333.25Z" fill="#2B44FF"/>
<path fill-rule="evenodd" clip-rule="evenodd" d="M329.923 319.314L313.347 307.133L309.682 316.198L326.097 323.009C330.74 328.466 333.335 330.741 333.885 329.834C334.348 329.069 333.986 328.353 333.652 327.693C333.393 327.18 333.15 326.7 333.329 326.258C333.736 325.25 336.855 325.356 339.81 325.583C342.765 325.811 341.904 324.495 341.191 323.845C338.175 322.038 334.419 320.528 329.923 319.314ZM242.993 340.777C244.516 337.685 249.702 307.553 249.702 307.553L260.562 307.596C260.562 307.596 250.504 340.088 249.702 342.076C248.661 344.658 250.429 348.411 251.629 350.955C251.815 351.349 251.986 351.713 252.132 352.04C250.468 352.786 249.668 351.885 248.826 350.935C247.874 349.862 246.866 348.727 244.495 349.831C243.579 350.258 242.712 350.762 241.865 351.255C238.939 352.957 236.251 354.52 232.595 352.262C232.016 351.905 231.38 350.557 232.915 349.504C236.739 346.88 242.249 342.288 242.993 340.777Z" fill="#B28B67"/>
<path fill-rule="evenodd" clip-rule="evenodd" d="M280.563 261.953L285.057 261.182C301.729 275.595 308.577 303.284 329.014 317.951L324.095 324.053C288.641 319.66 279.854 285.886 280.563 261.953Z" fill="#E87613"/>
<path fill-rule="evenodd" clip-rule="evenodd" d="M260.975 318.464C260.975 318.464 288.001 318.464 300.735 318.464C302.552 318.464 302.209 315.838 301.947 314.514C298.915 299.225 287.083 282.744 287.083 260.98L275.614 259.181C266.128 274.448 262.848 293.245 260.975 318.464Z" fill="#DDE3E9"/>
<path fill-rule="evenodd" clip-rule="evenodd" d="M262.498 274.008C260.411 273.859 258.528 272.985 257.337 270.835C253.145 263.266 254.659 259.099 259.139 257.729C261.602 256.976 263.919 257.49 266.692 258.105C268.962 258.609 271.538 259.181 274.751 259.181C275.062 259.181 275.345 259.201 275.602 259.241L279.408 259.459C279.408 259.459 294.859 311.862 287.931 329.384H256.504C254.717 333.679 252.965 337.426 251.314 340.305H242.786C241.869 310.621 253.099 287.78 262.498 274.008Z" fill="#FF9B21"/>
<path fill-rule="evenodd" clip-rule="evenodd" d="M256.504 329.384C258.848 323.749 261.253 317.172 263.566 310.38C264.428 317.86 265.862 325.373 268.25 329.384H256.504Z" fill="black" fill-opacity="0.1"/>
<path fill-rule="evenodd" clip-rule="evenodd" d="M427.169 222.853C423.799 224.884 420.488 225.866 418.933 225.465C415.036 224.46 414.677 210.202 417.693 204.58C420.709 198.959 436.213 196.509 436.994 207.647C437.265 211.512 435.642 214.962 433.244 217.777L437.544 237.818H425.054L427.169 222.853Z" fill="#B28B67"/>
<path fill-rule="evenodd" clip-rule="evenodd" d="M424.812 198.102C426.459 197.832 430.891 197.646 431.708 197.646C432.231 197.646 432.797 197.766 433.106 197.286C433.36 196.893 433.267 196.229 433.342 195.773C433.43 195.244 433.555 194.721 433.681 194.2C434.04 192.716 434.583 191.305 435.342 189.98C436.767 187.493 438.855 185.546 441.491 184.413C444.401 183.162 447.695 182.875 450.825 183.129C454.176 183.401 457.208 184.507 460.371 185.547C463.386 186.539 466.543 186.929 469.696 186.445C472.872 185.957 475.272 184.236 477.951 182.602C480.694 180.929 483.828 179.835 487.071 180.086C490.098 180.321 492.887 181.571 495.39 183.24C497.732 184.802 499.664 186.682 500.755 189.327C501.928 192.172 501.927 195.295 499.997 197.809C497.2 201.454 492.007 202.396 487.687 202.303C485.188 202.249 482.734 201.793 480.375 200.963C477.229 199.856 474.51 197.98 471.566 196.459C470.185 195.744 468.757 195.158 467.261 194.735C465.808 194.325 464.378 194.137 463.063 195.014C461.672 195.943 460.425 196.854 458.834 197.435C457.307 197.993 455.69 198.305 454.064 198.292C450.899 198.267 447.78 197.281 444.706 196.621C442.2 196.083 439.518 195.546 436.963 196.063C435.896 196.28 434.339 196.726 433.954 197.834C440.436 199.008 442.981 207.024 441.154 212.909C440.168 216.085 434.24 219.798 431.935 218.128C430.474 217.07 431.361 215.682 431.935 214.765C433.033 213.009 433.409 210.754 431.376 209.532C429.622 208.478 427.778 210.981 427.744 210.978C427.262 210.94 423.097 208.585 420.227 205.148C417.396 205.316 416.967 203.449 417.643 201.922C418.319 200.396 422.538 198.475 424.812 198.102Z" fill="#191847"/>
<path fill-rule="evenodd" clip-rule="evenodd" d="M445.854 281.766L426.299 345.822L416.826 400.297H409.398L419.408 281.766H445.854Z" fill="#997659"/>
<path fill-rule="evenodd" clip-rule="evenodd" d="M452.85 281.766C451.522 316.936 453.085 335.077 453.382 338.273C453.679 341.468 457.75 362.187 467.387 401.369L459.472 398.646C444.242 362.71 439.052 344.033 437.305 339.314C435.559 334.595 430.919 315.412 423.387 281.766H452.85Z" fill="#B28B67"/>
<path fill-rule="evenodd" clip-rule="evenodd" d="M464.917 398.423C466.014 398.008 467.294 398.475 467.653 399.59C467.939 400.481 468.199 401.464 468.199 402.097C468.199 403.505 467.731 406.207 467.731 406.207C466.1 406.207 438.421 406.207 438.421 406.207C438.421 406.207 437.279 402.423 439.74 402.121C442.202 401.819 443.83 401.576 443.83 401.576L457.001 395.693C457.515 395.463 458.119 395.704 458.333 396.226L459.021 397.897C459.021 397.897 461.299 398.962 462.724 398.962C463.321 398.962 464.153 398.713 464.917 398.423Z" fill="#E4E4E4"/>
<path fill-rule="evenodd" clip-rule="evenodd" d="M416.069 398.423C417.165 398.008 418.446 398.475 418.804 399.59C419.091 400.481 419.351 401.464 419.351 402.097C419.351 403.505 418.883 406.207 418.883 406.207C417.252 406.207 389.573 406.207 389.573 406.207C389.573 406.207 388.431 402.423 390.892 402.121C393.354 401.819 394.982 401.576 394.982 401.576L408.152 395.693C408.667 395.463 409.27 395.704 409.485 396.226L410.172 397.897C410.172 397.897 412.451 398.962 413.876 398.962C414.473 398.962 415.304 398.713 416.069 398.423Z" fill="#E4E4E4"/>
<path fill-rule="evenodd" clip-rule="evenodd" d="M448.452 281.766L440.138 314.402H414.742L418.528 281.766H448.452Z" fill="#69A1AC"/>
<path fill-rule="evenodd" clip-rule="evenodd" d="M453.129 281.766C457.233 294.091 454.688 314.402 454.688 314.402H428.773L421.646 281.766H453.129Z" fill="#89C5CC"/>
<path fill-rule="evenodd" clip-rule="evenodd" d="M374.076 229.881L394.433 232.989L390.611 241.984L374.169 235.196C367.02 235.771 363.572 235.543 363.825 234.514C364.038 233.646 364.802 233.396 365.505 233.166C366.052 232.986 366.564 232.819 366.75 232.381C367.175 231.38 364.892 229.251 362.639 227.323C360.386 225.395 361.927 225.074 362.891 225.119C366.306 225.974 370.034 227.561 374.076 229.881ZM386.245 281.486L400.991 267.126L405.886 275.582L390.553 284.609C386.708 290.654 384.45 293.267 383.779 292.446C383.213 291.754 383.473 290.995 383.712 290.296C383.898 289.751 384.072 289.243 383.833 288.831C383.289 287.89 380.211 288.43 377.312 289.066C374.413 289.703 375.084 288.282 375.7 287.539C378.44 285.332 381.956 283.314 386.245 281.486Z" fill="#B28B67"/>
<path fill-rule="evenodd" clip-rule="evenodd" d="M421.965 231.085C415.354 249.006 404.204 263.598 387.303 279.514L395.533 286.514C415.395 275.795 425.795 269.551 429.014 253.045C429.821 248.902 429.004 236.173 428.89 229.431L421.965 231.085Z" fill="#2026A2"/>
<path fill-rule="evenodd" clip-rule="evenodd" d="M454.794 283.083L415.111 288.661C415.111 288.661 422.825 245.717 420.967 230.378C420.904 229.856 421.737 228.805 422.18 228.865C427.033 229.525 432.033 226.477 432.033 226.477C443.563 240.258 449.43 258.396 454.794 283.083Z" fill="#F2F2F2"/>
<path fill-rule="evenodd" clip-rule="evenodd" d="M425.317 250.918C422.849 278.328 426.188 300.012 439.871 298.089L461.03 295.115C461.222 272.099 447.997 242.082 437.593 227.467C437.196 226.908 436.371 225.867 434.803 226.087L428.654 226.951C428.653 226.96 428.651 226.968 428.65 226.977C426.802 227.252 424.774 227.606 422.577 227.989C411.271 229.962 395.506 232.713 376.881 229.506L376.253 240.283C393.791 248.349 411.204 254.06 425.317 250.918Z" fill="#1F28CF"/>
</svg>
